<?xml version="1.0" encoding="UTF-8" standalone="no"?>
<!DOCTYPE svg PUBLIC "-//W3C//DTD SVG 1.1//EN"
 "http://www.w3.org/Graphics/SVG/1.1/DTD/svg11.dtd">
<!-- Generated by graphviz version 5.0.0 (20220707.1540)
 -->
<!-- Title: UmlClassDiagram Pages: 1 -->
<svg width="1208pt" height="516pt"
 viewBox="0.00 0.00 1208.00 516.40" xmlns="http://www.w3.org/2000/svg" xmlns:xlink="http://www.w3.org/1999/xlink">
<g id="graph0" class="graph" transform="scale(1 1) rotate(0) translate(4 512.4)">
<title>UmlClassDiagram</title>
<polygon fill="white" stroke="transparent" points="-4,4 -4,-512.4 1204,-512.4 1204,4 -4,4"/>
<g id="clust1" class="cluster">
<title>cluster_0</title>
<polygon fill="white" stroke="black" points="457,-8 457,-174.6 743,-174.6 743,-8 457,-8"/>
<text text-anchor="middle" x="600" y="-16.2" font-family="Times,serif" font-size="14.00">contracts</text>
</g>
<g id="clust2" class="cluster">
<title>cluster_1</title>
<polygon fill="white" stroke="black" points="8,-182.6 8,-500.4 1192,-500.4 1192,-182.6 8,-182.6"/>
<text text-anchor="middle" x="600" y="-190.8" font-family="Times,serif" font-size="14.00">contracts/modules</text>
</g>
<!-- 0 -->
<g id="node1" class="node">
<title>0</title>
<polygon fill="#f2f2f2" stroke="black" points="464.7,-41.3 464.7,-166.1 735.3,-166.1 735.3,-41.3 464.7,-41.3"/>
<text text-anchor="middle" x="600" y="-149.5" font-family="Times,serif" font-size="14.00">CMTAT_PROXY</text>
<text text-anchor="middle" x="600" y="-132.7" font-family="Times,serif" font-size="14.00">contracts/CMTAT_PROXY.sol</text>
<polyline fill="none" stroke="black" points="464.7,-124.5 735.3,-124.5 "/>
<text text-anchor="start" x="472.7" y="-107.9" font-family="Times,serif" font-size="14.00">Private:</text>
<text text-anchor="start" x="472.7" y="-91.1" font-family="Times,serif" font-size="14.00"> &#160;&#160;__gap: uint256[50]</text>
<polyline fill="none" stroke="black" points="464.7,-82.9 735.3,-82.9 "/>
<text text-anchor="start" x="472.7" y="-66.3" font-family="Times,serif" font-size="14.00">Public:</text>
<text text-anchor="start" x="472.7" y="-49.5" font-family="Times,serif" font-size="14.00"> &#160;&#160;&#160;constructor(forwarderIrrevocable: address)</text>
</g>
<!-- 12 -->
<g id="node2" class="node">
<title>12</title>
<polygon fill="#f2f2f2" stroke="black" points="16.13,-215.9 16.13,-491.9 1183.87,-491.9 1183.87,-215.9 16.13,-215.9"/>
<text text-anchor="middle" x="600" y="-475.3" font-family="Times,serif" font-size="14.00">&lt;&lt;Abstract&gt;&gt;</text>
<text text-anchor="middle" x="600" y="-458.5" font-family="Times,serif" font-size="14.00">CMTAT_BASE</text>
<text text-anchor="middle" x="600" y="-441.7" font-family="Times,serif" font-size="14.00">contracts/modules/CMTAT_BASE.sol</text>
<polyline fill="none" stroke="black" points="16.13,-433.5 1183.87,-433.5 "/>
<text text-anchor="start" x="24.13" y="-416.9" font-family="Times,serif" font-size="14.00">Private:</text>
<text text-anchor="start" x="24.13" y="-400.1" font-family="Times,serif" font-size="14.00"> &#160;&#160;__gap: uint256[50]</text>
<polyline fill="none" stroke="black" points="16.13,-391.9 1183.87,-391.9 "/>
<text text-anchor="start" x="24.13" y="-375.3" font-family="Times,serif" font-size="14.00">Internal:</text>
<text text-anchor="start" x="24.13" y="-358.5" font-family="Times,serif" font-size="14.00"> &#160;&#160;&#160;__CMTAT_init(admin: address, nameIrrevocable: string, symbolIrrevocable: string, tokenId: string, terms: string, ruleEngine: IERC1404Wrapper, information: string, flag: uint256) &lt;&lt;onlyInitializing&gt;&gt;</text>
<text text-anchor="start" x="24.13" y="-341.7" font-family="Times,serif" font-size="14.00"> &#160;&#160;&#160;__CMTAT_init_unchained() &lt;&lt;onlyInitializing&gt;&gt;</text>
<text text-anchor="start" x="24.13" y="-324.9" font-family="Times,serif" font-size="14.00"> &#160;&#160;&#160;_beforeTokenTransfer(from: address, to: address, amount: uint256)</text>
<text text-anchor="start" x="24.13" y="-308.1" font-family="Times,serif" font-size="14.00"> &#160;&#160;&#160;_msgSender(): (sender: address)</text>
<text text-anchor="start" x="24.13" y="-291.3" font-family="Times,serif" font-size="14.00"> &#160;&#160;&#160;_msgData(): bytes</text>
<text text-anchor="start" x="24.13" y="-274.5" font-family="Times,serif" font-size="14.00">Public:</text>
<text text-anchor="start" x="24.13" y="-257.7" font-family="Times,serif" font-size="14.00"> &#160;&#160;&#160;initialize(admin: address, nameIrrevocable: string, symbolIrrevocable: string, tokenId: string, terms: string, ruleEngine: IERC1404Wrapper, information: string, flag: uint256) &lt;&lt;initializer&gt;&gt;</text>
<text text-anchor="start" x="24.13" y="-240.9" font-family="Times,serif" font-size="14.00"> &#160;&#160;&#160;decimals(): uint8</text>
<text text-anchor="start" x="24.13" y="-224.1" font-family="Times,serif" font-size="14.00"> &#160;&#160;&#160;transferFrom(sender: address, recipient: address, amount: uint256): bool</text>
</g>
<!-- 0&#45;&gt;12 -->
<g id="edge1" class="edge">
<title>0&#45;&gt;12</title>
<path fill="none" stroke="black" d="M600,-166.37C600,-172.55 600,-179.02 600,-185.67"/>
<polygon fill="none" stroke="black" points="589.5,-185.75 600,-215.75 610.5,-185.75 589.5,-185.75"/>
</g>
</g>
</svg>
