<?xml version="1.0" encoding="UTF-8" standalone="no"?>
<!DOCTYPE svg PUBLIC "-//W3C//DTD SVG 1.1//EN"
 "http://www.w3.org/Graphics/SVG/1.1/DTD/svg11.dtd">
<!-- Generated by graphviz version 5.0.0 (20220707.1540)
 -->
<!-- Title: UmlClassDiagram Pages: 1 -->
<svg width="528pt" height="320pt"
 viewBox="0.00 0.00 528.00 319.60" xmlns="http://www.w3.org/2000/svg" xmlns:xlink="http://www.w3.org/1999/xlink">
<g id="graph0" class="graph" transform="scale(1 1) rotate(0) translate(4 315.6)">
<title>UmlClassDiagram</title>
<polygon fill="white" stroke="transparent" points="-4,4 -4,-315.6 524,-315.6 524,4 -4,4"/>
<g id="clust1" class="cluster">
<title>cluster_0</title>
<polygon fill="white" stroke="black" points="8,-8 8,-303.6 512,-303.6 512,-8 8,-8"/>
<text text-anchor="middle" x="260" y="-16.2" font-family="Times,serif" font-size="14.00">contracts/interfaces/IEIP1404</text>
</g>
<!-- 3 -->
<g id="node1" class="node">
<title>3</title>
<polygon fill="#f2f2f2" stroke="black" points="17.36,-178.3 17.36,-295.1 502.64,-295.1 502.64,-178.3 17.36,-178.3"/>
<text text-anchor="middle" x="260" y="-278.5" font-family="Times,serif" font-size="14.00">&lt;&lt;Interface&gt;&gt;</text>
<text text-anchor="middle" x="260" y="-261.7" font-family="Times,serif" font-size="14.00">IEIP1404</text>
<text text-anchor="middle" x="260" y="-244.9" font-family="Times,serif" font-size="14.00">contracts/interfaces/IEIP1404/IEIP1404.sol</text>
<polyline fill="none" stroke="black" points="17.36,-236.7 502.64,-236.7 "/>
<text text-anchor="start" x="25.36" y="-220.1" font-family="Times,serif" font-size="14.00">External:</text>
<text text-anchor="start" x="25.36" y="-203.3" font-family="Times,serif" font-size="14.00"> &#160;&#160;&#160;&#160;detectTransferRestriction(_from: address, _to: address, _amount: uint256): uint8</text>
<text text-anchor="start" x="25.36" y="-186.5" font-family="Times,serif" font-size="14.00"> &#160;&#160;&#160;&#160;messageForTransferRestriction(_restrictionCode: uint8): string</text>
</g>
<!-- 4 -->
<g id="node2" class="node">
<title>4</title>
<polygon fill="#f2f2f2" stroke="black" points="16,-41.3 16,-141.3 504,-141.3 504,-41.3 16,-41.3"/>
<text text-anchor="middle" x="260" y="-124.7" font-family="Times,serif" font-size="14.00">&lt;&lt;Interface&gt;&gt;</text>
<text text-anchor="middle" x="260" y="-107.9" font-family="Times,serif" font-size="14.00">IEIP1404Wrapper</text>
<text text-anchor="middle" x="260" y="-91.1" font-family="Times,serif" font-size="14.00">contracts/interfaces/IEIP1404/IEIP1404Wrapper.sol</text>
<polyline fill="none" stroke="black" points="16,-82.9 504,-82.9 "/>
<text text-anchor="start" x="24" y="-66.3" font-family="Times,serif" font-size="14.00">External:</text>
<text text-anchor="start" x="24" y="-49.5" font-family="Times,serif" font-size="14.00"> &#160;&#160;&#160;&#160;validateTransfer(_from: address, _to: address, _amount: uint256): (isValid: bool)</text>
</g>
<!-- 4&#45;&gt;3 -->
<g id="edge1" class="edge">
<title>4&#45;&gt;3</title>
<path fill="none" stroke="black" stroke-dasharray="5,2" d="M260,-141.65C260,-143.66 260,-145.69 260,-147.74"/>
<polygon fill="none" stroke="black" points="249.5,-147.86 260,-177.86 270.5,-147.86 249.5,-147.86"/>
</g>
</g>
</svg>
