<?xml version="1.0" encoding="UTF-8" standalone="no"?>
<!DOCTYPE svg PUBLIC "-//W3C//DTD SVG 1.1//EN"
 "http://www.w3.org/Graphics/SVG/1.1/DTD/svg11.dtd">
<!-- Generated by graphviz version 5.0.0 (20220707.1540)
 -->
<!-- Title: UmlClassDiagram Pages: 1 -->
<svg width="4358pt" height="2131pt"
 viewBox="0.00 0.00 4357.70 2131.00" xmlns="http://www.w3.org/2000/svg" xmlns:xlink="http://www.w3.org/1999/xlink">
<g id="graph0" class="graph" transform="scale(1 1) rotate(0) translate(4 2127)">
<title>UmlClassDiagram</title>
<polygon fill="white" stroke="transparent" points="-4,4 -4,-2127 4353.7,-2127 4353.7,4 -4,4"/>
<!-- 1 -->
<g id="node1" class="node">
<title>1</title>
<polygon fill="#f2f2f2" stroke="black" points="1679.02,-0.5 1679.02,-117.3 1917.88,-117.3 1917.88,-0.5 1679.02,-0.5"/>
<text text-anchor="middle" x="1798.45" y="-100.7" font-family="Times,serif" font-size="14.00">&lt;&lt;Enum&gt;&gt;</text>
<text text-anchor="middle" x="1798.45" y="-83.9" font-family="Times,serif" font-size="14.00">REJECTED_CODE</text>
<text text-anchor="middle" x="1798.45" y="-67.1" font-family="Times,serif" font-size="14.00">contracts/CMTAT.sol</text>
<polyline fill="none" stroke="black" points="1679.02,-58.9 1917.88,-58.9 "/>
<text text-anchor="start" x="1687.02" y="-42.3" font-family="Times,serif" font-size="14.00">TRANSFER_OK: 0</text>
<text text-anchor="start" x="1687.02" y="-25.5" font-family="Times,serif" font-size="14.00">TRANSFER_REJECTED_PAUSED: 1</text>
<text text-anchor="start" x="1687.02" y="-8.7" font-family="Times,serif" font-size="14.00">TRANSFER_REJECTED_FROZEN: 2</text>
</g>
<!-- 0 -->
<g id="node2" class="node">
<title>0</title>
<polygon fill="#f2f2f2" stroke="black" points="1466.31,-154.3 1466.31,-766.3 2130.59,-766.3 2130.59,-154.3 1466.31,-154.3"/>
<text text-anchor="middle" x="1798.45" y="-749.7" font-family="Times,serif" font-size="14.00">CMTAT</text>
<text text-anchor="middle" x="1798.45" y="-732.9" font-family="Times,serif" font-size="14.00">contracts/CMTAT.sol</text>
<polyline fill="none" stroke="black" points="1466.31,-724.7 2130.59,-724.7 "/>
<text text-anchor="start" x="1474.31" y="-708.1" font-family="Times,serif" font-size="14.00">Private:</text>
<text text-anchor="start" x="1474.31" y="-691.3" font-family="Times,serif" font-size="14.00"> &#160;&#160;__gap: uint256[50]</text>
<text text-anchor="start" x="1474.31" y="-674.5" font-family="Times,serif" font-size="14.00">Public:</text>
<text text-anchor="start" x="1474.31" y="-657.7" font-family="Times,serif" font-size="14.00"> &#160;&#160;TEXT_TRANSFER_OK: string</text>
<polyline fill="none" stroke="black" points="1466.31,-649.5 2130.59,-649.5 "/>
<text text-anchor="start" x="1474.31" y="-632.9" font-family="Times,serif" font-size="14.00">Internal:</text>
<text text-anchor="start" x="1474.31" y="-616.1" font-family="Times,serif" font-size="14.00"> &#160;&#160;&#160;__CMTAT_init(owner: address, name: string, symbol: string, tokenId: string, terms: string) &lt;&lt;onlyInitializing&gt;&gt;</text>
<text text-anchor="start" x="1474.31" y="-599.3" font-family="Times,serif" font-size="14.00"> &#160;&#160;&#160;__CMTAT_init_unchained(owner: address) &lt;&lt;onlyInitializing&gt;&gt;</text>
<text text-anchor="start" x="1474.31" y="-582.5" font-family="Times,serif" font-size="14.00"> &#160;&#160;&#160;_beforeTokenTransfer(from: address, to: address, amount: uint256)</text>
<text text-anchor="start" x="1474.31" y="-565.7" font-family="Times,serif" font-size="14.00"> &#160;&#160;&#160;_msgSender(): (sender: address)</text>
<text text-anchor="start" x="1474.31" y="-548.9" font-family="Times,serif" font-size="14.00"> &#160;&#160;&#160;_msgData(): bytes</text>
<text text-anchor="start" x="1474.31" y="-532.1" font-family="Times,serif" font-size="14.00">External:</text>
<text text-anchor="start" x="1474.31" y="-515.3" font-family="Times,serif" font-size="14.00"> &#160;&#160;&#160;messageForTransferRestriction(restrictionCode: uint8): (message: string)</text>
<text text-anchor="start" x="1474.31" y="-498.5" font-family="Times,serif" font-size="14.00"> &#160;&#160;&#160;setRuleEngine(ruleEngine_: IRuleEngine) &lt;&lt;onlyRole&gt;&gt;</text>
<text text-anchor="start" x="1474.31" y="-481.7" font-family="Times,serif" font-size="14.00">Public:</text>
<text text-anchor="start" x="1474.31" y="-464.9" font-family="Times,serif" font-size="14.00"> &#160;&#160;&#160;&lt;&lt;event&gt;&gt; TermSet(newTerm: string)</text>
<text text-anchor="start" x="1474.31" y="-448.1" font-family="Times,serif" font-size="14.00"> &#160;&#160;&#160;&lt;&lt;event&gt;&gt; TokenIdSet(newTokenId: string)</text>
<text text-anchor="start" x="1474.31" y="-431.3" font-family="Times,serif" font-size="14.00"> &#160;&#160;&#160;constructor(forwarder: address)</text>
<text text-anchor="start" x="1474.31" y="-414.5" font-family="Times,serif" font-size="14.00"> &#160;&#160;&#160;initialize(owner: address, name: string, symbol: string, tokenId: string, terms: string) &lt;&lt;initializer&gt;&gt;</text>
<text text-anchor="start" x="1474.31" y="-397.7" font-family="Times,serif" font-size="14.00"> &#160;&#160;&#160;mint(to: address, amount: uint256) &lt;&lt;onlyRole&gt;&gt;</text>
<text text-anchor="start" x="1474.31" y="-380.9" font-family="Times,serif" font-size="14.00"> &#160;&#160;&#160;burnFrom(account: address, amount: uint256) &lt;&lt;onlyRole&gt;&gt;</text>
<text text-anchor="start" x="1474.31" y="-364.1" font-family="Times,serif" font-size="14.00"> &#160;&#160;&#160;pause() &lt;&lt;onlyRole&gt;&gt;</text>
<text text-anchor="start" x="1474.31" y="-347.3" font-family="Times,serif" font-size="14.00"> &#160;&#160;&#160;unpause() &lt;&lt;onlyRole&gt;&gt;</text>
<text text-anchor="start" x="1474.31" y="-330.5" font-family="Times,serif" font-size="14.00"> &#160;&#160;&#160;freeze(account: address): bool &lt;&lt;onlyRole&gt;&gt;</text>
<text text-anchor="start" x="1474.31" y="-313.7" font-family="Times,serif" font-size="14.00"> &#160;&#160;&#160;unfreeze(account: address): bool &lt;&lt;onlyRole&gt;&gt;</text>
<text text-anchor="start" x="1474.31" y="-296.9" font-family="Times,serif" font-size="14.00"> &#160;&#160;&#160;decimals(): uint8</text>
<text text-anchor="start" x="1474.31" y="-280.1" font-family="Times,serif" font-size="14.00"> &#160;&#160;&#160;transferFrom(sender: address, recipient: address, amount: uint256): bool</text>
<text text-anchor="start" x="1474.31" y="-263.3" font-family="Times,serif" font-size="14.00"> &#160;&#160;&#160;detectTransferRestriction(from: address, to: address, amount: uint256): (code: uint8)</text>
<text text-anchor="start" x="1474.31" y="-246.5" font-family="Times,serif" font-size="14.00"> &#160;&#160;&#160;scheduleSnapshot(time: uint256) &lt;&lt;onlyRole&gt;&gt;</text>
<text text-anchor="start" x="1474.31" y="-229.7" font-family="Times,serif" font-size="14.00"> &#160;&#160;&#160;rescheduleSnapshot(oldTime: uint256, newTime: uint256) &lt;&lt;onlyRole&gt;&gt;</text>
<text text-anchor="start" x="1474.31" y="-212.9" font-family="Times,serif" font-size="14.00"> &#160;&#160;&#160;unscheduleSnapshot(time: uint256) &lt;&lt;onlyRole&gt;&gt;</text>
<text text-anchor="start" x="1474.31" y="-196.1" font-family="Times,serif" font-size="14.00"> &#160;&#160;&#160;setTokenId(tokenId_: string) &lt;&lt;onlyRole&gt;&gt;</text>
<text text-anchor="start" x="1474.31" y="-179.3" font-family="Times,serif" font-size="14.00"> &#160;&#160;&#160;setTerms(terms_: string) &lt;&lt;onlyRole&gt;&gt;</text>
<text text-anchor="start" x="1474.31" y="-162.5" font-family="Times,serif" font-size="14.00"> &#160;&#160;&#160;kill() &lt;&lt;onlyRole&gt;&gt;</text>
</g>
<!-- 1&#45;&gt;0 -->
<g id="edge1" class="edge">
<title>1&#45;&gt;0</title>
<path fill="none" stroke="black" d="M1793.54,-117.55C1793.29,-125.2 1793.07,-133.42 1792.87,-142.11"/>
<polygon fill="black" stroke="black" points="1792.87,-142.23 1796.74,-148.31 1792.62,-154.23 1788.74,-148.14 1792.87,-142.23"/>
</g>
<!-- 0&#45;&gt;1 -->
<g id="edge11" class="edge">
<title>0&#45;&gt;1</title>
<path fill="none" stroke="black" stroke-dasharray="5,2" d="M1804.28,-154.23C1804.11,-144.94 1803.9,-136.08 1803.67,-127.77"/>
<polygon fill="black" stroke="black" points="1807.16,-127.44 1803.36,-117.55 1800.17,-127.65 1807.16,-127.44"/>
</g>
<!-- 5 -->
<g id="node6" class="node">
<title>5</title>
<polygon fill="#f2f2f2" stroke="black" points="3589.79,-1506.7 3589.79,-1657.1 3809.11,-1657.1 3809.11,-1506.7 3589.79,-1506.7"/>
<text text-anchor="middle" x="3699.45" y="-1640.5" font-family="Times,serif" font-size="14.00">&lt;&lt;Interface&gt;&gt;</text>
<text text-anchor="middle" x="3699.45" y="-1623.7" font-family="Times,serif" font-size="14.00">IRuleEngine</text>
<text text-anchor="middle" x="3699.45" y="-1606.9" font-family="Times,serif" font-size="14.00">contracts/interfaces/IRuleEngine.sol</text>
<polyline fill="none" stroke="black" points="3589.79,-1598.7 3809.11,-1598.7 "/>
<text text-anchor="start" x="3597.79" y="-1582.1" font-family="Times,serif" font-size="14.00">External:</text>
<text text-anchor="start" x="3597.79" y="-1565.3" font-family="Times,serif" font-size="14.00"> &#160;&#160;&#160;&#160;setRules(rules_: IRule[])</text>
<text text-anchor="start" x="3597.79" y="-1548.5" font-family="Times,serif" font-size="14.00"> &#160;&#160;&#160;&#160;ruleLength(): uint256</text>
<text text-anchor="start" x="3597.79" y="-1531.7" font-family="Times,serif" font-size="14.00"> &#160;&#160;&#160;&#160;rule(ruleId: uint256): IRule</text>
<text text-anchor="start" x="3597.79" y="-1514.9" font-family="Times,serif" font-size="14.00"> &#160;&#160;&#160;&#160;rules(): IRule[]</text>
</g>
<!-- 0&#45;&gt;5 -->
<g id="edge12" class="edge">
<title>0&#45;&gt;5</title>
<path fill="none" stroke="black" stroke-dasharray="5,2" d="M2130.73,-478.93C2585.7,-510.62 3367.09,-594.55 3549.45,-802.8 3595.64,-855.54 3563.18,-1366.83 3587.45,-1432.6 3595.94,-1455.61 3609.27,-1478.03 3623.81,-1498.19"/>
<polygon fill="black" stroke="black" points="3621.11,-1500.43 3629.88,-1506.39 3626.74,-1496.27 3621.11,-1500.43"/>
</g>
<!-- 9 -->
<g id="node10" class="node">
<title>9</title>
<polygon fill="#f2f2f2" stroke="black" points="0,-1088.5 0,-1146.9 262.9,-1146.9 262.9,-1088.5 0,-1088.5"/>
<text text-anchor="middle" x="131.45" y="-1130.3" font-family="Times,serif" font-size="14.00">&lt;&lt;Abstract&gt;&gt;</text>
<text text-anchor="middle" x="131.45" y="-1113.5" font-family="Times,serif" font-size="14.00">AuthorizationModule</text>
<text text-anchor="middle" x="131.45" y="-1096.7" font-family="Times,serif" font-size="14.00">contracts/modules/AuthorizationModule.sol</text>
</g>
<!-- 0&#45;&gt;9 -->
<g id="edge3" class="edge">
<title>0&#45;&gt;9</title>
<path fill="none" stroke="black" d="M1465.96,-500.43C1073.51,-552.54 451.42,-655.58 271.45,-802.8 192.11,-867.71 156.21,-986.86 141.17,-1058.22"/>
<polygon fill="none" stroke="black" points="130.78,-1056.7 135.51,-1088.13 151.41,-1060.6 130.78,-1056.7"/>
</g>
<!-- 10 -->
<g id="node11" class="node">
<title>10</title>
<polygon fill="#f2f2f2" stroke="black" points="280.92,-962.9 280.92,-1272.5 959.98,-1272.5 959.98,-962.9 280.92,-962.9"/>
<text text-anchor="middle" x="620.45" y="-1255.9" font-family="Times,serif" font-size="14.00">&lt;&lt;Abstract&gt;&gt;</text>
<text text-anchor="middle" x="620.45" y="-1239.1" font-family="Times,serif" font-size="14.00">BaseModule</text>
<text text-anchor="middle" x="620.45" y="-1222.3" font-family="Times,serif" font-size="14.00">contracts/modules/BaseModule.sol</text>
<polyline fill="none" stroke="black" points="280.92,-1214.1 959.98,-1214.1 "/>
<text text-anchor="start" x="288.92" y="-1197.5" font-family="Times,serif" font-size="14.00">Private:</text>
<text text-anchor="start" x="288.92" y="-1180.7" font-family="Times,serif" font-size="14.00"> &#160;&#160;_decimals: uint8</text>
<text text-anchor="start" x="288.92" y="-1163.9" font-family="Times,serif" font-size="14.00"> &#160;&#160;__gap: uint256[50]</text>
<text text-anchor="start" x="288.92" y="-1147.1" font-family="Times,serif" font-size="14.00">Public:</text>
<text text-anchor="start" x="288.92" y="-1130.3" font-family="Times,serif" font-size="14.00"> &#160;&#160;tokenId: string</text>
<text text-anchor="start" x="288.92" y="-1113.5" font-family="Times,serif" font-size="14.00"> &#160;&#160;terms: string</text>
<polyline fill="none" stroke="black" points="280.92,-1105.3 959.98,-1105.3 "/>
<text text-anchor="start" x="288.92" y="-1088.7" font-family="Times,serif" font-size="14.00">Internal:</text>
<text text-anchor="start" x="288.92" y="-1071.9" font-family="Times,serif" font-size="14.00"> &#160;&#160;&#160;__Base_init(name_: string, symbol_: string, decimals_: uint8, tokenId_: string, terms_: string) &lt;&lt;onlyInitializing&gt;&gt;</text>
<text text-anchor="start" x="288.92" y="-1055.1" font-family="Times,serif" font-size="14.00"> &#160;&#160;&#160;__Base_init_unchained(decimals_: uint8, tokenId_: string, terms_: string) &lt;&lt;onlyInitializing&gt;&gt;</text>
<text text-anchor="start" x="288.92" y="-1038.3" font-family="Times,serif" font-size="14.00">Public:</text>
<text text-anchor="start" x="288.92" y="-1021.5" font-family="Times,serif" font-size="14.00"> &#160;&#160;&#160;&lt;&lt;event&gt;&gt; Spend(owner: address, spender: address, amount: uint256)</text>
<text text-anchor="start" x="288.92" y="-1004.7" font-family="Times,serif" font-size="14.00"> &#160;&#160;&#160;decimals(): uint8</text>
<text text-anchor="start" x="288.92" y="-987.9" font-family="Times,serif" font-size="14.00"> &#160;&#160;&#160;transferFrom(sender: address, recipient: address, amount: uint256): bool</text>
<text text-anchor="start" x="288.92" y="-971.1" font-family="Times,serif" font-size="14.00"> &#160;&#160;&#160;approve(spender: address, amount: uint256, currentAllowance: uint256): bool</text>
</g>
<!-- 0&#45;&gt;10 -->
<g id="edge2" class="edge">
<title>0&#45;&gt;10</title>
<path fill="none" stroke="black" d="M1466.23,-568.5C1309.4,-626.4 1123.35,-705.97 969.45,-802.8 907,-842.1 845.06,-892.86 791.09,-942.07"/>
<polygon fill="none" stroke="black" points="783.74,-934.57 768.87,-962.66 798.01,-949.98 783.74,-934.57"/>
</g>
<!-- 11 -->
<g id="node12" class="node">
<title>11</title>
<polygon fill="#f2f2f2" stroke="black" points="978.33,-1046.9 978.33,-1188.5 1294.57,-1188.5 1294.57,-1046.9 978.33,-1046.9"/>
<text text-anchor="middle" x="1136.45" y="-1171.9" font-family="Times,serif" font-size="14.00">&lt;&lt;Abstract&gt;&gt;</text>
<text text-anchor="middle" x="1136.45" y="-1155.1" font-family="Times,serif" font-size="14.00">BurnModule</text>
<text text-anchor="middle" x="1136.45" y="-1138.3" font-family="Times,serif" font-size="14.00">contracts/modules/BurnModule.sol</text>
<polyline fill="none" stroke="black" points="978.33,-1130.1 1294.57,-1130.1 "/>
<text text-anchor="start" x="986.33" y="-1113.5" font-family="Times,serif" font-size="14.00">Public:</text>
<text text-anchor="start" x="986.33" y="-1096.7" font-family="Times,serif" font-size="14.00"> &#160;&#160;BURNER_ROLE: bytes32</text>
<polyline fill="none" stroke="black" points="978.33,-1088.5 1294.57,-1088.5 "/>
<text text-anchor="start" x="986.33" y="-1071.9" font-family="Times,serif" font-size="14.00">Public:</text>
<text text-anchor="start" x="986.33" y="-1055.1" font-family="Times,serif" font-size="14.00"> &#160;&#160;&#160;&lt;&lt;event&gt;&gt; Burn(owner: address, amount: uint256)</text>
</g>
<!-- 0&#45;&gt;11 -->
<g id="edge6" class="edge">
<title>0&#45;&gt;11</title>
<path fill="none" stroke="black" d="M1466.09,-657.56C1407.75,-700.86 1350.68,-749.8 1303.45,-802.8 1246.66,-866.53 1202.49,-953 1173.88,-1019.05"/>
<polygon fill="none" stroke="black" points="1164.13,-1015.17 1162.21,-1046.89 1183.49,-1023.28 1164.13,-1015.17"/>
</g>
<!-- 12 -->
<g id="node13" class="node">
<title>12</title>
<polygon fill="#f2f2f2" stroke="black" points="1312.76,-946.1 1312.76,-1289.3 1656.14,-1289.3 1656.14,-946.1 1312.76,-946.1"/>
<text text-anchor="middle" x="1484.45" y="-1272.7" font-family="Times,serif" font-size="14.00">&lt;&lt;Abstract&gt;&gt;</text>
<text text-anchor="middle" x="1484.45" y="-1255.9" font-family="Times,serif" font-size="14.00">EnforcementModule</text>
<text text-anchor="middle" x="1484.45" y="-1239.1" font-family="Times,serif" font-size="14.00">contracts/modules/EnforcementModule.sol</text>
<polyline fill="none" stroke="black" points="1312.76,-1230.9 1656.14,-1230.9 "/>
<text text-anchor="start" x="1320.76" y="-1214.3" font-family="Times,serif" font-size="14.00">Private:</text>
<text text-anchor="start" x="1320.76" y="-1197.5" font-family="Times,serif" font-size="14.00"> &#160;&#160;_frozen: mapping(address=&gt;bool)</text>
<text text-anchor="start" x="1320.76" y="-1180.7" font-family="Times,serif" font-size="14.00"> &#160;&#160;__gap: uint256[50]</text>
<text text-anchor="start" x="1320.76" y="-1163.9" font-family="Times,serif" font-size="14.00">Internal:</text>
<text text-anchor="start" x="1320.76" y="-1147.1" font-family="Times,serif" font-size="14.00"> &#160;&#160;TEXT_TRANSFER_REJECTED_FROZEN: string</text>
<text text-anchor="start" x="1320.76" y="-1130.3" font-family="Times,serif" font-size="14.00">Public:</text>
<text text-anchor="start" x="1320.76" y="-1113.5" font-family="Times,serif" font-size="14.00"> &#160;&#160;ENFORCER_ROLE: bytes32</text>
<polyline fill="none" stroke="black" points="1312.76,-1105.3 1656.14,-1105.3 "/>
<text text-anchor="start" x="1320.76" y="-1088.7" font-family="Times,serif" font-size="14.00">Internal:</text>
<text text-anchor="start" x="1320.76" y="-1071.9" font-family="Times,serif" font-size="14.00"> &#160;&#160;&#160;__Enforcement_init() &lt;&lt;onlyInitializing&gt;&gt;</text>
<text text-anchor="start" x="1320.76" y="-1055.1" font-family="Times,serif" font-size="14.00"> &#160;&#160;&#160;__Enforcement_init_unchained() &lt;&lt;onlyInitializing&gt;&gt;</text>
<text text-anchor="start" x="1320.76" y="-1038.3" font-family="Times,serif" font-size="14.00"> &#160;&#160;&#160;_freeze(account: address): bool</text>
<text text-anchor="start" x="1320.76" y="-1021.5" font-family="Times,serif" font-size="14.00"> &#160;&#160;&#160;_unfreeze(account: address): bool</text>
<text text-anchor="start" x="1320.76" y="-1004.7" font-family="Times,serif" font-size="14.00">Public:</text>
<text text-anchor="start" x="1320.76" y="-987.9" font-family="Times,serif" font-size="14.00"> &#160;&#160;&#160;&lt;&lt;event&gt;&gt; Freeze(enforcer: address, owner: address)</text>
<text text-anchor="start" x="1320.76" y="-971.1" font-family="Times,serif" font-size="14.00"> &#160;&#160;&#160;&lt;&lt;event&gt;&gt; Unfreeze(enforcer: address, owner: address)</text>
<text text-anchor="start" x="1320.76" y="-954.3" font-family="Times,serif" font-size="14.00"> &#160;&#160;&#160;frozen(account: address): bool</text>
</g>
<!-- 0&#45;&gt;12 -->
<g id="edge7" class="edge">
<title>0&#45;&gt;12</title>
<path fill="none" stroke="black" d="M1652.25,-766.45C1627.51,-818.09 1602.42,-870.47 1579.43,-918.45"/>
<polygon fill="none" stroke="black" points="1569.84,-914.17 1566.35,-945.76 1588.78,-923.24 1569.84,-914.17"/>
</g>
<!-- 13 -->
<g id="node14" class="node">
<title>13</title>
<polygon fill="#f2f2f2" stroke="black" points="1674.4,-1067.7 1674.4,-1167.7 1922.5,-1167.7 1922.5,-1067.7 1674.4,-1067.7"/>
<text text-anchor="middle" x="1798.45" y="-1151.1" font-family="Times,serif" font-size="14.00">&lt;&lt;Abstract&gt;&gt;</text>
<text text-anchor="middle" x="1798.45" y="-1134.3" font-family="Times,serif" font-size="14.00">MetaTxModule</text>
<text text-anchor="middle" x="1798.45" y="-1117.5" font-family="Times,serif" font-size="14.00">contracts/modules/MetaTxModule.sol</text>
<polyline fill="none" stroke="black" points="1674.4,-1109.3 1922.5,-1109.3 "/>
<text text-anchor="start" x="1682.4" y="-1092.7" font-family="Times,serif" font-size="14.00">Public:</text>
<text text-anchor="start" x="1682.4" y="-1075.9" font-family="Times,serif" font-size="14.00"> &#160;&#160;&#160;constructor(trustedForwarder: address)</text>
</g>
<!-- 0&#45;&gt;13 -->
<g id="edge9" class="edge">
<title>0&#45;&gt;13</title>
<path fill="none" stroke="black" d="M1798.45,-766.45C1798.45,-866.57 1798.45,-969.5 1798.45,-1037.64"/>
<polygon fill="none" stroke="black" points="1787.95,-1037.69 1798.45,-1067.69 1808.95,-1037.69 1787.95,-1037.69"/>
</g>
<!-- 14 -->
<g id="node15" class="node">
<title>14</title>
<polygon fill="#f2f2f2" stroke="black" points="1940.73,-1046.9 1940.73,-1188.5 2284.17,-1188.5 2284.17,-1046.9 1940.73,-1046.9"/>
<text text-anchor="middle" x="2112.45" y="-1171.9" font-family="Times,serif" font-size="14.00">&lt;&lt;Abstract&gt;&gt;</text>
<text text-anchor="middle" x="2112.45" y="-1155.1" font-family="Times,serif" font-size="14.00">MintModule</text>
<text text-anchor="middle" x="2112.45" y="-1138.3" font-family="Times,serif" font-size="14.00">contracts/modules/MintModule.sol</text>
<polyline fill="none" stroke="black" points="1940.73,-1130.1 2284.17,-1130.1 "/>
<text text-anchor="start" x="1948.73" y="-1113.5" font-family="Times,serif" font-size="14.00">Public:</text>
<text text-anchor="start" x="1948.73" y="-1096.7" font-family="Times,serif" font-size="14.00"> &#160;&#160;MINTER_ROLE: bytes32</text>
<polyline fill="none" stroke="black" points="1940.73,-1088.5 2284.17,-1088.5 "/>
<text text-anchor="start" x="1948.73" y="-1071.9" font-family="Times,serif" font-size="14.00">Public:</text>
<text text-anchor="start" x="1948.73" y="-1055.1" font-family="Times,serif" font-size="14.00"> &#160;&#160;&#160;&lt;&lt;event&gt;&gt; Mint(beneficiary: address, amount: uint256)</text>
</g>
<!-- 0&#45;&gt;14 -->
<g id="edge5" class="edge">
<title>0&#45;&gt;14</title>
<path fill="none" stroke="black" d="M1944.65,-766.45C1988.54,-858.08 2033.57,-952.06 2065.92,-1019.57"/>
<polygon fill="none" stroke="black" points="2056.53,-1024.28 2078.96,-1046.8 2075.47,-1015.21 2056.53,-1024.28"/>
</g>
<!-- 15 -->
<g id="node16" class="node">
<title>15</title>
<polygon fill="#f2f2f2" stroke="black" points="2301.94,-1050.9 2301.94,-1184.5 2618.96,-1184.5 2618.96,-1050.9 2301.94,-1050.9"/>
<text text-anchor="middle" x="2460.45" y="-1167.9" font-family="Times,serif" font-size="14.00">&lt;&lt;Abstract&gt;&gt;</text>
<text text-anchor="middle" x="2460.45" y="-1151.1" font-family="Times,serif" font-size="14.00">PauseModule</text>
<text text-anchor="middle" x="2460.45" y="-1134.3" font-family="Times,serif" font-size="14.00">contracts/modules/PauseModule.sol</text>
<polyline fill="none" stroke="black" points="2301.94,-1126.1 2618.96,-1126.1 "/>
<text text-anchor="start" x="2309.94" y="-1109.5" font-family="Times,serif" font-size="14.00">Internal:</text>
<text text-anchor="start" x="2309.94" y="-1092.7" font-family="Times,serif" font-size="14.00"> &#160;&#160;TEXT_TRANSFER_REJECTED_PAUSED: string</text>
<text text-anchor="start" x="2309.94" y="-1075.9" font-family="Times,serif" font-size="14.00">Public:</text>
<text text-anchor="start" x="2309.94" y="-1059.1" font-family="Times,serif" font-size="14.00"> &#160;&#160;PAUSER_ROLE: bytes32</text>
</g>
<!-- 0&#45;&gt;15 -->
<g id="edge4" class="edge">
<title>0&#45;&gt;15</title>
<path fill="none" stroke="black" d="M2130.81,-657.56C2189.15,-700.86 2246.22,-749.8 2293.45,-802.8 2351.32,-867.73 2396.07,-956.28 2424.62,-1022.77"/>
<polygon fill="none" stroke="black" points="2415.02,-1027.02 2436.22,-1050.7 2434.41,-1018.97 2415.02,-1027.02"/>
</g>
<!-- 16 -->
<g id="node18" class="node">
<title>16</title>
<polygon fill="#f2f2f2" stroke="black" points="2636.94,-803.3 2636.94,-1432.1 3051.96,-1432.1 3051.96,-803.3 2636.94,-803.3"/>
<text text-anchor="middle" x="2844.45" y="-1415.5" font-family="Times,serif" font-size="14.00">&lt;&lt;Abstract&gt;&gt;</text>
<text text-anchor="middle" x="2844.45" y="-1398.7" font-family="Times,serif" font-size="14.00">SnapshotModule</text>
<text text-anchor="middle" x="2844.45" y="-1381.9" font-family="Times,serif" font-size="14.00">contracts/modules/SnapshotModule.sol</text>
<polyline fill="none" stroke="black" points="2636.94,-1373.7 3051.96,-1373.7 "/>
<text text-anchor="start" x="2644.94" y="-1357.1" font-family="Times,serif" font-size="14.00">Private:</text>
<text text-anchor="start" x="2644.94" y="-1340.3" font-family="Times,serif" font-size="14.00"> &#160;&#160;_accountBalanceSnapshots: mapping(address=&gt;Snapshots)</text>
<text text-anchor="start" x="2644.94" y="-1323.5" font-family="Times,serif" font-size="14.00"> &#160;&#160;_totalSupplySnapshots: Snapshots</text>
<text text-anchor="start" x="2644.94" y="-1306.7" font-family="Times,serif" font-size="14.00"> &#160;&#160;_currentSnapshot: uint256</text>
<text text-anchor="start" x="2644.94" y="-1289.9" font-family="Times,serif" font-size="14.00"> &#160;&#160;_scheduledSnapshots: uint256[]</text>
<text text-anchor="start" x="2644.94" y="-1273.1" font-family="Times,serif" font-size="14.00"> &#160;&#160;__gap: uint256[50]</text>
<text text-anchor="start" x="2644.94" y="-1256.3" font-family="Times,serif" font-size="14.00">Public:</text>
<text text-anchor="start" x="2644.94" y="-1239.5" font-family="Times,serif" font-size="14.00"> &#160;&#160;SNAPSHOOTER_ROLE: bytes32</text>
<polyline fill="none" stroke="black" points="2636.94,-1231.3 3051.96,-1231.3 "/>
<text text-anchor="start" x="2644.94" y="-1214.7" font-family="Times,serif" font-size="14.00">Private:</text>
<text text-anchor="start" x="2644.94" y="-1197.9" font-family="Times,serif" font-size="14.00"> &#160;&#160;&#160;_valueAt(time: uint256, snapshots: Snapshots): (bool, uint256)</text>
<text text-anchor="start" x="2644.94" y="-1181.1" font-family="Times,serif" font-size="14.00"> &#160;&#160;&#160;_updateAccountSnapshot(account: address)</text>
<text text-anchor="start" x="2644.94" y="-1164.3" font-family="Times,serif" font-size="14.00"> &#160;&#160;&#160;_updateTotalSupplySnapshot()</text>
<text text-anchor="start" x="2644.94" y="-1147.5" font-family="Times,serif" font-size="14.00"> &#160;&#160;&#160;_updateSnapshot(snapshots: Snapshots, currentValue: uint256)</text>
<text text-anchor="start" x="2644.94" y="-1130.7" font-family="Times,serif" font-size="14.00"> &#160;&#160;&#160;_lastSnapshot(ids: uint256[]): uint256</text>
<text text-anchor="start" x="2644.94" y="-1113.9" font-family="Times,serif" font-size="14.00"> &#160;&#160;&#160;_findScheduledSnapshotIndex(time: uint256): (bool, uint256)</text>
<text text-anchor="start" x="2644.94" y="-1097.1" font-family="Times,serif" font-size="14.00"> &#160;&#160;&#160;_findScheduledMostRecentPastSnapshot(): uint256</text>
<text text-anchor="start" x="2644.94" y="-1080.3" font-family="Times,serif" font-size="14.00"> &#160;&#160;&#160;_clearPastScheduled()</text>
<text text-anchor="start" x="2644.94" y="-1063.5" font-family="Times,serif" font-size="14.00"> &#160;&#160;&#160;_removeScheduledItem(index: uint256)</text>
<text text-anchor="start" x="2644.94" y="-1046.7" font-family="Times,serif" font-size="14.00">Internal:</text>
<text text-anchor="start" x="2644.94" y="-1029.9" font-family="Times,serif" font-size="14.00"> &#160;&#160;&#160;__Snapshot_init() &lt;&lt;onlyInitializing&gt;&gt;</text>
<text text-anchor="start" x="2644.94" y="-1013.1" font-family="Times,serif" font-size="14.00"> &#160;&#160;&#160;__Snapshot_init_unchained() &lt;&lt;onlyInitializing&gt;&gt;</text>
<text text-anchor="start" x="2644.94" y="-996.3" font-family="Times,serif" font-size="14.00"> &#160;&#160;&#160;_scheduleSnapshot(time: uint256)</text>
<text text-anchor="start" x="2644.94" y="-979.5" font-family="Times,serif" font-size="14.00"> &#160;&#160;&#160;_rescheduleSnapshot(oldTime: uint256, newTime: uint256)</text>
<text text-anchor="start" x="2644.94" y="-962.7" font-family="Times,serif" font-size="14.00"> &#160;&#160;&#160;_unscheduleSnapshot(time: uint256)</text>
<text text-anchor="start" x="2644.94" y="-945.9" font-family="Times,serif" font-size="14.00"> &#160;&#160;&#160;_beforeTokenTransfer(from: address, to: address, amount: uint256)</text>
<text text-anchor="start" x="2644.94" y="-929.1" font-family="Times,serif" font-size="14.00"> &#160;&#160;&#160;_setCurrentSnapshot()</text>
<text text-anchor="start" x="2644.94" y="-912.3" font-family="Times,serif" font-size="14.00"> &#160;&#160;&#160;_getCurrentSnapshot(): uint256</text>
<text text-anchor="start" x="2644.94" y="-895.5" font-family="Times,serif" font-size="14.00">Public:</text>
<text text-anchor="start" x="2644.94" y="-878.7" font-family="Times,serif" font-size="14.00"> &#160;&#160;&#160;&lt;&lt;event&gt;&gt; SnapshotSchedule(oldTime: uint256, newTime: uint256)</text>
<text text-anchor="start" x="2644.94" y="-861.9" font-family="Times,serif" font-size="14.00"> &#160;&#160;&#160;&lt;&lt;event&gt;&gt; SnapshotUnschedule(time: uint256)</text>
<text text-anchor="start" x="2644.94" y="-845.1" font-family="Times,serif" font-size="14.00"> &#160;&#160;&#160;getNextSnapshots(): uint256[]</text>
<text text-anchor="start" x="2644.94" y="-828.3" font-family="Times,serif" font-size="14.00"> &#160;&#160;&#160;snapshotBalanceOf(time: uint256, owner: address): uint256</text>
<text text-anchor="start" x="2644.94" y="-811.5" font-family="Times,serif" font-size="14.00"> &#160;&#160;&#160;snapshotTotalSupply(time: uint256): uint256</text>
</g>
<!-- 0&#45;&gt;16 -->
<g id="edge10" class="edge">
<title>0&#45;&gt;16</title>
<path fill="none" stroke="black" d="M2130.65,-549.1C2284.47,-600.72 2464.12,-677.43 2613.22,-791.21"/>
<polygon fill="none" stroke="black" points="2606.8,-799.52 2636.88,-809.79 2619.77,-783.01 2606.8,-799.52"/>
</g>
<!-- 18 -->
<g id="node19" class="node">
<title>18</title>
<polygon fill="#f2f2f2" stroke="black" points="3070.16,-979.7 3070.16,-1255.7 3540.75,-1255.7 3540.75,-979.7 3070.16,-979.7"/>
<text text-anchor="middle" x="3305.45" y="-1239.1" font-family="Times,serif" font-size="14.00">&lt;&lt;Abstract&gt;&gt;</text>
<text text-anchor="middle" x="3305.45" y="-1222.3" font-family="Times,serif" font-size="14.00">ValidationModule</text>
<text text-anchor="middle" x="3305.45" y="-1205.5" font-family="Times,serif" font-size="14.00">contracts/modules/ValidationModule.sol</text>
<polyline fill="none" stroke="black" points="3070.16,-1197.3 3540.75,-1197.3 "/>
<text text-anchor="start" x="3078.16" y="-1180.7" font-family="Times,serif" font-size="14.00">Private:</text>
<text text-anchor="start" x="3078.16" y="-1163.9" font-family="Times,serif" font-size="14.00"> &#160;&#160;__gap: uint256[50]</text>
<text text-anchor="start" x="3078.16" y="-1147.1" font-family="Times,serif" font-size="14.00">Public:</text>
<text text-anchor="start" x="3078.16" y="-1130.3" font-family="Times,serif" font-size="14.00"> &#160;&#160;ruleEngine: IRuleEngine</text>
<polyline fill="none" stroke="black" points="3070.16,-1122.1 3540.75,-1122.1 "/>
<text text-anchor="start" x="3078.16" y="-1105.5" font-family="Times,serif" font-size="14.00">Internal:</text>
<text text-anchor="start" x="3078.16" y="-1088.7" font-family="Times,serif" font-size="14.00"> &#160;&#160;&#160;__Validation_init(ruleEngine_: IRuleEngine) &lt;&lt;onlyInitializing&gt;&gt;</text>
<text text-anchor="start" x="3078.16" y="-1071.9" font-family="Times,serif" font-size="14.00"> &#160;&#160;&#160;__Validation_init_unchained(ruleEngine_: IRuleEngine) &lt;&lt;onlyInitializing&gt;&gt;</text>
<text text-anchor="start" x="3078.16" y="-1055.1" font-family="Times,serif" font-size="14.00"> &#160;&#160;&#160;_validateTransfer(from: address, to: address, amount: uint256): bool</text>
<text text-anchor="start" x="3078.16" y="-1038.3" font-family="Times,serif" font-size="14.00"> &#160;&#160;&#160;_messageForTransferRestriction(restrictionCode: uint8): string</text>
<text text-anchor="start" x="3078.16" y="-1021.5" font-family="Times,serif" font-size="14.00"> &#160;&#160;&#160;_detectTransferRestriction(from: address, to: address, amount: uint256): uint8</text>
<text text-anchor="start" x="3078.16" y="-1004.7" font-family="Times,serif" font-size="14.00">Public:</text>
<text text-anchor="start" x="3078.16" y="-987.9" font-family="Times,serif" font-size="14.00"> &#160;&#160;&#160;&lt;&lt;event&gt;&gt; RuleEngineSet(newRuleEngine: address)</text>
</g>
<!-- 0&#45;&gt;18 -->
<g id="edge8" class="edge">
<title>0&#45;&gt;18</title>
<path fill="none" stroke="black" d="M2130.64,-492.49C2400.28,-530.9 2780.5,-615.88 3061.45,-802.8 3120.01,-841.76 3170.62,-899.45 3210.32,-954.77"/>
<polygon fill="none" stroke="black" points="3201.77,-960.87 3227.5,-979.53 3219.02,-948.9 3201.77,-960.87"/>
</g>
<!-- 2 -->
<g id="node3" class="node">
<title>2</title>
<polygon fill="#f2f2f2" stroke="black" points="3570.81,-2005.7 3570.81,-2122.5 4056.09,-2122.5 4056.09,-2005.7 3570.81,-2005.7"/>
<text text-anchor="middle" x="3813.45" y="-2105.9" font-family="Times,serif" font-size="14.00">&lt;&lt;Interface&gt;&gt;</text>
<text text-anchor="middle" x="3813.45" y="-2089.1" font-family="Times,serif" font-size="14.00">IERC1404</text>
<text text-anchor="middle" x="3813.45" y="-2072.3" font-family="Times,serif" font-size="14.00">contracts/interfaces/IERC1404.sol</text>
<polyline fill="none" stroke="black" points="3570.81,-2064.1 4056.09,-2064.1 "/>
<text text-anchor="start" x="3578.81" y="-2047.5" font-family="Times,serif" font-size="14.00">External:</text>
<text text-anchor="start" x="3578.81" y="-2030.7" font-family="Times,serif" font-size="14.00"> &#160;&#160;&#160;&#160;detectTransferRestriction(_from: address, _to: address, _amount: uint256): uint8</text>
<text text-anchor="start" x="3578.81" y="-2013.9" font-family="Times,serif" font-size="14.00"> &#160;&#160;&#160;&#160;messageForTransferRestriction(_restrictionCode: uint8): string</text>
</g>
<!-- 3 -->
<g id="node4" class="node">
<title>3</title>
<polygon fill="#f2f2f2" stroke="black" points="3569.45,-1868.7 3569.45,-1968.7 4057.45,-1968.7 4057.45,-1868.7 3569.45,-1868.7"/>
<text text-anchor="middle" x="3813.45" y="-1952.1" font-family="Times,serif" font-size="14.00">&lt;&lt;Interface&gt;&gt;</text>
<text text-anchor="middle" x="3813.45" y="-1935.3" font-family="Times,serif" font-size="14.00">IERC1404Wrapper</text>
<text text-anchor="middle" x="3813.45" y="-1918.5" font-family="Times,serif" font-size="14.00">contracts/interfaces/IERC1404Wrapper.sol</text>
<polyline fill="none" stroke="black" points="3569.45,-1910.3 4057.45,-1910.3 "/>
<text text-anchor="start" x="3577.45" y="-1893.7" font-family="Times,serif" font-size="14.00">External:</text>
<text text-anchor="start" x="3577.45" y="-1876.9" font-family="Times,serif" font-size="14.00"> &#160;&#160;&#160;&#160;validateTransfer(_from: address, _to: address, _amount: uint256): (isValid: bool)</text>
</g>
<!-- 3&#45;&gt;2 -->
<g id="edge13" class="edge">
<title>3&#45;&gt;2</title>
<path fill="none" stroke="black" stroke-dasharray="5,2" d="M3813.45,-1969.05C3813.45,-1971.06 3813.45,-1973.09 3813.45,-1975.14"/>
<polygon fill="none" stroke="black" points="3802.95,-1975.26 3813.45,-2005.26 3823.95,-1975.26 3802.95,-1975.26"/>
</g>
<!-- 4 -->
<g id="node5" class="node">
<title>4</title>
<polygon fill="#f2f2f2" stroke="black" points="3727.19,-1731.7 3727.19,-1831.7 4127.71,-1831.7 4127.71,-1731.7 3727.19,-1731.7"/>
<text text-anchor="middle" x="3927.45" y="-1815.1" font-family="Times,serif" font-size="14.00">&lt;&lt;Interface&gt;&gt;</text>
<text text-anchor="middle" x="3927.45" y="-1798.3" font-family="Times,serif" font-size="14.00">IRule</text>
<text text-anchor="middle" x="3927.45" y="-1781.5" font-family="Times,serif" font-size="14.00">contracts/interfaces/IRule.sol</text>
<polyline fill="none" stroke="black" points="3727.19,-1773.3 4127.71,-1773.3 "/>
<text text-anchor="start" x="3735.19" y="-1756.7" font-family="Times,serif" font-size="14.00">External:</text>
<text text-anchor="start" x="3735.19" y="-1739.9" font-family="Times,serif" font-size="14.00"> &#160;&#160;&#160;&#160;canReturnTransferRestrictionCode(_restrictionCode: uint8): bool</text>
</g>
<!-- 4&#45;&gt;3 -->
<g id="edge14" class="edge">
<title>4&#45;&gt;3</title>
<path fill="none" stroke="black" stroke-dasharray="5,2" d="M3885.97,-1831.82C3882.28,-1836.19 3878.49,-1840.68 3874.68,-1845.19"/>
<polygon fill="none" stroke="black" points="3866.42,-1838.7 3855.09,-1868.39 3882.47,-1852.24 3866.42,-1838.7"/>
</g>
<!-- 5&#45;&gt;3 -->
<g id="edge15" class="edge">
<title>5&#45;&gt;3</title>
<path fill="none" stroke="black" stroke-dasharray="5,2" d="M3691.06,-1657.32C3688.5,-1708.96 3691.78,-1777.96 3718.45,-1832.2 3720.65,-1836.68 3723.2,-1841.04 3726.02,-1845.25"/>
<polygon fill="none" stroke="black" points="3718.07,-1852.11 3745.29,-1868.52 3734.25,-1838.72 3718.07,-1852.11"/>
</g>
<!-- 5&#45;&gt;4 -->
<g id="edge16" class="edge">
<title>5&#45;&gt;4</title>
<path fill="none" stroke="black" stroke-dasharray="5,2" d="M3780.33,-1657.16C3794.59,-1669.96 3809.38,-1683.06 3823.45,-1695.2 3834.85,-1705.03 3847.09,-1715.33 3859.03,-1725.23"/>
<polygon fill="black" stroke="black" points="3856.89,-1728 3866.82,-1731.68 3861.35,-1722.61 3856.89,-1728"/>
</g>
<!-- 6 -->
<g id="node7" class="node">
<title>6</title>
<polygon fill="#f2f2f2" stroke="black" points="1935.5,-17.3 1935.5,-100.5 2205.4,-100.5 2205.4,-17.3 1935.5,-17.3"/>
<text text-anchor="middle" x="2070.45" y="-83.9" font-family="Times,serif" font-size="14.00">MinimalForwarderMock</text>
<text text-anchor="middle" x="2070.45" y="-67.1" font-family="Times,serif" font-size="14.00">contracts/mocks/MinimalForwarderMock.sol</text>
<polyline fill="none" stroke="black" points="1935.5,-58.9 2205.4,-58.9 "/>
<text text-anchor="start" x="1943.5" y="-42.3" font-family="Times,serif" font-size="14.00">Public:</text>
<text text-anchor="start" x="1943.5" y="-25.5" font-family="Times,serif" font-size="14.00"> &#160;&#160;&#160;initialize() &lt;&lt;initializer&gt;&gt;</text>
</g>
<!-- 7 -->
<g id="node8" class="node">
<title>7</title>
<polygon fill="#f2f2f2" stroke="black" points="3596.56,-988.1 3596.56,-1247.3 4078.34,-1247.3 4078.34,-988.1 3596.56,-988.1"/>
<text text-anchor="middle" x="3837.45" y="-1230.7" font-family="Times,serif" font-size="14.00">RuleEngineMock</text>
<text text-anchor="middle" x="3837.45" y="-1213.9" font-family="Times,serif" font-size="14.00">contracts/mocks/RuleEngineMock.sol</text>
<polyline fill="none" stroke="black" points="3596.56,-1205.7 4078.34,-1205.7 "/>
<text text-anchor="start" x="3604.56" y="-1189.1" font-family="Times,serif" font-size="14.00">Internal:</text>
<text text-anchor="start" x="3604.56" y="-1172.3" font-family="Times,serif" font-size="14.00"> &#160;&#160;_rules: IRule[]</text>
<polyline fill="none" stroke="black" points="3596.56,-1164.1 4078.34,-1164.1 "/>
<text text-anchor="start" x="3604.56" y="-1147.5" font-family="Times,serif" font-size="14.00">External:</text>
<text text-anchor="start" x="3604.56" y="-1130.7" font-family="Times,serif" font-size="14.00"> &#160;&#160;&#160;setRules(rules_: IRule[])</text>
<text text-anchor="start" x="3604.56" y="-1113.9" font-family="Times,serif" font-size="14.00"> &#160;&#160;&#160;ruleLength(): uint256</text>
<text text-anchor="start" x="3604.56" y="-1097.1" font-family="Times,serif" font-size="14.00"> &#160;&#160;&#160;rule(ruleId: uint256): IRule</text>
<text text-anchor="start" x="3604.56" y="-1080.3" font-family="Times,serif" font-size="14.00"> &#160;&#160;&#160;rules(): IRule[]</text>
<text text-anchor="start" x="3604.56" y="-1063.5" font-family="Times,serif" font-size="14.00">Public:</text>
<text text-anchor="start" x="3604.56" y="-1046.7" font-family="Times,serif" font-size="14.00"> &#160;&#160;&#160;constructor()</text>
<text text-anchor="start" x="3604.56" y="-1029.9" font-family="Times,serif" font-size="14.00"> &#160;&#160;&#160;detectTransferRestriction(_from: address, _to: address, _amount: uint256): uint8</text>
<text text-anchor="start" x="3604.56" y="-1013.1" font-family="Times,serif" font-size="14.00"> &#160;&#160;&#160;validateTransfer(_from: address, _to: address, _amount: uint256): bool</text>
<text text-anchor="start" x="3604.56" y="-996.3" font-family="Times,serif" font-size="14.00"> &#160;&#160;&#160;messageForTransferRestriction(_restrictionCode: uint8): string</text>
</g>
<!-- 7&#45;&gt;4 -->
<g id="edge18" class="edge">
<title>7&#45;&gt;4</title>
<path fill="none" stroke="black" d="M3832.08,-1247.39C3827.74,-1391.86 3826.52,-1616.39 3856.45,-1695.2 3860.14,-1704.9 3865.41,-1714.31 3871.44,-1723.11"/>
<polygon fill="black" stroke="black" points="3868.72,-1725.31 3877.43,-1731.35 3874.38,-1721.2 3868.72,-1725.31"/>
</g>
<!-- 7&#45;&gt;5 -->
<g id="edge17" class="edge">
<title>7&#45;&gt;5</title>
<path fill="none" stroke="black" stroke-dasharray="5,2" d="M3799.01,-1247.45C3777.35,-1320 3750.65,-1409.41 3730.36,-1477.38"/>
<polygon fill="none" stroke="black" points="3720.19,-1474.74 3721.67,-1506.49 3740.31,-1480.75 3720.19,-1474.74"/>
</g>
<!-- 8 -->
<g id="node9" class="node">
<title>8</title>
<polygon fill="#f2f2f2" stroke="black" points="3865.2,-1469.1 3865.2,-1694.7 4349.7,-1694.7 4349.7,-1469.1 3865.2,-1469.1"/>
<text text-anchor="middle" x="4107.45" y="-1678.1" font-family="Times,serif" font-size="14.00">RuleMock</text>
<text text-anchor="middle" x="4107.45" y="-1661.3" font-family="Times,serif" font-size="14.00">contracts/mocks/RuleMock.sol</text>
<polyline fill="none" stroke="black" points="3865.2,-1653.1 4349.7,-1653.1 "/>
<text text-anchor="start" x="3873.2" y="-1636.5" font-family="Times,serif" font-size="14.00">Public:</text>
<text text-anchor="start" x="3873.2" y="-1619.7" font-family="Times,serif" font-size="14.00"> &#160;&#160;AMOUNT_TOO_HIGH: uint8</text>
<text text-anchor="start" x="3873.2" y="-1602.9" font-family="Times,serif" font-size="14.00"> &#160;&#160;TEXT_AMOUNT_TOO_HIGH: string</text>
<text text-anchor="start" x="3873.2" y="-1586.1" font-family="Times,serif" font-size="14.00"> &#160;&#160;TEXT_CODE_NOT_FOUND: string</text>
<polyline fill="none" stroke="black" points="3865.2,-1577.9 4349.7,-1577.9 "/>
<text text-anchor="start" x="3873.2" y="-1561.3" font-family="Times,serif" font-size="14.00">External:</text>
<text text-anchor="start" x="3873.2" y="-1544.5" font-family="Times,serif" font-size="14.00"> &#160;&#160;&#160;messageForTransferRestriction(_restrictionCode: uint8): string</text>
<text text-anchor="start" x="3873.2" y="-1527.7" font-family="Times,serif" font-size="14.00">Public:</text>
<text text-anchor="start" x="3873.2" y="-1510.9" font-family="Times,serif" font-size="14.00"> &#160;&#160;&#160;validateTransfer(_from: address, _to: address, _amount: uint256): (isValid: bool)</text>
<text text-anchor="start" x="3873.2" y="-1494.1" font-family="Times,serif" font-size="14.00"> &#160;&#160;&#160;detectTransferRestriction(address, address, _amount: uint256): uint8</text>
<text text-anchor="start" x="3873.2" y="-1477.3" font-family="Times,serif" font-size="14.00"> &#160;&#160;&#160;canReturnTransferRestrictionCode(_restrictionCode: uint8): bool</text>
</g>
<!-- 7&#45;&gt;8 -->
<g id="edge19" class="edge">
<title>7&#45;&gt;8</title>
<path fill="none" stroke="black" stroke-dasharray="5,2" d="M3912.66,-1247.45C3951.56,-1314.04 3998.76,-1394.84 4036.96,-1460.23"/>
<polygon fill="black" stroke="black" points="4033.98,-1462.07 4042.05,-1468.94 4040.02,-1458.54 4033.98,-1462.07"/>
</g>
<!-- 8&#45;&gt;4 -->
<g id="edge20" class="edge">
<title>8&#45;&gt;4</title>
<path fill="none" stroke="black" stroke-dasharray="5,2" d="M4005.62,-1694.81C4001.26,-1699.59 3996.94,-1704.34 3992.7,-1708.99"/>
<polygon fill="none" stroke="black" points="3984.79,-1702.08 3972.37,-1731.34 4000.33,-1716.22 3984.79,-1702.08"/>
</g>
<!-- 17 -->
<g id="node17" class="node">
<title>17</title>
<polygon fill="#f2f2f2" stroke="black" points="2726.21,-1531.9 2726.21,-1631.9 2962.69,-1631.9 2962.69,-1531.9 2726.21,-1531.9"/>
<text text-anchor="middle" x="2844.45" y="-1615.3" font-family="Times,serif" font-size="14.00">&lt;&lt;Struct&gt;&gt;</text>
<text text-anchor="middle" x="2844.45" y="-1598.5" font-family="Times,serif" font-size="14.00">Snapshots</text>
<text text-anchor="middle" x="2844.45" y="-1581.7" font-family="Times,serif" font-size="14.00">contracts/modules/SnapshotModule.sol</text>
<polyline fill="none" stroke="black" points="2726.21,-1573.5 2962.69,-1573.5 "/>
<text text-anchor="start" x="2734.21" y="-1556.9" font-family="Times,serif" font-size="14.00">ids: uint256[]</text>
<text text-anchor="start" x="2734.21" y="-1540.1" font-family="Times,serif" font-size="14.00">values: uint256[]</text>
</g>
<!-- 17&#45;&gt;16 -->
<g id="edge21" class="edge">
<title>17&#45;&gt;16</title>
<path fill="none" stroke="black" d="M2848.81,-1531.59C2849.66,-1508.05 2850.28,-1477.68 2850.67,-1444.11"/>
<polygon fill="black" stroke="black" points="2850.67,-1444.11 2846.74,-1438.07 2850.8,-1432.11 2854.74,-1438.16 2850.67,-1444.11"/>
</g>
<!-- 16&#45;&gt;17 -->
<g id="edge22" class="edge">
<title>16&#45;&gt;17</title>
<path fill="none" stroke="black" d="M2838.1,-1432.11C2838.43,-1465.64 2838.98,-1496.51 2839.75,-1521.33"/>
<polygon fill="black" stroke="black" points="2836.26,-1521.72 2840.09,-1531.59 2843.25,-1521.48 2836.26,-1521.72"/>
</g>
<!-- 18&#45;&gt;5 -->
<g id="edge23" class="edge">
<title>18&#45;&gt;5</title>
<path fill="none" stroke="black" d="M3409.39,-1256.01C3452.94,-1311.86 3504.89,-1376.37 3554.45,-1432.6 3574.02,-1454.81 3595.98,-1478.05 3616.76,-1499.36"/>
<polygon fill="black" stroke="black" points="3614.27,-1501.81 3623.76,-1506.51 3619.27,-1496.92 3614.27,-1501.81"/>
</g>
</g>
</svg>
