<?xml version="1.0" encoding="UTF-8" standalone="no"?>
<!DOCTYPE svg PUBLIC "-//W3C//DTD SVG 1.1//EN"
 "http://www.w3.org/Graphics/SVG/1.1/DTD/svg11.dtd">
<!-- Generated by graphviz version 5.0.0 (20220707.1540)
 -->
<!-- Title: UmlClassDiagram Pages: 1 -->
<svg width="495pt" height="429pt"
 viewBox="0.00 0.00 495.00 429.20" xmlns="http://www.w3.org/2000/svg" xmlns:xlink="http://www.w3.org/1999/xlink">
<g id="graph0" class="graph" transform="scale(1 1) rotate(0) translate(4 425.2)">
<title>UmlClassDiagram</title>
<polygon fill="white" stroke="transparent" points="-4,4 -4,-425.2 491,-425.2 491,4 -4,4"/>
<g id="clust1" class="cluster">
<title>cluster_0</title>
<polygon fill="white" stroke="black" points="8,-8 8,-413.2 479,-413.2 479,-8 8,-8"/>
<text text-anchor="middle" x="243.5" y="-16.2" font-family="Times,serif" font-size="14.00">contracts/interfaces</text>
</g>
<!-- 1 -->
<g id="node1" class="node">
<title>1</title>
<polygon fill="#f2f2f2" stroke="black" points="252.73,-41.3 252.73,-309.3 471.27,-309.3 471.27,-41.3 252.73,-41.3"/>
<text text-anchor="middle" x="362" y="-292.7" font-family="Times,serif" font-size="14.00">&lt;&lt;Struct&gt;&gt;</text>
<text text-anchor="middle" x="362" y="-275.9" font-family="Times,serif" font-size="14.00">DebtBase</text>
<text text-anchor="middle" x="362" y="-259.1" font-family="Times,serif" font-size="14.00">contracts/interfaces/IDebtGlobal.sol</text>
<polyline fill="none" stroke="black" points="252.73,-250.9 471.27,-250.9 "/>
<text text-anchor="start" x="260.73" y="-234.3" font-family="Times,serif" font-size="14.00">interestRate: uint256</text>
<text text-anchor="start" x="260.73" y="-217.5" font-family="Times,serif" font-size="14.00">parValue: uint256</text>
<text text-anchor="start" x="260.73" y="-200.7" font-family="Times,serif" font-size="14.00">guarantor: string</text>
<text text-anchor="start" x="260.73" y="-183.9" font-family="Times,serif" font-size="14.00">bondHolder: string</text>
<text text-anchor="start" x="260.73" y="-167.1" font-family="Times,serif" font-size="14.00">maturityDate: string</text>
<text text-anchor="start" x="260.73" y="-150.3" font-family="Times,serif" font-size="14.00">interestScheduleFormat: string</text>
<text text-anchor="start" x="260.73" y="-133.5" font-family="Times,serif" font-size="14.00">interestPaymentDate: string</text>
<text text-anchor="start" x="260.73" y="-116.7" font-family="Times,serif" font-size="14.00">dayCountConvention: string</text>
<text text-anchor="start" x="260.73" y="-99.9" font-family="Times,serif" font-size="14.00">businessDayConvention: string</text>
<text text-anchor="start" x="260.73" y="-83.1" font-family="Times,serif" font-size="14.00">publicHolidayCalendar: string</text>
<text text-anchor="start" x="260.73" y="-66.3" font-family="Times,serif" font-size="14.00">issuanceDate: string</text>
<text text-anchor="start" x="260.73" y="-49.5" font-family="Times,serif" font-size="14.00">couponFrequency: string</text>
</g>
<!-- 0 -->
<g id="node3" class="node">
<title>0</title>
<polygon fill="#f2f2f2" stroke="black" points="133.73,-346.3 133.73,-404.7 352.27,-404.7 352.27,-346.3 133.73,-346.3"/>
<text text-anchor="middle" x="243" y="-388.1" font-family="Times,serif" font-size="14.00">&lt;&lt;Interface&gt;&gt;</text>
<text text-anchor="middle" x="243" y="-371.3" font-family="Times,serif" font-size="14.00">IDebtGlobal</text>
<text text-anchor="middle" x="243" y="-354.5" font-family="Times,serif" font-size="14.00">contracts/interfaces/IDebtGlobal.sol</text>
</g>
<!-- 1&#45;&gt;0 -->
<g id="edge1" class="edge">
<title>1&#45;&gt;0</title>
<path fill="none" stroke="black" d="M282.13,-309.33C276.5,-318.7 271.15,-327.61 266.32,-335.67"/>
<polygon fill="black" stroke="black" points="266.24,-335.8 266.58,-343 260.06,-346.08 259.72,-338.88 266.24,-335.8"/>
</g>
<!-- 2 -->
<g id="node2" class="node">
<title>2</title>
<polygon fill="#f2f2f2" stroke="black" points="15.73,-116.9 15.73,-233.7 234.27,-233.7 234.27,-116.9 15.73,-116.9"/>
<text text-anchor="middle" x="125" y="-217.1" font-family="Times,serif" font-size="14.00">&lt;&lt;Struct&gt;&gt;</text>
<text text-anchor="middle" x="125" y="-200.3" font-family="Times,serif" font-size="14.00">CreditEvents</text>
<text text-anchor="middle" x="125" y="-183.5" font-family="Times,serif" font-size="14.00">contracts/interfaces/IDebtGlobal.sol</text>
<polyline fill="none" stroke="black" points="15.73,-175.3 234.27,-175.3 "/>
<text text-anchor="start" x="23.73" y="-158.7" font-family="Times,serif" font-size="14.00">flagDefault: bool</text>
<text text-anchor="start" x="23.73" y="-141.9" font-family="Times,serif" font-size="14.00">flagRedeemed: bool</text>
<text text-anchor="start" x="23.73" y="-125.1" font-family="Times,serif" font-size="14.00">rating: string</text>
</g>
<!-- 2&#45;&gt;0 -->
<g id="edge2" class="edge">
<title>2&#45;&gt;0</title>
<path fill="none" stroke="black" d="M159.29,-233.89C178.78,-266.63 202.66,-306.74 219.92,-335.73"/>
<polygon fill="black" stroke="black" points="220.05,-335.95 226.55,-339.06 226.19,-346.26 219.68,-343.15 220.05,-335.95"/>
</g>
</g>
</svg>
