<?xml version="1.0" encoding="UTF-8" standalone="no"?>
<!DOCTYPE svg PUBLIC "-//W3C//DTD SVG 1.1//EN"
 "http://www.w3.org/Graphics/SVG/1.1/DTD/svg11.dtd">
<!-- Generated by graphviz version 5.0.0 (20220707.1540)
 -->
<!-- Title: UmlClassDiagram Pages: 1 -->
<svg width="528pt" height="490pt"
 viewBox="0.00 0.00 528.00 490.20" xmlns="http://www.w3.org/2000/svg" xmlns:xlink="http://www.w3.org/1999/xlink">
<g id="graph0" class="graph" transform="scale(1 1) rotate(0) translate(4 486.2)">
<title>UmlClassDiagram</title>
<polygon fill="white" stroke="transparent" points="-4,4 -4,-486.2 524,-486.2 524,4 -4,4"/>
<g id="clust1" class="cluster">
<title>cluster_0</title>
<polygon fill="white" stroke="black" points="8,-8 8,-474.2 512,-474.2 512,-8 8,-8"/>
<text text-anchor="middle" x="260" y="-16.2" font-family="Times,serif" font-size="14.00">contracts/interfaces/IEIP1404</text>
</g>
<!-- 0 -->
<g id="node1" class="node">
<title>0</title>
<polygon fill="#f2f2f2" stroke="black" points="17.36,-348.9 17.36,-465.7 502.64,-465.7 502.64,-348.9 17.36,-348.9"/>
<text text-anchor="middle" x="260" y="-449.1" font-family="Times,serif" font-size="14.00">&lt;&lt;Interface&gt;&gt;</text>
<text text-anchor="middle" x="260" y="-432.3" font-family="Times,serif" font-size="14.00">IEIP1404</text>
<text text-anchor="middle" x="260" y="-415.5" font-family="Times,serif" font-size="14.00">contracts/interfaces/IEIP1404/IEIP1404.sol</text>
<polyline fill="none" stroke="black" points="17.36,-407.3 502.64,-407.3 "/>
<text text-anchor="start" x="25.36" y="-390.7" font-family="Times,serif" font-size="14.00">External:</text>
<text text-anchor="start" x="25.36" y="-373.9" font-family="Times,serif" font-size="14.00"> &#160;&#160;&#160;&#160;detectTransferRestriction(_from: address, _to: address, _amount: uint256): uint8</text>
<text text-anchor="start" x="25.36" y="-357.1" font-family="Times,serif" font-size="14.00"> &#160;&#160;&#160;&#160;messageForTransferRestriction(_restrictionCode: uint8): string</text>
</g>
<!-- 2 -->
<g id="node2" class="node">
<title>2</title>
<polygon fill="#f2f2f2" stroke="black" points="105.63,-41.3 105.63,-174.9 414.37,-174.9 414.37,-41.3 105.63,-41.3"/>
<text text-anchor="middle" x="260" y="-158.3" font-family="Times,serif" font-size="14.00">&lt;&lt;Enum&gt;&gt;</text>
<text text-anchor="middle" x="260" y="-141.5" font-family="Times,serif" font-size="14.00">REJECTED_CODE_BASE</text>
<text text-anchor="middle" x="260" y="-124.7" font-family="Times,serif" font-size="14.00">contracts/interfaces/IEIP1404/IEIP1404Wrapper.sol</text>
<polyline fill="none" stroke="black" points="105.63,-116.5 414.37,-116.5 "/>
<text text-anchor="start" x="113.63" y="-99.9" font-family="Times,serif" font-size="14.00">TRANSFER_OK: 0</text>
<text text-anchor="start" x="113.63" y="-83.1" font-family="Times,serif" font-size="14.00">TRANSFER_REJECTED_PAUSED: 1</text>
<text text-anchor="start" x="113.63" y="-66.3" font-family="Times,serif" font-size="14.00">TRANSFER_REJECTED_FROM_FROZEN: 2</text>
<text text-anchor="start" x="113.63" y="-49.5" font-family="Times,serif" font-size="14.00">TRANSFER_REJECTED_TO_FROZEN: 3</text>
</g>
<!-- 1 -->
<g id="node3" class="node">
<title>1</title>
<polygon fill="#f2f2f2" stroke="black" points="16,-211.9 16,-311.9 504,-311.9 504,-211.9 16,-211.9"/>
<text text-anchor="middle" x="260" y="-295.3" font-family="Times,serif" font-size="14.00">&lt;&lt;Interface&gt;&gt;</text>
<text text-anchor="middle" x="260" y="-278.5" font-family="Times,serif" font-size="14.00">IEIP1404Wrapper</text>
<text text-anchor="middle" x="260" y="-261.7" font-family="Times,serif" font-size="14.00">contracts/interfaces/IEIP1404/IEIP1404Wrapper.sol</text>
<polyline fill="none" stroke="black" points="16,-253.5 504,-253.5 "/>
<text text-anchor="start" x="24" y="-236.9" font-family="Times,serif" font-size="14.00">External:</text>
<text text-anchor="start" x="24" y="-220.1" font-family="Times,serif" font-size="14.00"> &#160;&#160;&#160;&#160;validateTransfer(_from: address, _to: address, _amount: uint256): (isValid: bool)</text>
</g>
<!-- 2&#45;&gt;1 -->
<g id="edge1" class="edge">
<title>2&#45;&gt;1</title>
<path fill="none" stroke="black" d="M260,-175.24C260,-183.41 260,-191.73 260,-199.83"/>
<polygon fill="black" stroke="black" points="260,-199.87 264,-205.87 260,-211.87 256,-205.87 260,-199.87"/>
</g>
<!-- 1&#45;&gt;0 -->
<g id="edge2" class="edge">
<title>1&#45;&gt;0</title>
<path fill="none" stroke="black" stroke-dasharray="5,2" d="M260,-312.25C260,-314.26 260,-316.29 260,-318.34"/>
<polygon fill="none" stroke="black" points="249.5,-318.46 260,-348.46 270.5,-318.46 249.5,-318.46"/>
</g>
</g>
</svg>
