<?xml version="1.0" encoding="UTF-8" standalone="no"?>
<!DOCTYPE svg PUBLIC "-//W3C//DTD SVG 1.1//EN"
 "http://www.w3.org/Graphics/SVG/1.1/DTD/svg11.dtd">
<!-- Generated by graphviz version 5.0.0 (20220707.1540)
 -->
<!-- Title: UmlClassDiagram Pages: 1 -->
<svg width="496pt" height="433pt"
 viewBox="0.00 0.00 496.00 433.40" xmlns="http://www.w3.org/2000/svg" xmlns:xlink="http://www.w3.org/1999/xlink">
<g id="graph0" class="graph" transform="scale(1 1) rotate(0) translate(4 429.4)">
<title>UmlClassDiagram</title>
<polygon fill="white" stroke="transparent" points="-4,4 -4,-429.4 492,-429.4 492,4 -4,4"/>
<!-- 0 -->
<g id="node1" class="node">
<title>0</title>
<polygon fill="#f2f2f2" stroke="black" points="1.36,-308.1 1.36,-424.9 486.64,-424.9 486.64,-308.1 1.36,-308.1"/>
<text text-anchor="middle" x="244" y="-408.3" font-family="Times,serif" font-size="14.00">&lt;&lt;Interface&gt;&gt;</text>
<text text-anchor="middle" x="244" y="-391.5" font-family="Times,serif" font-size="14.00">IERC1404</text>
<text text-anchor="middle" x="244" y="-374.7" font-family="Times,serif" font-size="14.00">draft&#45;IERC1404.sol</text>
<polyline fill="none" stroke="black" points="1.36,-366.5 486.64,-366.5 "/>
<text text-anchor="start" x="9.36" y="-349.9" font-family="Times,serif" font-size="14.00">External:</text>
<text text-anchor="start" x="9.36" y="-333.1" font-family="Times,serif" font-size="14.00"> &#160;&#160;&#160;&#160;detectTransferRestriction(_from: address, _to: address, _amount: uint256): uint8</text>
<text text-anchor="start" x="9.36" y="-316.3" font-family="Times,serif" font-size="14.00"> &#160;&#160;&#160;&#160;messageForTransferRestriction(_restrictionCode: uint8): string</text>
</g>
<!-- 2 -->
<g id="node2" class="node">
<title>2</title>
<polygon fill="#f2f2f2" stroke="black" points="101.23,-0.5 101.23,-134.1 386.77,-134.1 386.77,-0.5 101.23,-0.5"/>
<text text-anchor="middle" x="244" y="-117.5" font-family="Times,serif" font-size="14.00">&lt;&lt;Enum&gt;&gt;</text>
<text text-anchor="middle" x="244" y="-100.7" font-family="Times,serif" font-size="14.00">REJECTED_CODE_BASE</text>
<text text-anchor="middle" x="244" y="-83.9" font-family="Times,serif" font-size="14.00">draft&#45;IERC1404Wrapper.sol</text>
<polyline fill="none" stroke="black" points="101.23,-75.7 386.77,-75.7 "/>
<text text-anchor="start" x="109.23" y="-59.1" font-family="Times,serif" font-size="14.00">TRANSFER_OK: 0</text>
<text text-anchor="start" x="109.23" y="-42.3" font-family="Times,serif" font-size="14.00">TRANSFER_REJECTED_PAUSED: 1</text>
<text text-anchor="start" x="109.23" y="-25.5" font-family="Times,serif" font-size="14.00">TRANSFER_REJECTED_FROM_FROZEN: 2</text>
<text text-anchor="start" x="109.23" y="-8.7" font-family="Times,serif" font-size="14.00">TRANSFER_REJECTED_TO_FROZEN: 3</text>
</g>
<!-- 1 -->
<g id="node3" class="node">
<title>1</title>
<polygon fill="#f2f2f2" stroke="black" points="0,-171.1 0,-271.1 488,-271.1 488,-171.1 0,-171.1"/>
<text text-anchor="middle" x="244" y="-254.5" font-family="Times,serif" font-size="14.00">&lt;&lt;Interface&gt;&gt;</text>
<text text-anchor="middle" x="244" y="-237.7" font-family="Times,serif" font-size="14.00">IERC1404Wrapper</text>
<text text-anchor="middle" x="244" y="-220.9" font-family="Times,serif" font-size="14.00">draft&#45;IERC1404Wrapper.sol</text>
<polyline fill="none" stroke="black" points="0,-212.7 488,-212.7 "/>
<text text-anchor="start" x="8" y="-196.1" font-family="Times,serif" font-size="14.00">External:</text>
<text text-anchor="start" x="8" y="-179.3" font-family="Times,serif" font-size="14.00"> &#160;&#160;&#160;&#160;validateTransfer(_from: address, _to: address, _amount: uint256): (isValid: bool)</text>
</g>
<!-- 2&#45;&gt;1 -->
<g id="edge1" class="edge">
<title>2&#45;&gt;1</title>
<path fill="none" stroke="black" d="M244,-134.44C244,-142.61 244,-150.93 244,-159.03"/>
<polygon fill="black" stroke="black" points="244,-159.07 248,-165.07 244,-171.07 240,-165.07 244,-159.07"/>
</g>
<!-- 1&#45;&gt;0 -->
<g id="edge2" class="edge">
<title>1&#45;&gt;0</title>
<path fill="none" stroke="black" stroke-dasharray="5,2" d="M244,-271.45C244,-273.46 244,-275.49 244,-277.54"/>
<polygon fill="none" stroke="black" points="233.5,-277.66 244,-307.66 254.5,-277.66 233.5,-277.66"/>
</g>
</g>
</svg>
