<?xml version="1.0" encoding="UTF-8" standalone="no"?>
<!DOCTYPE svg PUBLIC "-//W3C//DTD SVG 1.1//EN"
 "http://www.w3.org/Graphics/SVG/1.1/DTD/svg11.dtd">
<!-- Generated by graphviz version 5.0.0 (20220707.1540)
 -->
<!-- Title: UmlClassDiagram Pages: 1 -->
<svg width="948pt" height="688pt"
 viewBox="0.00 0.00 948.00 687.80" xmlns="http://www.w3.org/2000/svg" xmlns:xlink="http://www.w3.org/1999/xlink">
<g id="graph0" class="graph" transform="scale(1 1) rotate(0) translate(4 683.8)">
<title>UmlClassDiagram</title>
<polygon fill="white" stroke="transparent" points="-4,4 -4,-683.8 944,-683.8 944,4 -4,4"/>
<g id="clust1" class="cluster">
<title>cluster_0</title>
<polygon fill="white" stroke="black" points="8,-8 8,-671.8 508,-671.8 508,-8 8,-8"/>
<text text-anchor="middle" x="258" y="-16.2" font-family="Times,serif" font-size="14.00">contracts/mocks/RuleEngine</text>
</g>
<g id="clust2" class="cluster">
<title>cluster_1</title>
<polygon fill="white" stroke="black" points="516,-309 516,-655 932,-655 932,-309 516,-309"/>
<text text-anchor="middle" x="724" y="-317.2" font-family="Times,serif" font-size="14.00">contracts/mocks/RuleEngine/interfaces</text>
</g>
<!-- 0 -->
<g id="node1" class="node">
<title>0</title>
<polygon fill="#f2f2f2" stroke="black" points="131.99,-529.7 131.99,-663.3 384.01,-663.3 384.01,-529.7 131.99,-529.7"/>
<text text-anchor="middle" x="258" y="-646.7" font-family="Times,serif" font-size="14.00">&lt;&lt;Abstract&gt;&gt;</text>
<text text-anchor="middle" x="258" y="-629.9" font-family="Times,serif" font-size="14.00">CodeList</text>
<text text-anchor="middle" x="258" y="-613.1" font-family="Times,serif" font-size="14.00">contracts/mocks/RuleEngine/CodeList.sol</text>
<polyline fill="none" stroke="black" points="131.99,-604.9 384.01,-604.9 "/>
<text text-anchor="start" x="139.99" y="-588.3" font-family="Times,serif" font-size="14.00">Public:</text>
<text text-anchor="start" x="139.99" y="-571.5" font-family="Times,serif" font-size="14.00"> &#160;&#160;AMOUNT_TOO_HIGH: uint8</text>
<text text-anchor="start" x="139.99" y="-554.7" font-family="Times,serif" font-size="14.00"> &#160;&#160;TEXT_AMOUNT_TOO_HIGH: string</text>
<text text-anchor="start" x="139.99" y="-537.9" font-family="Times,serif" font-size="14.00"> &#160;&#160;TEXT_CODE_NOT_FOUND: string</text>
</g>
<!-- 1 -->
<g id="node2" class="node">
<title>1</title>
<polygon fill="#f2f2f2" stroke="black" points="18.11,-41.3 18.11,-300.5 499.89,-300.5 499.89,-41.3 18.11,-41.3"/>
<text text-anchor="middle" x="259" y="-283.9" font-family="Times,serif" font-size="14.00">RuleEngineMock</text>
<text text-anchor="middle" x="259" y="-267.1" font-family="Times,serif" font-size="14.00">contracts/mocks/RuleEngine/RuleEngineMock.sol</text>
<polyline fill="none" stroke="black" points="18.11,-258.9 499.89,-258.9 "/>
<text text-anchor="start" x="26.11" y="-242.3" font-family="Times,serif" font-size="14.00">Internal:</text>
<text text-anchor="start" x="26.11" y="-225.5" font-family="Times,serif" font-size="14.00"> &#160;&#160;_rules: IRule[]</text>
<polyline fill="none" stroke="black" points="18.11,-217.3 499.89,-217.3 "/>
<text text-anchor="start" x="26.11" y="-200.7" font-family="Times,serif" font-size="14.00">External:</text>
<text text-anchor="start" x="26.11" y="-183.9" font-family="Times,serif" font-size="14.00"> &#160;&#160;&#160;setRules(rules_: IRule[])</text>
<text text-anchor="start" x="26.11" y="-167.1" font-family="Times,serif" font-size="14.00"> &#160;&#160;&#160;rulesCount(): uint256</text>
<text text-anchor="start" x="26.11" y="-150.3" font-family="Times,serif" font-size="14.00"> &#160;&#160;&#160;rule(ruleId: uint256): IRule</text>
<text text-anchor="start" x="26.11" y="-133.5" font-family="Times,serif" font-size="14.00"> &#160;&#160;&#160;rules(): IRule[]</text>
<text text-anchor="start" x="26.11" y="-116.7" font-family="Times,serif" font-size="14.00">Public:</text>
<text text-anchor="start" x="26.11" y="-99.9" font-family="Times,serif" font-size="14.00"> &#160;&#160;&#160;constructor()</text>
<text text-anchor="start" x="26.11" y="-83.1" font-family="Times,serif" font-size="14.00"> &#160;&#160;&#160;detectTransferRestriction(_from: address, _to: address, _amount: uint256): uint8</text>
<text text-anchor="start" x="26.11" y="-66.3" font-family="Times,serif" font-size="14.00"> &#160;&#160;&#160;validateTransfer(_from: address, _to: address, _amount: uint256): bool</text>
<text text-anchor="start" x="26.11" y="-49.5" font-family="Times,serif" font-size="14.00"> &#160;&#160;&#160;messageForTransferRestriction(_restrictionCode: uint8): string</text>
</g>
<!-- 2 -->
<g id="node3" class="node">
<title>2</title>
<polygon fill="#f2f2f2" stroke="black" points="15.75,-342.3 15.75,-492.7 500.25,-492.7 500.25,-342.3 15.75,-342.3"/>
<text text-anchor="middle" x="258" y="-476.1" font-family="Times,serif" font-size="14.00">RuleMock</text>
<text text-anchor="middle" x="258" y="-459.3" font-family="Times,serif" font-size="14.00">contracts/mocks/RuleEngine/RuleMock.sol</text>
<polyline fill="none" stroke="black" points="15.75,-451.1 500.25,-451.1 "/>
<text text-anchor="start" x="23.75" y="-434.5" font-family="Times,serif" font-size="14.00">External:</text>
<text text-anchor="start" x="23.75" y="-417.7" font-family="Times,serif" font-size="14.00"> &#160;&#160;&#160;messageForTransferRestriction(_restrictionCode: uint8): string</text>
<text text-anchor="start" x="23.75" y="-400.9" font-family="Times,serif" font-size="14.00">Public:</text>
<text text-anchor="start" x="23.75" y="-384.1" font-family="Times,serif" font-size="14.00"> &#160;&#160;&#160;validateTransfer(_from: address, _to: address, _amount: uint256): (isValid: bool)</text>
<text text-anchor="start" x="23.75" y="-367.3" font-family="Times,serif" font-size="14.00"> &#160;&#160;&#160;detectTransferRestriction(address, address, _amount: uint256): uint8</text>
<text text-anchor="start" x="23.75" y="-350.5" font-family="Times,serif" font-size="14.00"> &#160;&#160;&#160;canReturnTransferRestrictionCode(_restrictionCode: uint8): bool</text>
</g>
<!-- 1&#45;&gt;2 -->
<g id="edge3" class="edge">
<title>1&#45;&gt;2</title>
<path fill="none" stroke="black" stroke-dasharray="5,2" d="M258.47,-300.65C258.43,-311.26 258.39,-321.82 258.35,-331.98"/>
<polygon fill="black" stroke="black" points="254.85,-331.99 258.3,-342.01 261.85,-332.02 254.85,-331.99"/>
</g>
<!-- 3 -->
<g id="node4" class="node">
<title>3</title>
<polygon fill="#f2f2f2" stroke="black" points="523.74,-546.5 523.74,-646.5 924.26,-646.5 924.26,-546.5 523.74,-546.5"/>
<text text-anchor="middle" x="724" y="-629.9" font-family="Times,serif" font-size="14.00">&lt;&lt;Interface&gt;&gt;</text>
<text text-anchor="middle" x="724" y="-613.1" font-family="Times,serif" font-size="14.00">IRule</text>
<text text-anchor="middle" x="724" y="-596.3" font-family="Times,serif" font-size="14.00">contracts/mocks/RuleEngine/interfaces/IRule.sol</text>
<polyline fill="none" stroke="black" points="523.74,-588.1 924.26,-588.1 "/>
<text text-anchor="start" x="531.74" y="-571.5" font-family="Times,serif" font-size="14.00">External:</text>
<text text-anchor="start" x="531.74" y="-554.7" font-family="Times,serif" font-size="14.00"> &#160;&#160;&#160;&#160;canReturnTransferRestrictionCode(_restrictionCode: uint8): bool</text>
</g>
<!-- 1&#45;&gt;3 -->
<g id="edge2" class="edge">
<title>1&#45;&gt;3</title>
<path fill="none" stroke="black" d="M499.98,-297.64C503.12,-301.33 506.13,-305.12 509,-309 558.67,-376.23 498.09,-425.42 547,-493.2 560.54,-511.96 578.66,-527.8 598.15,-540.99"/>
<polygon fill="black" stroke="black" points="596.29,-543.96 606.58,-546.48 600.11,-538.09 596.29,-543.96"/>
</g>
<!-- 4 -->
<g id="node5" class="node">
<title>4</title>
<polygon fill="#f2f2f2" stroke="black" points="556.13,-342.3 556.13,-492.7 885.87,-492.7 885.87,-342.3 556.13,-342.3"/>
<text text-anchor="middle" x="721" y="-476.1" font-family="Times,serif" font-size="14.00">&lt;&lt;Interface&gt;&gt;</text>
<text text-anchor="middle" x="721" y="-459.3" font-family="Times,serif" font-size="14.00">IRuleEngine</text>
<text text-anchor="middle" x="721" y="-442.5" font-family="Times,serif" font-size="14.00">contracts/mocks/RuleEngine/interfaces/IRuleEngine.sol</text>
<polyline fill="none" stroke="black" points="556.13,-434.3 885.87,-434.3 "/>
<text text-anchor="start" x="564.13" y="-417.7" font-family="Times,serif" font-size="14.00">External:</text>
<text text-anchor="start" x="564.13" y="-400.9" font-family="Times,serif" font-size="14.00"> &#160;&#160;&#160;&#160;setRules(rules_: IRule[])</text>
<text text-anchor="start" x="564.13" y="-384.1" font-family="Times,serif" font-size="14.00"> &#160;&#160;&#160;&#160;rulesCount(): uint256</text>
<text text-anchor="start" x="564.13" y="-367.3" font-family="Times,serif" font-size="14.00"> &#160;&#160;&#160;&#160;rule(ruleId: uint256): IRule</text>
<text text-anchor="start" x="564.13" y="-350.5" font-family="Times,serif" font-size="14.00"> &#160;&#160;&#160;&#160;rules(): IRule[]</text>
</g>
<!-- 1&#45;&gt;4 -->
<g id="edge1" class="edge">
<title>1&#45;&gt;4</title>
<path fill="none" stroke="black" stroke-dasharray="5,2" d="M500.21,-286.93C514.42,-294.27 528.44,-301.66 542,-309 552.61,-314.74 563.49,-320.81 574.38,-327.02"/>
<polygon fill="none" stroke="black" points="569.3,-336.21 600.53,-342.15 579.82,-318.03 569.3,-336.21"/>
</g>
<!-- 2&#45;&gt;0 -->
<g id="edge5" class="edge">
<title>2&#45;&gt;0</title>
<path fill="none" stroke="black" d="M258,-492.79C258,-494.99 258,-497.19 258,-499.4"/>
<polygon fill="none" stroke="black" points="247.5,-499.56 258,-529.56 268.5,-499.56 247.5,-499.56"/>
</g>
<!-- 2&#45;&gt;3 -->
<g id="edge4" class="edge">
<title>2&#45;&gt;3</title>
<path fill="none" stroke="black" stroke-dasharray="5,2" d="M453.6,-492.79C491.33,-507.13 530.4,-521.97 566.72,-535.76"/>
<polygon fill="none" stroke="black" points="563.08,-545.61 594.86,-546.45 570.54,-525.98 563.08,-545.61"/>
</g>
<!-- 4&#45;&gt;3 -->
<g id="edge6" class="edge">
<title>4&#45;&gt;3</title>
<path fill="none" stroke="black" stroke-dasharray="5,2" d="M722.26,-492.79C722.5,-507.19 722.76,-522.11 722.99,-535.96"/>
<polygon fill="black" stroke="black" points="719.5,-536.38 723.17,-546.32 726.5,-536.26 719.5,-536.38"/>
</g>
</g>
</svg>
