<?xml version="1.0" encoding="UTF-8" standalone="no"?>
<!DOCTYPE svg PUBLIC "-//W3C//DTD SVG 1.1//EN"
 "http://www.w3.org/Graphics/SVG/1.1/DTD/svg11.dtd">
<!-- Generated by graphviz version 5.0.0 (20220707.1540)
 -->
<!-- Title: UmlClassDiagram Pages: 1 -->
<svg width="972pt" height="688pt"
 viewBox="0.00 0.00 972.21 687.80" xmlns="http://www.w3.org/2000/svg" xmlns:xlink="http://www.w3.org/1999/xlink">
<g id="graph0" class="graph" transform="scale(1 1) rotate(0) translate(4 683.8)">
<title>UmlClassDiagram</title>
<polygon fill="white" stroke="transparent" points="-4,4 -4,-683.8 968.21,-683.8 968.21,4 -4,4"/>
<g id="clust1" class="cluster">
<title>cluster_0</title>
<polygon fill="white" stroke="black" points="12.21,-8 12.21,-671.8 532.21,-671.8 532.21,-8 12.21,-8"/>
<text text-anchor="middle" x="272.21" y="-16.2" font-family="Times,serif" font-size="14.00">contracts/mocks/RuleEngine</text>
</g>
<g id="clust2" class="cluster">
<title>cluster_1</title>
<polygon fill="white" stroke="black" points="540.21,-309 540.21,-655 956.21,-655 956.21,-309 540.21,-309"/>
<text text-anchor="middle" x="748.21" y="-317.2" font-family="Times,serif" font-size="14.00">contracts/mocks/RuleEngine/interfaces</text>
</g>
<!-- 0 -->
<g id="node1" class="node">
<title>0</title>
<polygon fill="#f2f2f2" stroke="black" points="88.2,-529.7 88.2,-663.3 340.22,-663.3 340.22,-529.7 88.2,-529.7"/>
<text text-anchor="middle" x="214.21" y="-646.7" font-family="Times,serif" font-size="14.00">&lt;&lt;Abstract&gt;&gt;</text>
<text text-anchor="middle" x="214.21" y="-629.9" font-family="Times,serif" font-size="14.00">CodeList</text>
<text text-anchor="middle" x="214.21" y="-613.1" font-family="Times,serif" font-size="14.00">contracts/mocks/RuleEngine/CodeList.sol</text>
<polyline fill="none" stroke="black" points="88.2,-604.9 340.22,-604.9 "/>
<text text-anchor="start" x="96.2" y="-588.3" font-family="Times,serif" font-size="14.00">Public:</text>
<text text-anchor="start" x="96.2" y="-571.5" font-family="Times,serif" font-size="14.00"> &#160;&#160;AMOUNT_TOO_HIGH: uint8</text>
<text text-anchor="start" x="96.2" y="-554.7" font-family="Times,serif" font-size="14.00"> &#160;&#160;TEXT_AMOUNT_TOO_HIGH: string</text>
<text text-anchor="start" x="96.2" y="-537.9" font-family="Times,serif" font-size="14.00"> &#160;&#160;TEXT_CODE_NOT_FOUND: string</text>
</g>
<!-- 1 -->
<g id="node2" class="node">
<title>1</title>
<polygon fill="#f2f2f2" stroke="black" points="41.32,-41.3 41.32,-300.5 523.1,-300.5 523.1,-41.3 41.32,-41.3"/>
<text text-anchor="middle" x="282.21" y="-283.9" font-family="Times,serif" font-size="14.00">RuleEngineMock</text>
<text text-anchor="middle" x="282.21" y="-267.1" font-family="Times,serif" font-size="14.00">contracts/mocks/RuleEngine/RuleEngineMock.sol</text>
<polyline fill="none" stroke="black" points="41.32,-258.9 523.1,-258.9 "/>
<text text-anchor="start" x="49.32" y="-242.3" font-family="Times,serif" font-size="14.00">Internal:</text>
<text text-anchor="start" x="49.32" y="-225.5" font-family="Times,serif" font-size="14.00"> &#160;&#160;_rules: IRule[]</text>
<polyline fill="none" stroke="black" points="41.32,-217.3 523.1,-217.3 "/>
<text text-anchor="start" x="49.32" y="-200.7" font-family="Times,serif" font-size="14.00">External:</text>
<text text-anchor="start" x="49.32" y="-183.9" font-family="Times,serif" font-size="14.00"> &#160;&#160;&#160;setRules(rules_: IRule[])</text>
<text text-anchor="start" x="49.32" y="-167.1" font-family="Times,serif" font-size="14.00"> &#160;&#160;&#160;rulesCount(): uint256</text>
<text text-anchor="start" x="49.32" y="-150.3" font-family="Times,serif" font-size="14.00"> &#160;&#160;&#160;rule(ruleId: uint256): IRule</text>
<text text-anchor="start" x="49.32" y="-133.5" font-family="Times,serif" font-size="14.00"> &#160;&#160;&#160;rules(): IRule[]</text>
<text text-anchor="start" x="49.32" y="-116.7" font-family="Times,serif" font-size="14.00">Public:</text>
<text text-anchor="start" x="49.32" y="-99.9" font-family="Times,serif" font-size="14.00"> &#160;&#160;&#160;constructor()</text>
<text text-anchor="start" x="49.32" y="-83.1" font-family="Times,serif" font-size="14.00"> &#160;&#160;&#160;detectTransferRestriction(_from: address, _to: address, _amount: uint256): uint8</text>
<text text-anchor="start" x="49.32" y="-66.3" font-family="Times,serif" font-size="14.00"> &#160;&#160;&#160;validateTransfer(_from: address, _to: address, _amount: uint256): bool</text>
<text text-anchor="start" x="49.32" y="-49.5" font-family="Times,serif" font-size="14.00"> &#160;&#160;&#160;messageForTransferRestriction(_restrictionCode: uint8): string</text>
</g>
<!-- 1&#45;&gt;0 -->
<g id="edge2" class="edge">
<title>1&#45;&gt;0</title>
<path fill="none" stroke="black" d="M41.32,-293.86C37.69,-298.72 34.31,-303.77 31.21,-309 -10.56,-379.41 -10.22,-422.59 31.21,-493.2 39.61,-507.52 50.83,-519.99 63.6,-530.81"/>
<polygon fill="none" stroke="black" points="57.54,-539.39 87.97,-548.54 69.89,-522.4 57.54,-539.39"/>
</g>
<!-- 2 -->
<g id="node3" class="node">
<title>2</title>
<polygon fill="#f2f2f2" stroke="black" points="39.96,-342.3 39.96,-492.7 524.46,-492.7 524.46,-342.3 39.96,-342.3"/>
<text text-anchor="middle" x="282.21" y="-476.1" font-family="Times,serif" font-size="14.00">RuleMock</text>
<text text-anchor="middle" x="282.21" y="-459.3" font-family="Times,serif" font-size="14.00">contracts/mocks/RuleEngine/RuleMock.sol</text>
<polyline fill="none" stroke="black" points="39.96,-451.1 524.46,-451.1 "/>
<text text-anchor="start" x="47.96" y="-434.5" font-family="Times,serif" font-size="14.00">External:</text>
<text text-anchor="start" x="47.96" y="-417.7" font-family="Times,serif" font-size="14.00"> &#160;&#160;&#160;messageForTransferRestriction(_restrictionCode: uint8): string</text>
<text text-anchor="start" x="47.96" y="-400.9" font-family="Times,serif" font-size="14.00">Public:</text>
<text text-anchor="start" x="47.96" y="-384.1" font-family="Times,serif" font-size="14.00"> &#160;&#160;&#160;validateTransfer(_from: address, _to: address, _amount: uint256): (isValid: bool)</text>
<text text-anchor="start" x="47.96" y="-367.3" font-family="Times,serif" font-size="14.00"> &#160;&#160;&#160;detectTransferRestriction(address, address, _amount: uint256): uint8</text>
<text text-anchor="start" x="47.96" y="-350.5" font-family="Times,serif" font-size="14.00"> &#160;&#160;&#160;canReturnTransferRestrictionCode(_restrictionCode: uint8): bool</text>
</g>
<!-- 1&#45;&gt;2 -->
<g id="edge4" class="edge">
<title>1&#45;&gt;2</title>
<path fill="none" stroke="black" stroke-dasharray="5,2" d="M282.21,-300.65C282.21,-311.26 282.21,-321.82 282.21,-331.98"/>
<polygon fill="black" stroke="black" points="278.71,-332.01 282.21,-342.01 285.71,-332.01 278.71,-332.01"/>
</g>
<!-- 3 -->
<g id="node4" class="node">
<title>3</title>
<polygon fill="#f2f2f2" stroke="black" points="547.95,-546.5 547.95,-646.5 948.47,-646.5 948.47,-546.5 547.95,-546.5"/>
<text text-anchor="middle" x="748.21" y="-629.9" font-family="Times,serif" font-size="14.00">&lt;&lt;Interface&gt;&gt;</text>
<text text-anchor="middle" x="748.21" y="-613.1" font-family="Times,serif" font-size="14.00">IRule</text>
<text text-anchor="middle" x="748.21" y="-596.3" font-family="Times,serif" font-size="14.00">contracts/mocks/RuleEngine/interfaces/IRule.sol</text>
<polyline fill="none" stroke="black" points="547.95,-588.1 948.47,-588.1 "/>
<text text-anchor="start" x="555.95" y="-571.5" font-family="Times,serif" font-size="14.00">External:</text>
<text text-anchor="start" x="555.95" y="-554.7" font-family="Times,serif" font-size="14.00"> &#160;&#160;&#160;&#160;canReturnTransferRestrictionCode(_restrictionCode: uint8): bool</text>
</g>
<!-- 1&#45;&gt;3 -->
<g id="edge3" class="edge">
<title>1&#45;&gt;3</title>
<path fill="none" stroke="black" d="M523.17,-296.48C526.68,-300.54 530.03,-304.71 533.21,-309 582.94,-376.19 522.29,-425.42 571.21,-493.2 584.75,-511.96 602.87,-527.8 622.36,-540.99"/>
<polygon fill="black" stroke="black" points="620.5,-543.96 630.79,-546.48 624.32,-538.09 620.5,-543.96"/>
</g>
<!-- 4 -->
<g id="node5" class="node">
<title>4</title>
<polygon fill="#f2f2f2" stroke="black" points="580.34,-342.3 580.34,-492.7 910.08,-492.7 910.08,-342.3 580.34,-342.3"/>
<text text-anchor="middle" x="745.21" y="-476.1" font-family="Times,serif" font-size="14.00">&lt;&lt;Interface&gt;&gt;</text>
<text text-anchor="middle" x="745.21" y="-459.3" font-family="Times,serif" font-size="14.00">IRuleEngine</text>
<text text-anchor="middle" x="745.21" y="-442.5" font-family="Times,serif" font-size="14.00">contracts/mocks/RuleEngine/interfaces/IRuleEngine.sol</text>
<polyline fill="none" stroke="black" points="580.34,-434.3 910.08,-434.3 "/>
<text text-anchor="start" x="588.34" y="-417.7" font-family="Times,serif" font-size="14.00">External:</text>
<text text-anchor="start" x="588.34" y="-400.9" font-family="Times,serif" font-size="14.00"> &#160;&#160;&#160;&#160;setRules(rules_: IRule[])</text>
<text text-anchor="start" x="588.34" y="-384.1" font-family="Times,serif" font-size="14.00"> &#160;&#160;&#160;&#160;rulesCount(): uint256</text>
<text text-anchor="start" x="588.34" y="-367.3" font-family="Times,serif" font-size="14.00"> &#160;&#160;&#160;&#160;rule(ruleId: uint256): IRule</text>
<text text-anchor="start" x="588.34" y="-350.5" font-family="Times,serif" font-size="14.00"> &#160;&#160;&#160;&#160;rules(): IRule[]</text>
</g>
<!-- 1&#45;&gt;4 -->
<g id="edge1" class="edge">
<title>1&#45;&gt;4</title>
<path fill="none" stroke="black" stroke-dasharray="5,2" d="M523.15,-286.32C537.79,-293.86 552.24,-301.45 566.21,-309 576.82,-314.73 587.7,-320.79 598.6,-327"/>
<polygon fill="none" stroke="black" points="593.52,-336.19 624.75,-342.13 604.04,-318.01 593.52,-336.19"/>
</g>
<!-- 2&#45;&gt;0 -->
<g id="edge6" class="edge">
<title>2&#45;&gt;0</title>
<path fill="none" stroke="black" d="M253.67,-492.79C252.57,-495.65 251.46,-498.54 250.35,-501.42"/>
<polygon fill="none" stroke="black" points="240.5,-497.79 239.54,-529.56 260.1,-505.32 240.5,-497.79"/>
</g>
<!-- 2&#45;&gt;3 -->
<g id="edge5" class="edge">
<title>2&#45;&gt;3</title>
<path fill="none" stroke="black" stroke-dasharray="5,2" d="M477.81,-492.79C515.54,-507.13 554.61,-521.97 590.93,-535.76"/>
<polygon fill="none" stroke="black" points="587.29,-545.61 619.06,-546.45 594.75,-525.98 587.29,-545.61"/>
</g>
<!-- 4&#45;&gt;3 -->
<g id="edge7" class="edge">
<title>4&#45;&gt;3</title>
<path fill="none" stroke="black" stroke-dasharray="5,2" d="M746.47,-492.79C746.71,-507.19 746.96,-522.11 747.2,-535.96"/>
<polygon fill="black" stroke="black" points="743.71,-536.38 747.37,-546.32 750.7,-536.26 743.71,-536.38"/>
</g>
</g>
</svg>
