<?xml version="1.0" encoding="UTF-8" standalone="no"?>
<!DOCTYPE svg PUBLIC "-//W3C//DTD SVG 1.1//EN"
 "http://www.w3.org/Graphics/SVG/1.1/DTD/svg11.dtd">
<!-- Generated by graphviz version 5.0.0 (20220707.1540)
 -->
<!-- Title: UmlClassDiagram Pages: 1 -->
<svg width="382pt" height="258pt"
 viewBox="0.00 0.00 382.00 257.80" xmlns="http://www.w3.org/2000/svg" xmlns:xlink="http://www.w3.org/1999/xlink">
<g id="graph0" class="graph" transform="scale(1 1) rotate(0) translate(4 253.8)">
<title>UmlClassDiagram</title>
<polygon fill="white" stroke="transparent" points="-4,4 -4,-253.8 378,-253.8 378,4 -4,4"/>
<g id="clust1" class="cluster">
<title>cluster_0</title>
<polygon fill="white" stroke="black" points="8,-8 8,-241.8 366,-241.8 366,-8 8,-8"/>
<text text-anchor="middle" x="187" y="-16.2" font-family="Times,serif" font-size="14.00">contracts/modules/wrapper/extensions</text>
</g>
<!-- 33 -->
<g id="node1" class="node">
<title>33</title>
<polygon fill="#f2f2f2" stroke="black" points="15.9,-41.3 15.9,-233.3 358.1,-233.3 358.1,-41.3 15.9,-41.3"/>
<text text-anchor="middle" x="187" y="-216.7" font-family="Times,serif" font-size="14.00">&lt;&lt;Abstract&gt;&gt;</text>
<text text-anchor="middle" x="187" y="-199.9" font-family="Times,serif" font-size="14.00">MetaTxModule</text>
<text text-anchor="middle" x="187" y="-183.1" font-family="Times,serif" font-size="14.00">contracts/modules/wrapper/extensions/MetaTxModule.sol</text>
<polyline fill="none" stroke="black" points="15.9,-174.9 358.1,-174.9 "/>
<text text-anchor="start" x="23.9" y="-158.3" font-family="Times,serif" font-size="14.00">Private:</text>
<text text-anchor="start" x="23.9" y="-141.5" font-family="Times,serif" font-size="14.00"> &#160;&#160;__gap: uint256[50]</text>
<polyline fill="none" stroke="black" points="15.9,-133.3 358.1,-133.3 "/>
<text text-anchor="start" x="23.9" y="-116.7" font-family="Times,serif" font-size="14.00">Internal:</text>
<text text-anchor="start" x="23.9" y="-99.9" font-family="Times,serif" font-size="14.00"> &#160;&#160;&#160;_msgSender(): (sender: address)</text>
<text text-anchor="start" x="23.9" y="-83.1" font-family="Times,serif" font-size="14.00"> &#160;&#160;&#160;_msgData(): bytes</text>
<text text-anchor="start" x="23.9" y="-66.3" font-family="Times,serif" font-size="14.00">Public:</text>
<text text-anchor="start" x="23.9" y="-49.5" font-family="Times,serif" font-size="14.00"> &#160;&#160;&#160;constructor(trustedForwarder: address)</text>
</g>
</g>
</svg>
