<?xml version="1.0" encoding="UTF-8" standalone="no"?>
<!DOCTYPE svg PUBLIC "-//W3C//DTD SVG 1.1//EN"
 "http://www.w3.org/Graphics/SVG/1.1/DTD/svg11.dtd">
<!-- Generated by graphviz version 5.0.0 (20220707.1540)
 -->
<!-- Title: UmlClassDiagram Pages: 1 -->
<svg width="2178pt" height="1385pt"
 viewBox="0.00 0.00 2178.00 1385.00" xmlns="http://www.w3.org/2000/svg" xmlns:xlink="http://www.w3.org/1999/xlink">
<g id="graph0" class="graph" transform="scale(1 1) rotate(0) translate(4 1381)">
<title>UmlClassDiagram</title>
<polygon fill="white" stroke="transparent" points="-4,4 -4,-1381 2174,-1381 2174,4 -4,4"/>
<g id="clust1" class="cluster">
<title>cluster_0</title>
<polygon fill="white" stroke="black" points="8,-798 8,-1369 512,-1369 512,-798 8,-798"/>
<text text-anchor="middle" x="260" y="-806.2" font-family="Times,serif" font-size="14.00">contracts/interfaces/draft&#45;IERC1404</text>
</g>
<g id="clust2" class="cluster">
<title>cluster_1</title>
<polygon fill="white" stroke="black" points="520,-726.8 520,-1044.6 1616,-1044.6 1616,-726.8 520,-726.8"/>
<text text-anchor="middle" x="1068" y="-735" font-family="Times,serif" font-size="14.00">contracts/modules/internal</text>
</g>
<g id="clust3" class="cluster">
<title>cluster_2</title>
<polygon fill="white" stroke="black" points="1624,-693.2 1624,-1078.2 2162,-1078.2 2162,-693.2 1624,-693.2"/>
<text text-anchor="middle" x="1893" y="-701.4" font-family="Times,serif" font-size="14.00">contracts/modules/security</text>
</g>
<g id="clust4" class="cluster">
<title>cluster_3</title>
<polygon fill="white" stroke="black" points="522,-8 522,-342.6 1042,-342.6 1042,-8 522,-8"/>
<text text-anchor="middle" x="782" y="-16.2" font-family="Times,serif" font-size="14.00">contracts/modules/wrapper/controllers</text>
</g>
<g id="clust5" class="cluster">
<title>cluster_4</title>
<polygon fill="white" stroke="black" points="1132,-350.6 1132,-685.2 1890,-685.2 1890,-350.6 1132,-350.6"/>
<text text-anchor="middle" x="1511" y="-358.8" font-family="Times,serif" font-size="14.00">contracts/modules/wrapper/core</text>
</g>
<!-- 8 -->
<g id="node1" class="node">
<title>8</title>
<polygon fill="#f2f2f2" stroke="black" points="17.36,-1243.7 17.36,-1360.5 502.64,-1360.5 502.64,-1243.7 17.36,-1243.7"/>
<text text-anchor="middle" x="260" y="-1343.9" font-family="Times,serif" font-size="14.00">&lt;&lt;Interface&gt;&gt;</text>
<text text-anchor="middle" x="260" y="-1327.1" font-family="Times,serif" font-size="14.00">IERC1404</text>
<text text-anchor="middle" x="260" y="-1310.3" font-family="Times,serif" font-size="14.00">contracts/interfaces/draft&#45;IERC1404/draft&#45;IERC1404.sol</text>
<polyline fill="none" stroke="black" points="17.36,-1302.1 502.64,-1302.1 "/>
<text text-anchor="start" x="25.36" y="-1285.5" font-family="Times,serif" font-size="14.00">External:</text>
<text text-anchor="start" x="25.36" y="-1268.7" font-family="Times,serif" font-size="14.00"> &#160;&#160;&#160;&#160;detectTransferRestriction(_from: address, _to: address, _amount: uint256): uint8</text>
<text text-anchor="start" x="25.36" y="-1251.9" font-family="Times,serif" font-size="14.00"> &#160;&#160;&#160;&#160;messageForTransferRestriction(_restrictionCode: uint8): string</text>
</g>
<!-- 10 -->
<g id="node2" class="node">
<title>10</title>
<polygon fill="#f2f2f2" stroke="black" points="68.31,-831.3 68.31,-964.9 451.69,-964.9 451.69,-831.3 68.31,-831.3"/>
<text text-anchor="middle" x="260" y="-948.3" font-family="Times,serif" font-size="14.00">&lt;&lt;Enum&gt;&gt;</text>
<text text-anchor="middle" x="260" y="-931.5" font-family="Times,serif" font-size="14.00">REJECTED_CODE_BASE</text>
<text text-anchor="middle" x="260" y="-914.7" font-family="Times,serif" font-size="14.00">contracts/interfaces/draft&#45;IERC1404/draft&#45;IERC1404Wrapper.sol</text>
<polyline fill="none" stroke="black" points="68.31,-906.5 451.69,-906.5 "/>
<text text-anchor="start" x="76.31" y="-889.9" font-family="Times,serif" font-size="14.00">TRANSFER_OK: 0</text>
<text text-anchor="start" x="76.31" y="-873.1" font-family="Times,serif" font-size="14.00">TRANSFER_REJECTED_PAUSED: 1</text>
<text text-anchor="start" x="76.31" y="-856.3" font-family="Times,serif" font-size="14.00">TRANSFER_REJECTED_FROM_FROZEN: 2</text>
<text text-anchor="start" x="76.31" y="-839.5" font-family="Times,serif" font-size="14.00">TRANSFER_REJECTED_TO_FROZEN: 3</text>
</g>
<!-- 9 -->
<g id="node3" class="node">
<title>9</title>
<polygon fill="#f2f2f2" stroke="black" points="16,-1106.7 16,-1206.7 504,-1206.7 504,-1106.7 16,-1106.7"/>
<text text-anchor="middle" x="260" y="-1190.1" font-family="Times,serif" font-size="14.00">&lt;&lt;Interface&gt;&gt;</text>
<text text-anchor="middle" x="260" y="-1173.3" font-family="Times,serif" font-size="14.00">IERC1404Wrapper</text>
<text text-anchor="middle" x="260" y="-1156.5" font-family="Times,serif" font-size="14.00">contracts/interfaces/draft&#45;IERC1404/draft&#45;IERC1404Wrapper.sol</text>
<polyline fill="none" stroke="black" points="16,-1148.3 504,-1148.3 "/>
<text text-anchor="start" x="24" y="-1131.7" font-family="Times,serif" font-size="14.00">External:</text>
<text text-anchor="start" x="24" y="-1114.9" font-family="Times,serif" font-size="14.00"> &#160;&#160;&#160;&#160;validateTransfer(_from: address, _to: address, _amount: uint256): (isValid: bool)</text>
</g>
<!-- 10&#45;&gt;9 -->
<g id="edge1" class="edge">
<title>10&#45;&gt;9</title>
<path fill="none" stroke="black" d="M260,-965.18C260,-1004.98 260,-1055.31 260,-1094.25"/>
<polygon fill="black" stroke="black" points="260,-1094.46 264,-1100.46 260,-1106.46 256,-1100.46 260,-1094.46"/>
</g>
<!-- 9&#45;&gt;8 -->
<g id="edge2" class="edge">
<title>9&#45;&gt;8</title>
<path fill="none" stroke="black" stroke-dasharray="5,2" d="M260,-1207.05C260,-1209.06 260,-1211.09 260,-1213.14"/>
<polygon fill="none" stroke="black" points="249.5,-1213.26 260,-1243.26 270.5,-1213.26 249.5,-1213.26"/>
</g>
<!-- 16 -->
<g id="node4" class="node">
<title>16</title>
<polygon fill="#f2f2f2" stroke="black" points="1053.95,-760.1 1053.95,-1036.1 1608.05,-1036.1 1608.05,-760.1 1053.95,-760.1"/>
<text text-anchor="middle" x="1331" y="-1019.5" font-family="Times,serif" font-size="14.00">&lt;&lt;Abstract&gt;&gt;</text>
<text text-anchor="middle" x="1331" y="-1002.7" font-family="Times,serif" font-size="14.00">EnforcementModuleInternal</text>
<text text-anchor="middle" x="1331" y="-985.9" font-family="Times,serif" font-size="14.00">contracts/modules/internal/EnforcementModuleInternal.sol</text>
<polyline fill="none" stroke="black" points="1053.95,-977.7 1608.05,-977.7 "/>
<text text-anchor="start" x="1061.95" y="-961.1" font-family="Times,serif" font-size="14.00">Private:</text>
<text text-anchor="start" x="1061.95" y="-944.3" font-family="Times,serif" font-size="14.00"> &#160;&#160;_frozen: mapping(address=&gt;bool)</text>
<text text-anchor="start" x="1061.95" y="-927.5" font-family="Times,serif" font-size="14.00"> &#160;&#160;__gap: uint256[50]</text>
<polyline fill="none" stroke="black" points="1053.95,-919.3 1608.05,-919.3 "/>
<text text-anchor="start" x="1061.95" y="-902.7" font-family="Times,serif" font-size="14.00">Internal:</text>
<text text-anchor="start" x="1061.95" y="-885.9" font-family="Times,serif" font-size="14.00"> &#160;&#160;&#160;__Enforcement_init() &lt;&lt;onlyInitializing&gt;&gt;</text>
<text text-anchor="start" x="1061.95" y="-869.1" font-family="Times,serif" font-size="14.00"> &#160;&#160;&#160;__Enforcement_init_unchained() &lt;&lt;onlyInitializing&gt;&gt;</text>
<text text-anchor="start" x="1061.95" y="-852.3" font-family="Times,serif" font-size="14.00"> &#160;&#160;&#160;_freeze(account: address, reason: string): bool</text>
<text text-anchor="start" x="1061.95" y="-835.5" font-family="Times,serif" font-size="14.00"> &#160;&#160;&#160;_unfreeze(account: address, reason: string): bool</text>
<text text-anchor="start" x="1061.95" y="-818.7" font-family="Times,serif" font-size="14.00">Public:</text>
<text text-anchor="start" x="1061.95" y="-801.9" font-family="Times,serif" font-size="14.00"> &#160;&#160;&#160;&lt;&lt;event&gt;&gt; Freeze(enforcer: address, owner: address, reasonIndexed: string, reason: string)</text>
<text text-anchor="start" x="1061.95" y="-785.1" font-family="Times,serif" font-size="14.00"> &#160;&#160;&#160;&lt;&lt;event&gt;&gt; Unfreeze(enforcer: address, owner: address, reasonIndexed: string, reason: string)</text>
<text text-anchor="start" x="1061.95" y="-768.3" font-family="Times,serif" font-size="14.00"> &#160;&#160;&#160;frozen(account: address): bool</text>
</g>
<!-- 17 -->
<g id="node5" class="node">
<title>17</title>
<polygon fill="#f2f2f2" stroke="black" points="527.66,-760.1 527.66,-1036.1 1036.34,-1036.1 1036.34,-760.1 527.66,-760.1"/>
<text text-anchor="middle" x="782" y="-1019.5" font-family="Times,serif" font-size="14.00">&lt;&lt;Abstract&gt;&gt;</text>
<text text-anchor="middle" x="782" y="-1002.7" font-family="Times,serif" font-size="14.00">ValidationModuleInternal</text>
<text text-anchor="middle" x="782" y="-985.9" font-family="Times,serif" font-size="14.00">contracts/modules/internal/ValidationModuleInternal.sol</text>
<polyline fill="none" stroke="black" points="527.66,-977.7 1036.34,-977.7 "/>
<text text-anchor="start" x="535.66" y="-961.1" font-family="Times,serif" font-size="14.00">Private:</text>
<text text-anchor="start" x="535.66" y="-944.3" font-family="Times,serif" font-size="14.00"> &#160;&#160;__gap: uint256[50]</text>
<text text-anchor="start" x="535.66" y="-927.5" font-family="Times,serif" font-size="14.00">Public:</text>
<text text-anchor="start" x="535.66" y="-910.7" font-family="Times,serif" font-size="14.00"> &#160;&#160;ruleEngine: IERC1404Wrapper</text>
<polyline fill="none" stroke="black" points="527.66,-902.5 1036.34,-902.5 "/>
<text text-anchor="start" x="535.66" y="-885.9" font-family="Times,serif" font-size="14.00">Internal:</text>
<text text-anchor="start" x="535.66" y="-869.1" font-family="Times,serif" font-size="14.00"> &#160;&#160;&#160;__Validation_init(ruleEngine_: IERC1404Wrapper) &lt;&lt;onlyInitializing&gt;&gt;</text>
<text text-anchor="start" x="535.66" y="-852.3" font-family="Times,serif" font-size="14.00"> &#160;&#160;&#160;__Validation_init_unchained(ruleEngine_: IERC1404Wrapper) &lt;&lt;onlyInitializing&gt;&gt;</text>
<text text-anchor="start" x="535.66" y="-835.5" font-family="Times,serif" font-size="14.00"> &#160;&#160;&#160;_validateTransfer(from: address, to: address, amount: uint256): bool</text>
<text text-anchor="start" x="535.66" y="-818.7" font-family="Times,serif" font-size="14.00"> &#160;&#160;&#160;_messageForTransferRestriction(restrictionCode: uint8): string</text>
<text text-anchor="start" x="535.66" y="-801.9" font-family="Times,serif" font-size="14.00"> &#160;&#160;&#160;_detectTransferRestriction(from: address, to: address, amount: uint256): uint8</text>
<text text-anchor="start" x="535.66" y="-785.1" font-family="Times,serif" font-size="14.00">Public:</text>
<text text-anchor="start" x="535.66" y="-768.3" font-family="Times,serif" font-size="14.00"> &#160;&#160;&#160;&lt;&lt;event&gt;&gt; RuleEngine(newRuleEngine: IERC1404Wrapper)</text>
</g>
<!-- 17&#45;&gt;9 -->
<g id="edge3" class="edge">
<title>17&#45;&gt;9</title>
<path fill="none" stroke="black" d="M592.81,-1036.28C567.64,-1051.59 541.65,-1066.02 516,-1078.2 496.81,-1087.31 476.31,-1095.64 455.57,-1103.18"/>
<polygon fill="black" stroke="black" points="454.27,-1099.92 446.03,-1106.58 456.62,-1106.52 454.27,-1099.92"/>
</g>
<!-- 18 -->
<g id="node6" class="node">
<title>18</title>
<polygon fill="#f2f2f2" stroke="black" points="1631.83,-726.5 1631.83,-1069.7 2154.17,-1069.7 2154.17,-726.5 1631.83,-726.5"/>
<text text-anchor="middle" x="1893" y="-1053.1" font-family="Times,serif" font-size="14.00">&lt;&lt;Abstract&gt;&gt;</text>
<text text-anchor="middle" x="1893" y="-1036.3" font-family="Times,serif" font-size="14.00">AuthorizationModule</text>
<text text-anchor="middle" x="1893" y="-1019.5" font-family="Times,serif" font-size="14.00">contracts/modules/security/AuthorizationModule.sol</text>
<polyline fill="none" stroke="black" points="1631.83,-1011.3 2154.17,-1011.3 "/>
<text text-anchor="start" x="1639.83" y="-994.7" font-family="Times,serif" font-size="14.00">Private:</text>
<text text-anchor="start" x="1639.83" y="-977.9" font-family="Times,serif" font-size="14.00"> &#160;&#160;__gap: uint256[50]</text>
<text text-anchor="start" x="1639.83" y="-961.1" font-family="Times,serif" font-size="14.00">Public:</text>
<text text-anchor="start" x="1639.83" y="-944.3" font-family="Times,serif" font-size="14.00"> &#160;&#160;BURNER_ROLE: bytes32</text>
<text text-anchor="start" x="1639.83" y="-927.5" font-family="Times,serif" font-size="14.00"> &#160;&#160;DEBT_CREDIT_EVENT_ROLE: bytes32</text>
<text text-anchor="start" x="1639.83" y="-910.7" font-family="Times,serif" font-size="14.00"> &#160;&#160;DEBT_ROLE: bytes32</text>
<text text-anchor="start" x="1639.83" y="-893.9" font-family="Times,serif" font-size="14.00"> &#160;&#160;ENFORCER_ROLE: bytes32</text>
<text text-anchor="start" x="1639.83" y="-877.1" font-family="Times,serif" font-size="14.00"> &#160;&#160;MINTER_ROLE: bytes32</text>
<text text-anchor="start" x="1639.83" y="-860.3" font-family="Times,serif" font-size="14.00"> &#160;&#160;PAUSER_ROLE: bytes32</text>
<text text-anchor="start" x="1639.83" y="-843.5" font-family="Times,serif" font-size="14.00"> &#160;&#160;SNAPSHOOTER_ROLE: bytes32</text>
<polyline fill="none" stroke="black" points="1631.83,-835.3 2154.17,-835.3 "/>
<text text-anchor="start" x="1639.83" y="-818.7" font-family="Times,serif" font-size="14.00">Internal:</text>
<text text-anchor="start" x="1639.83" y="-801.9" font-family="Times,serif" font-size="14.00"> &#160;&#160;&#160;__AuthorizationModule_init(admin: address, initialDelay: uint48) &lt;&lt;onlyInitializing&gt;&gt;</text>
<text text-anchor="start" x="1639.83" y="-785.1" font-family="Times,serif" font-size="14.00"> &#160;&#160;&#160;__AuthorizationModule_init_unchained() &lt;&lt;onlyInitializing&gt;&gt;</text>
<text text-anchor="start" x="1639.83" y="-768.3" font-family="Times,serif" font-size="14.00">Public:</text>
<text text-anchor="start" x="1639.83" y="-751.5" font-family="Times,serif" font-size="14.00"> &#160;&#160;&#160;hasRole(role: bytes32, account: address): bool</text>
<text text-anchor="start" x="1639.83" y="-734.7" font-family="Times,serif" font-size="14.00"> &#160;&#160;&#160;transferAdminshipDirectly(newAdmin: address) &lt;&lt;onlyRole&gt;&gt;</text>
</g>
<!-- 25 -->
<g id="node7" class="node">
<title>25</title>
<polygon fill="#f2f2f2" stroke="black" points="530.04,-41.3 530.04,-334.1 1033.96,-334.1 1033.96,-41.3 530.04,-41.3"/>
<text text-anchor="middle" x="782" y="-317.5" font-family="Times,serif" font-size="14.00">&lt;&lt;Abstract&gt;&gt;</text>
<text text-anchor="middle" x="782" y="-300.7" font-family="Times,serif" font-size="14.00">ValidationModule</text>
<text text-anchor="middle" x="782" y="-283.9" font-family="Times,serif" font-size="14.00">contracts/modules/wrapper/controllers/ValidationModule.sol</text>
<polyline fill="none" stroke="black" points="530.04,-275.7 1033.96,-275.7 "/>
<text text-anchor="start" x="538.04" y="-259.1" font-family="Times,serif" font-size="14.00">Private:</text>
<text text-anchor="start" x="538.04" y="-242.3" font-family="Times,serif" font-size="14.00"> &#160;&#160;__gap: uint256[50]</text>
<text text-anchor="start" x="538.04" y="-225.5" font-family="Times,serif" font-size="14.00">Public:</text>
<text text-anchor="start" x="538.04" y="-208.7" font-family="Times,serif" font-size="14.00"> &#160;&#160;TEXT_TRANSFER_OK: string</text>
<text text-anchor="start" x="538.04" y="-191.9" font-family="Times,serif" font-size="14.00"> &#160;&#160;TEXT_UNKNOWN_CODE: string</text>
<polyline fill="none" stroke="black" points="530.04,-183.7 1033.96,-183.7 "/>
<text text-anchor="start" x="538.04" y="-167.1" font-family="Times,serif" font-size="14.00">Internal:</text>
<text text-anchor="start" x="538.04" y="-150.3" font-family="Times,serif" font-size="14.00"> &#160;&#160;&#160;__ValidationModule_init_unchained() &lt;&lt;onlyInitializing&gt;&gt;</text>
<text text-anchor="start" x="538.04" y="-133.5" font-family="Times,serif" font-size="14.00">External:</text>
<text text-anchor="start" x="538.04" y="-116.7" font-family="Times,serif" font-size="14.00"> &#160;&#160;&#160;setRuleEngine(ruleEngine_: IERC1404Wrapper) &lt;&lt;onlyRole&gt;&gt;</text>
<text text-anchor="start" x="538.04" y="-99.9" font-family="Times,serif" font-size="14.00"> &#160;&#160;&#160;messageForTransferRestriction(restrictionCode: uint8): (message: string)</text>
<text text-anchor="start" x="538.04" y="-83.1" font-family="Times,serif" font-size="14.00">Public:</text>
<text text-anchor="start" x="538.04" y="-66.3" font-family="Times,serif" font-size="14.00"> &#160;&#160;&#160;detectTransferRestriction(from: address, to: address, amount: uint256): (code: uint8)</text>
<text text-anchor="start" x="538.04" y="-49.5" font-family="Times,serif" font-size="14.00"> &#160;&#160;&#160;validateTransfer(from: address, to: address, amount: uint256): bool</text>
</g>
<!-- 25&#45;&gt;10 -->
<g id="edge8" class="edge">
<title>25&#45;&gt;10</title>
<path fill="none" stroke="black" stroke-dasharray="5,2" d="M529.96,-302C510.3,-316.63 491.94,-332.8 476,-350.6 352.13,-488.93 295.22,-706.81 272.66,-821.2"/>
<polygon fill="black" stroke="black" points="269.18,-820.78 270.71,-831.26 276.05,-822.11 269.18,-820.78"/>
</g>
<!-- 25&#45;&gt;9 -->
<g id="edge7" class="edge">
<title>25&#45;&gt;9</title>
<path fill="none" stroke="black" stroke-dasharray="5,2" d="M688.02,-334.25C629.35,-431.96 557.34,-565.69 516,-693.2 462.69,-857.62 568.65,-942.97 461,-1078.2 458.54,-1081.29 455.95,-1084.25 453.23,-1087.09"/>
<polygon fill="none" stroke="black" points="446.26,-1079.24 430.23,-1106.68 459.88,-1095.22 446.26,-1079.24"/>
</g>
<!-- 25&#45;&gt;17 -->
<g id="edge4" class="edge">
<title>25&#45;&gt;17</title>
<path fill="none" stroke="black" d="M782,-334.19C782,-449.13 782,-609.65 782,-729.88"/>
<polygon fill="none" stroke="black" points="771.5,-729.92 782,-759.92 792.5,-729.92 771.5,-729.92"/>
</g>
<!-- 30 -->
<g id="node8" class="node">
<title>30</title>
<polygon fill="#f2f2f2" stroke="black" points="1140.04,-409.1 1140.04,-651.5 1521.96,-651.5 1521.96,-409.1 1140.04,-409.1"/>
<text text-anchor="middle" x="1331" y="-634.9" font-family="Times,serif" font-size="14.00">&lt;&lt;Abstract&gt;&gt;</text>
<text text-anchor="middle" x="1331" y="-618.1" font-family="Times,serif" font-size="14.00">EnforcementModule</text>
<text text-anchor="middle" x="1331" y="-601.3" font-family="Times,serif" font-size="14.00">contracts/modules/wrapper/core/EnforcementModule.sol</text>
<polyline fill="none" stroke="black" points="1140.04,-593.1 1521.96,-593.1 "/>
<text text-anchor="start" x="1148.04" y="-576.5" font-family="Times,serif" font-size="14.00">Private:</text>
<text text-anchor="start" x="1148.04" y="-559.7" font-family="Times,serif" font-size="14.00"> &#160;&#160;__gap: uint256[50]</text>
<text text-anchor="start" x="1148.04" y="-542.9" font-family="Times,serif" font-size="14.00">Internal:</text>
<text text-anchor="start" x="1148.04" y="-526.1" font-family="Times,serif" font-size="14.00"> &#160;&#160;TEXT_TRANSFER_REJECTED_FROM_FROZEN: string</text>
<text text-anchor="start" x="1148.04" y="-509.3" font-family="Times,serif" font-size="14.00"> &#160;&#160;TEXT_TRANSFER_REJECTED_TO_FROZEN: string</text>
<polyline fill="none" stroke="black" points="1140.04,-501.1 1521.96,-501.1 "/>
<text text-anchor="start" x="1148.04" y="-484.5" font-family="Times,serif" font-size="14.00">Internal:</text>
<text text-anchor="start" x="1148.04" y="-467.7" font-family="Times,serif" font-size="14.00"> &#160;&#160;&#160;__EnforcementModule_init_unchained() &lt;&lt;onlyInitializing&gt;&gt;</text>
<text text-anchor="start" x="1148.04" y="-450.9" font-family="Times,serif" font-size="14.00">Public:</text>
<text text-anchor="start" x="1148.04" y="-434.1" font-family="Times,serif" font-size="14.00"> &#160;&#160;&#160;freeze(account: address, reason: string): bool &lt;&lt;onlyRole&gt;&gt;</text>
<text text-anchor="start" x="1148.04" y="-417.3" font-family="Times,serif" font-size="14.00"> &#160;&#160;&#160;unfreeze(account: address, reason: string): bool &lt;&lt;onlyRole&gt;&gt;</text>
</g>
<!-- 25&#45;&gt;30 -->
<g id="edge6" class="edge">
<title>25&#45;&gt;30</title>
<path fill="none" stroke="black" d="M1016.42,-334.13C1048.96,-354.32 1082.27,-374.98 1114.46,-394.96"/>
<polygon fill="none" stroke="black" points="1108.97,-403.91 1140,-410.8 1120.05,-386.07 1108.97,-403.91"/>
</g>
<!-- 31 -->
<g id="node9" class="node">
<title>31</title>
<polygon fill="#f2f2f2" stroke="black" points="1540.43,-383.9 1540.43,-676.7 1881.57,-676.7 1881.57,-383.9 1540.43,-383.9"/>
<text text-anchor="middle" x="1711" y="-660.1" font-family="Times,serif" font-size="14.00">&lt;&lt;Abstract&gt;&gt;</text>
<text text-anchor="middle" x="1711" y="-643.3" font-family="Times,serif" font-size="14.00">PauseModule</text>
<text text-anchor="middle" x="1711" y="-626.5" font-family="Times,serif" font-size="14.00">contracts/modules/wrapper/core/PauseModule.sol</text>
<polyline fill="none" stroke="black" points="1540.43,-618.3 1881.57,-618.3 "/>
<text text-anchor="start" x="1548.43" y="-601.7" font-family="Times,serif" font-size="14.00">Private:</text>
<text text-anchor="start" x="1548.43" y="-584.9" font-family="Times,serif" font-size="14.00"> &#160;&#160;isDeactivated: bool</text>
<text text-anchor="start" x="1548.43" y="-568.1" font-family="Times,serif" font-size="14.00"> &#160;&#160;__gap: uint256[50]</text>
<text text-anchor="start" x="1548.43" y="-551.3" font-family="Times,serif" font-size="14.00">Internal:</text>
<text text-anchor="start" x="1548.43" y="-534.5" font-family="Times,serif" font-size="14.00"> &#160;&#160;TEXT_TRANSFER_REJECTED_PAUSED: string</text>
<polyline fill="none" stroke="black" points="1540.43,-526.3 1881.57,-526.3 "/>
<text text-anchor="start" x="1548.43" y="-509.7" font-family="Times,serif" font-size="14.00">Internal:</text>
<text text-anchor="start" x="1548.43" y="-492.9" font-family="Times,serif" font-size="14.00"> &#160;&#160;&#160;__PauseModule_init_unchained() &lt;&lt;onlyInitializing&gt;&gt;</text>
<text text-anchor="start" x="1548.43" y="-476.1" font-family="Times,serif" font-size="14.00">Public:</text>
<text text-anchor="start" x="1548.43" y="-459.3" font-family="Times,serif" font-size="14.00"> &#160;&#160;&#160;&lt;&lt;event&gt;&gt; Deactivated(account: address)</text>
<text text-anchor="start" x="1548.43" y="-442.5" font-family="Times,serif" font-size="14.00"> &#160;&#160;&#160;pause() &lt;&lt;onlyRole&gt;&gt;</text>
<text text-anchor="start" x="1548.43" y="-425.7" font-family="Times,serif" font-size="14.00"> &#160;&#160;&#160;unpause() &lt;&lt;onlyRole&gt;&gt;</text>
<text text-anchor="start" x="1548.43" y="-408.9" font-family="Times,serif" font-size="14.00"> &#160;&#160;&#160;deactivateContract() &lt;&lt;onlyRole&gt;&gt;</text>
<text text-anchor="start" x="1548.43" y="-392.1" font-family="Times,serif" font-size="14.00"> &#160;&#160;&#160;deactivated(): bool</text>
</g>
<!-- 25&#45;&gt;31 -->
<g id="edge5" class="edge">
<title>25&#45;&gt;31</title>
<path fill="none" stroke="black" d="M1034.22,-207.39C1185.66,-227.09 1377.98,-267.53 1531,-350.6 1539.56,-355.25 1547.99,-360.43 1556.24,-366.01"/>
<polygon fill="none" stroke="black" points="1550.05,-374.49 1580.42,-383.85 1562.52,-357.59 1550.05,-374.49"/>
</g>
<!-- 30&#45;&gt;16 -->
<g id="edge9" class="edge">
<title>30&#45;&gt;16</title>
<path fill="none" stroke="black" d="M1331,-651.58C1331,-676.64 1331,-703.48 1331,-729.88"/>
<polygon fill="none" stroke="black" points="1320.5,-729.95 1331,-759.95 1341.5,-729.95 1320.5,-729.95"/>
</g>
<!-- 30&#45;&gt;18 -->
<g id="edge10" class="edge">
<title>30&#45;&gt;18</title>
<path fill="none" stroke="black" d="M1467.18,-651.64C1487.53,-664.86 1509.07,-676.62 1531,-685.2 1567.99,-699.66 1582.91,-679 1620,-693.2 1634.05,-698.58 1648,-704.9 1661.74,-711.92"/>
<polygon fill="none" stroke="black" points="1656.93,-721.26 1688.28,-726.48 1667.03,-702.85 1656.93,-721.26"/>
</g>
<!-- 31&#45;&gt;18 -->
<g id="edge11" class="edge">
<title>31&#45;&gt;18</title>
<path fill="none" stroke="black" d="M1783.45,-676.92C1787.11,-684.28 1790.82,-691.72 1794.54,-699.2"/>
<polygon fill="none" stroke="black" points="1785.27,-704.14 1808.03,-726.32 1804.07,-694.79 1785.27,-704.14"/>
</g>
</g>
</svg>
