<?xml version="1.0" encoding="UTF-8" standalone="no"?>
<!DOCTYPE svg PUBLIC "-//W3C//DTD SVG 1.1//EN"
 "http://www.w3.org/Graphics/SVG/1.1/DTD/svg11.dtd">
<!-- Generated by graphviz version 5.0.0 (20220707.1540)
 -->
<!-- Title: UmlClassDiagram Pages: 1 -->
<svg width="803pt" height="864pt"
 viewBox="0.00 0.00 803.00 863.80" xmlns="http://www.w3.org/2000/svg" xmlns:xlink="http://www.w3.org/1999/xlink">
<g id="graph0" class="graph" transform="scale(1 1) rotate(0) translate(4 859.8)">
<title>UmlClassDiagram</title>
<polygon fill="white" stroke="transparent" points="-4,4 -4,-859.8 799,-859.8 799,4 -4,4"/>
<g id="clust1" class="cluster">
<title>cluster_0</title>
<polygon fill="white" stroke="black" points="27,-489 27,-847.8 261,-847.8 261,-489 27,-489"/>
<text text-anchor="middle" x="144" y="-497.2" font-family="Times,serif" font-size="14.00">contracts/interfaces</text>
</g>
<g id="clust2" class="cluster">
<title>cluster_1</title>
<polygon fill="white" stroke="black" points="301,-384.2 301,-752.4 787,-752.4 787,-384.2 301,-384.2"/>
<text text-anchor="middle" x="544" y="-392.4" font-family="Times,serif" font-size="14.00">contracts/modules/security</text>
</g>
<g id="clust3" class="cluster">
<title>cluster_2</title>
<polygon fill="white" stroke="black" points="8,-8 8,-376.2 554,-376.2 554,-8 8,-8"/>
<text text-anchor="middle" x="281" y="-16.2" font-family="Times,serif" font-size="14.00">contracts/modules/wrapper/optional/DebtModule</text>
</g>
<!-- 4 -->
<g id="node1" class="node">
<title>4</title>
<polygon fill="#f2f2f2" stroke="black" points="34.73,-522.3 34.73,-639.1 253.27,-639.1 253.27,-522.3 34.73,-522.3"/>
<text text-anchor="middle" x="144" y="-622.5" font-family="Times,serif" font-size="14.00">&lt;&lt;Struct&gt;&gt;</text>
<text text-anchor="middle" x="144" y="-605.7" font-family="Times,serif" font-size="14.00">CreditEvents</text>
<text text-anchor="middle" x="144" y="-588.9" font-family="Times,serif" font-size="14.00">contracts/interfaces/IDebtGlobal.sol</text>
<polyline fill="none" stroke="black" points="34.73,-580.7 253.27,-580.7 "/>
<text text-anchor="start" x="42.73" y="-564.1" font-family="Times,serif" font-size="14.00">flagDefault: bool</text>
<text text-anchor="start" x="42.73" y="-547.3" font-family="Times,serif" font-size="14.00">flagRedeemed: bool</text>
<text text-anchor="start" x="42.73" y="-530.5" font-family="Times,serif" font-size="14.00">rating: string</text>
</g>
<!-- 2 -->
<g id="node2" class="node">
<title>2</title>
<polygon fill="#f2f2f2" stroke="black" points="34.73,-780.9 34.73,-839.3 253.27,-839.3 253.27,-780.9 34.73,-780.9"/>
<text text-anchor="middle" x="144" y="-822.7" font-family="Times,serif" font-size="14.00">&lt;&lt;Interface&gt;&gt;</text>
<text text-anchor="middle" x="144" y="-805.9" font-family="Times,serif" font-size="14.00">IDebtGlobal</text>
<text text-anchor="middle" x="144" y="-789.1" font-family="Times,serif" font-size="14.00">contracts/interfaces/IDebtGlobal.sol</text>
</g>
<!-- 4&#45;&gt;2 -->
<g id="edge1" class="edge">
<title>4&#45;&gt;2</title>
<path fill="none" stroke="black" d="M144,-639.38C144,-679.69 144,-732.53 144,-768.47"/>
<polygon fill="black" stroke="black" points="144,-768.89 148,-774.89 144,-780.89 140,-774.89 144,-768.89"/>
</g>
<!-- 19 -->
<g id="node3" class="node">
<title>19</title>
<polygon fill="#f2f2f2" stroke="black" points="308.7,-417.5 308.7,-743.9 779.3,-743.9 779.3,-417.5 308.7,-417.5"/>
<text text-anchor="middle" x="544" y="-727.3" font-family="Times,serif" font-size="14.00">&lt;&lt;Abstract&gt;&gt;</text>
<text text-anchor="middle" x="544" y="-710.5" font-family="Times,serif" font-size="14.00">AuthorizationModule</text>
<text text-anchor="middle" x="544" y="-693.7" font-family="Times,serif" font-size="14.00">contracts/modules/security/AuthorizationModule.sol</text>
<polyline fill="none" stroke="black" points="308.7,-685.5 779.3,-685.5 "/>
<text text-anchor="start" x="316.7" y="-668.9" font-family="Times,serif" font-size="14.00">Private:</text>
<text text-anchor="start" x="316.7" y="-652.1" font-family="Times,serif" font-size="14.00"> &#160;&#160;__gap: uint256[50]</text>
<text text-anchor="start" x="316.7" y="-635.3" font-family="Times,serif" font-size="14.00">Public:</text>
<text text-anchor="start" x="316.7" y="-618.5" font-family="Times,serif" font-size="14.00"> &#160;&#160;BURNER_ROLE: bytes32</text>
<text text-anchor="start" x="316.7" y="-601.7" font-family="Times,serif" font-size="14.00"> &#160;&#160;ENFORCER_ROLE: bytes32</text>
<text text-anchor="start" x="316.7" y="-584.9" font-family="Times,serif" font-size="14.00"> &#160;&#160;MINTER_ROLE: bytes32</text>
<text text-anchor="start" x="316.7" y="-568.1" font-family="Times,serif" font-size="14.00"> &#160;&#160;PAUSER_ROLE: bytes32</text>
<text text-anchor="start" x="316.7" y="-551.3" font-family="Times,serif" font-size="14.00"> &#160;&#160;SNAPSHOOTER_ROLE: bytes32</text>
<text text-anchor="start" x="316.7" y="-534.5" font-family="Times,serif" font-size="14.00"> &#160;&#160;DEBT_ROLE: bytes32</text>
<text text-anchor="start" x="316.7" y="-517.7" font-family="Times,serif" font-size="14.00"> &#160;&#160;DEBT_CREDIT_EVENT_ROLE: bytes32</text>
<polyline fill="none" stroke="black" points="308.7,-509.5 779.3,-509.5 "/>
<text text-anchor="start" x="316.7" y="-492.9" font-family="Times,serif" font-size="14.00">Internal:</text>
<text text-anchor="start" x="316.7" y="-476.1" font-family="Times,serif" font-size="14.00"> &#160;&#160;&#160;__AuthorizationModule_init(admin: address) &lt;&lt;onlyInitializing&gt;&gt;</text>
<text text-anchor="start" x="316.7" y="-459.3" font-family="Times,serif" font-size="14.00"> &#160;&#160;&#160;__AuthorizationModule_init_unchained(admin: address) &lt;&lt;onlyInitializing&gt;&gt;</text>
<text text-anchor="start" x="316.7" y="-442.5" font-family="Times,serif" font-size="14.00">Public:</text>
<text text-anchor="start" x="316.7" y="-425.7" font-family="Times,serif" font-size="14.00"> &#160;&#160;&#160;hasRole(role: bytes32, account: address): bool</text>
</g>
<!-- 35 -->
<g id="node4" class="node">
<title>35</title>
<polygon fill="#f2f2f2" stroke="black" points="15.76,-41.3 15.76,-367.7 546.24,-367.7 546.24,-41.3 15.76,-41.3"/>
<text text-anchor="middle" x="281" y="-351.1" font-family="Times,serif" font-size="14.00">&lt;&lt;Abstract&gt;&gt;</text>
<text text-anchor="middle" x="281" y="-334.3" font-family="Times,serif" font-size="14.00">CreditEventsModule</text>
<text text-anchor="middle" x="281" y="-317.5" font-family="Times,serif" font-size="14.00">contracts/modules/wrapper/optional/DebtModule/CreditEventsModule.sol</text>
<polyline fill="none" stroke="black" points="15.76,-309.3 546.24,-309.3 "/>
<text text-anchor="start" x="23.76" y="-292.7" font-family="Times,serif" font-size="14.00">Private:</text>
<text text-anchor="start" x="23.76" y="-275.9" font-family="Times,serif" font-size="14.00"> &#160;&#160;__gap: uint256[50]</text>
<text text-anchor="start" x="23.76" y="-259.1" font-family="Times,serif" font-size="14.00">Public:</text>
<text text-anchor="start" x="23.76" y="-242.3" font-family="Times,serif" font-size="14.00"> &#160;&#160;creditEvents: CreditEvents</text>
<polyline fill="none" stroke="black" points="15.76,-234.1 546.24,-234.1 "/>
<text text-anchor="start" x="23.76" y="-217.5" font-family="Times,serif" font-size="14.00">Internal:</text>
<text text-anchor="start" x="23.76" y="-200.7" font-family="Times,serif" font-size="14.00"> &#160;&#160;&#160;__CreditEvents_init(admin: address) &lt;&lt;onlyInitializing&gt;&gt;</text>
<text text-anchor="start" x="23.76" y="-183.9" font-family="Times,serif" font-size="14.00"> &#160;&#160;&#160;__CreditEvents_init_unchained() &lt;&lt;onlyInitializing&gt;&gt;</text>
<text text-anchor="start" x="23.76" y="-167.1" font-family="Times,serif" font-size="14.00">Public:</text>
<text text-anchor="start" x="23.76" y="-150.3" font-family="Times,serif" font-size="14.00"> &#160;&#160;&#160;&lt;&lt;event&gt;&gt; FlagDefault(newFlagDefault: bool)</text>
<text text-anchor="start" x="23.76" y="-133.5" font-family="Times,serif" font-size="14.00"> &#160;&#160;&#160;&lt;&lt;event&gt;&gt; FlagRedeemed(newFlagRedeemed: bool)</text>
<text text-anchor="start" x="23.76" y="-116.7" font-family="Times,serif" font-size="14.00"> &#160;&#160;&#160;&lt;&lt;event&gt;&gt; Rating(newRatingIndexed: string, newRating: string)</text>
<text text-anchor="start" x="23.76" y="-99.9" font-family="Times,serif" font-size="14.00"> &#160;&#160;&#160;setCreditEvents(flagDefault_: bool, flagRedeemed_: bool, rating_: string) &lt;&lt;onlyRole&gt;&gt;</text>
<text text-anchor="start" x="23.76" y="-83.1" font-family="Times,serif" font-size="14.00"> &#160;&#160;&#160;setFlagDefault(flagDefault_: bool) &lt;&lt;onlyRole&gt;&gt;</text>
<text text-anchor="start" x="23.76" y="-66.3" font-family="Times,serif" font-size="14.00"> &#160;&#160;&#160;setFlagRedeemed(flagRedeemed_: bool) &lt;&lt;onlyRole&gt;&gt;</text>
<text text-anchor="start" x="23.76" y="-49.5" font-family="Times,serif" font-size="14.00"> &#160;&#160;&#160;setRating(rating_: string) &lt;&lt;onlyRole&gt;&gt;</text>
</g>
<!-- 35&#45;&gt;4 -->
<g id="edge4" class="edge">
<title>35&#45;&gt;4</title>
<path fill="none" stroke="black" d="M221.61,-367.73C202.94,-418.71 183.36,-472.2 168.53,-512.69"/>
<polygon fill="black" stroke="black" points="165.21,-511.58 165.06,-522.17 171.79,-513.98 165.21,-511.58"/>
</g>
<!-- 35&#45;&gt;2 -->
<g id="edge2" class="edge">
<title>35&#45;&gt;2</title>
<path fill="none" stroke="black" stroke-dasharray="5,2" d="M283.78,-367.94C284.98,-517.47 282.66,-720.79 262,-752.4 259.99,-755.48 257.75,-758.4 255.34,-761.17"/>
<polygon fill="none" stroke="black" points="248.2,-753.45 231.89,-780.73 261.66,-769.57 248.2,-753.45"/>
</g>
<!-- 35&#45;&gt;19 -->
<g id="edge3" class="edge">
<title>35&#45;&gt;19</title>
<path fill="none" stroke="black" d="M395.02,-367.73C400.81,-375.97 406.65,-384.27 412.48,-392.58"/>
<polygon fill="none" stroke="black" points="404.11,-398.93 429.95,-417.43 421.29,-386.85 404.11,-398.93"/>
</g>
</g>
</svg>
