<?xml version="1.0" encoding="UTF-8" standalone="no"?>
<!DOCTYPE svg PUBLIC "-//W3C//DTD SVG 1.1//EN"
 "http://www.w3.org/Graphics/SVG/1.1/DTD/svg11.dtd">
<!-- Generated by graphviz version 5.0.0 (20220707.1540)
 -->
<!-- Title: UmlClassDiagram Pages: 1 -->
<svg width="2120pt" height="1351pt"
 viewBox="0.00 0.00 2120.00 1351.40" xmlns="http://www.w3.org/2000/svg" xmlns:xlink="http://www.w3.org/1999/xlink">
<g id="graph0" class="graph" transform="scale(1 1) rotate(0) translate(4 1347.4)">
<title>UmlClassDiagram</title>
<polygon fill="white" stroke="transparent" points="-4,4 -4,-1347.4 2116,-1347.4 2116,4 -4,4"/>
<g id="clust1" class="cluster">
<title>cluster_0</title>
<polygon fill="white" stroke="black" points="8,-772.8 8,-1335.4 512,-1335.4 512,-772.8 8,-772.8"/>
<text text-anchor="middle" x="260" y="-781" font-family="Times,serif" font-size="14.00">contracts/interfaces</text>
</g>
<g id="clust2" class="cluster">
<title>cluster_1</title>
<polygon fill="white" stroke="black" points="520,-701.6 520,-1019.4 1610,-1019.4 1610,-701.6 520,-701.6"/>
<text text-anchor="middle" x="1065" y="-709.8" font-family="Times,serif" font-size="14.00">contracts/modules/internal</text>
</g>
<g id="clust3" class="cluster">
<title>cluster_2</title>
<polygon fill="white" stroke="black" points="1618,-676.4 1618,-1044.6 2104,-1044.6 2104,-676.4 1618,-676.4"/>
<text text-anchor="middle" x="1861" y="-684.6" font-family="Times,serif" font-size="14.00">contracts/modules/security</text>
</g>
<g id="clust4" class="cluster">
<title>cluster_3</title>
<polygon fill="white" stroke="black" points="1117,-367.4 1117,-668.4 1912,-668.4 1912,-367.4 1117,-367.4"/>
<text text-anchor="middle" x="1514.5" y="-375.6" font-family="Times,serif" font-size="14.00">contracts/modules/wrapper/mandatory</text>
</g>
<g id="clust5" class="cluster">
<title>cluster_4</title>
<polygon fill="white" stroke="black" points="485,-8 485,-359.4 1073,-359.4 1073,-8 485,-8"/>
<text text-anchor="middle" x="779" y="-16.2" font-family="Times,serif" font-size="14.00">contracts/modules/wrapper/optional</text>
</g>
<!-- 5 -->
<g id="node1" class="node">
<title>5</title>
<polygon fill="#f2f2f2" stroke="black" points="17.36,-1210.1 17.36,-1326.9 502.64,-1326.9 502.64,-1210.1 17.36,-1210.1"/>
<text text-anchor="middle" x="260" y="-1310.3" font-family="Times,serif" font-size="14.00">&lt;&lt;Interface&gt;&gt;</text>
<text text-anchor="middle" x="260" y="-1293.5" font-family="Times,serif" font-size="14.00">IEIP1404</text>
<text text-anchor="middle" x="260" y="-1276.7" font-family="Times,serif" font-size="14.00">contracts/interfaces/IEIP1404.sol</text>
<polyline fill="none" stroke="black" points="17.36,-1268.5 502.64,-1268.5 "/>
<text text-anchor="start" x="25.36" y="-1251.9" font-family="Times,serif" font-size="14.00">External:</text>
<text text-anchor="start" x="25.36" y="-1235.1" font-family="Times,serif" font-size="14.00"> &#160;&#160;&#160;&#160;detectTransferRestriction(_from: address, _to: address, _amount: uint256): uint8</text>
<text text-anchor="start" x="25.36" y="-1218.3" font-family="Times,serif" font-size="14.00"> &#160;&#160;&#160;&#160;messageForTransferRestriction(_restrictionCode: uint8): string</text>
</g>
<!-- 7 -->
<g id="node2" class="node">
<title>7</title>
<polygon fill="#f2f2f2" stroke="black" points="117.23,-806.1 117.23,-939.7 402.77,-939.7 402.77,-806.1 117.23,-806.1"/>
<text text-anchor="middle" x="260" y="-923.1" font-family="Times,serif" font-size="14.00">&lt;&lt;Enum&gt;&gt;</text>
<text text-anchor="middle" x="260" y="-906.3" font-family="Times,serif" font-size="14.00">REJECTED_CODE_BASE</text>
<text text-anchor="middle" x="260" y="-889.5" font-family="Times,serif" font-size="14.00">contracts/interfaces/IEIP1404Wrapper.sol</text>
<polyline fill="none" stroke="black" points="117.23,-881.3 402.77,-881.3 "/>
<text text-anchor="start" x="125.23" y="-864.7" font-family="Times,serif" font-size="14.00">TRANSFER_OK: 0</text>
<text text-anchor="start" x="125.23" y="-847.9" font-family="Times,serif" font-size="14.00">TRANSFER_REJECTED_PAUSED: 1</text>
<text text-anchor="start" x="125.23" y="-831.1" font-family="Times,serif" font-size="14.00">TRANSFER_REJECTED_FROM_FROZEN: 2</text>
<text text-anchor="start" x="125.23" y="-814.3" font-family="Times,serif" font-size="14.00">TRANSFER_REJECTED_TO_FROZEN: 3</text>
</g>
<!-- 6 -->
<g id="node3" class="node">
<title>6</title>
<polygon fill="#f2f2f2" stroke="black" points="16,-1073.1 16,-1173.1 504,-1173.1 504,-1073.1 16,-1073.1"/>
<text text-anchor="middle" x="260" y="-1156.5" font-family="Times,serif" font-size="14.00">&lt;&lt;Interface&gt;&gt;</text>
<text text-anchor="middle" x="260" y="-1139.7" font-family="Times,serif" font-size="14.00">IEIP1404Wrapper</text>
<text text-anchor="middle" x="260" y="-1122.9" font-family="Times,serif" font-size="14.00">contracts/interfaces/IEIP1404Wrapper.sol</text>
<polyline fill="none" stroke="black" points="16,-1114.7 504,-1114.7 "/>
<text text-anchor="start" x="24" y="-1098.1" font-family="Times,serif" font-size="14.00">External:</text>
<text text-anchor="start" x="24" y="-1081.3" font-family="Times,serif" font-size="14.00"> &#160;&#160;&#160;&#160;validateTransfer(_from: address, _to: address, _amount: uint256): (isValid: bool)</text>
</g>
<!-- 7&#45;&gt;6 -->
<g id="edge1" class="edge">
<title>7&#45;&gt;6</title>
<path fill="none" stroke="black" d="M260,-939.76C260,-977.31 260,-1024.05 260,-1060.81"/>
<polygon fill="black" stroke="black" points="260,-1060.87 264,-1066.87 260,-1072.87 256,-1066.87 260,-1060.87"/>
</g>
<!-- 6&#45;&gt;5 -->
<g id="edge2" class="edge">
<title>6&#45;&gt;5</title>
<path fill="none" stroke="black" stroke-dasharray="5,2" d="M260,-1173.45C260,-1175.46 260,-1177.49 260,-1179.54"/>
<polygon fill="none" stroke="black" points="249.5,-1179.66 260,-1209.66 270.5,-1179.66 249.5,-1179.66"/>
</g>
<!-- 15 -->
<g id="node4" class="node">
<title>15</title>
<polygon fill="#f2f2f2" stroke="black" points="1047.95,-734.9 1047.95,-1010.9 1602.05,-1010.9 1602.05,-734.9 1047.95,-734.9"/>
<text text-anchor="middle" x="1325" y="-994.3" font-family="Times,serif" font-size="14.00">&lt;&lt;Abstract&gt;&gt;</text>
<text text-anchor="middle" x="1325" y="-977.5" font-family="Times,serif" font-size="14.00">EnforcementModuleInternal</text>
<text text-anchor="middle" x="1325" y="-960.7" font-family="Times,serif" font-size="14.00">contracts/modules/internal/EnforcementModuleInternal.sol</text>
<polyline fill="none" stroke="black" points="1047.95,-952.5 1602.05,-952.5 "/>
<text text-anchor="start" x="1055.95" y="-935.9" font-family="Times,serif" font-size="14.00">Private:</text>
<text text-anchor="start" x="1055.95" y="-919.1" font-family="Times,serif" font-size="14.00"> &#160;&#160;_frozen: mapping(address=&gt;bool)</text>
<text text-anchor="start" x="1055.95" y="-902.3" font-family="Times,serif" font-size="14.00"> &#160;&#160;__gap: uint256[50]</text>
<polyline fill="none" stroke="black" points="1047.95,-894.1 1602.05,-894.1 "/>
<text text-anchor="start" x="1055.95" y="-877.5" font-family="Times,serif" font-size="14.00">Internal:</text>
<text text-anchor="start" x="1055.95" y="-860.7" font-family="Times,serif" font-size="14.00"> &#160;&#160;&#160;__Enforcement_init() &lt;&lt;onlyInitializing&gt;&gt;</text>
<text text-anchor="start" x="1055.95" y="-843.9" font-family="Times,serif" font-size="14.00"> &#160;&#160;&#160;__Enforcement_init_unchained() &lt;&lt;onlyInitializing&gt;&gt;</text>
<text text-anchor="start" x="1055.95" y="-827.1" font-family="Times,serif" font-size="14.00"> &#160;&#160;&#160;_freeze(account: address, reason: string): bool</text>
<text text-anchor="start" x="1055.95" y="-810.3" font-family="Times,serif" font-size="14.00"> &#160;&#160;&#160;_unfreeze(account: address, reason: string): bool</text>
<text text-anchor="start" x="1055.95" y="-793.5" font-family="Times,serif" font-size="14.00">Public:</text>
<text text-anchor="start" x="1055.95" y="-776.7" font-family="Times,serif" font-size="14.00"> &#160;&#160;&#160;&lt;&lt;event&gt;&gt; Freeze(enforcer: address, owner: address, reasonIndexed: string, reason: string)</text>
<text text-anchor="start" x="1055.95" y="-759.9" font-family="Times,serif" font-size="14.00"> &#160;&#160;&#160;&lt;&lt;event&gt;&gt; Unfreeze(enforcer: address, owner: address, reasonIndexed: string, reason: string)</text>
<text text-anchor="start" x="1055.95" y="-743.1" font-family="Times,serif" font-size="14.00"> &#160;&#160;&#160;frozen(account: address): bool</text>
</g>
<!-- 18 -->
<g id="node5" class="node">
<title>18</title>
<polygon fill="#f2f2f2" stroke="black" points="527.77,-734.9 527.77,-1010.9 1030.23,-1010.9 1030.23,-734.9 527.77,-734.9"/>
<text text-anchor="middle" x="779" y="-994.3" font-family="Times,serif" font-size="14.00">&lt;&lt;Abstract&gt;&gt;</text>
<text text-anchor="middle" x="779" y="-977.5" font-family="Times,serif" font-size="14.00">ValidationModuleInternal</text>
<text text-anchor="middle" x="779" y="-960.7" font-family="Times,serif" font-size="14.00">contracts/modules/internal/ValidationModuleInternal.sol</text>
<polyline fill="none" stroke="black" points="527.77,-952.5 1030.23,-952.5 "/>
<text text-anchor="start" x="535.77" y="-935.9" font-family="Times,serif" font-size="14.00">Private:</text>
<text text-anchor="start" x="535.77" y="-919.1" font-family="Times,serif" font-size="14.00"> &#160;&#160;__gap: uint256[50]</text>
<text text-anchor="start" x="535.77" y="-902.3" font-family="Times,serif" font-size="14.00">Public:</text>
<text text-anchor="start" x="535.77" y="-885.5" font-family="Times,serif" font-size="14.00"> &#160;&#160;ruleEngine: IEIP1404Wrapper</text>
<polyline fill="none" stroke="black" points="527.77,-877.3 1030.23,-877.3 "/>
<text text-anchor="start" x="535.77" y="-860.7" font-family="Times,serif" font-size="14.00">Internal:</text>
<text text-anchor="start" x="535.77" y="-843.9" font-family="Times,serif" font-size="14.00"> &#160;&#160;&#160;__Validation_init(ruleEngine_: IEIP1404Wrapper) &lt;&lt;onlyInitializing&gt;&gt;</text>
<text text-anchor="start" x="535.77" y="-827.1" font-family="Times,serif" font-size="14.00"> &#160;&#160;&#160;__Validation_init_unchained(ruleEngine_: IEIP1404Wrapper) &lt;&lt;onlyInitializing&gt;&gt;</text>
<text text-anchor="start" x="535.77" y="-810.3" font-family="Times,serif" font-size="14.00"> &#160;&#160;&#160;_validateTransfer(from: address, to: address, amount: uint256): bool</text>
<text text-anchor="start" x="535.77" y="-793.5" font-family="Times,serif" font-size="14.00"> &#160;&#160;&#160;_messageForTransferRestriction(restrictionCode: uint8): string</text>
<text text-anchor="start" x="535.77" y="-776.7" font-family="Times,serif" font-size="14.00"> &#160;&#160;&#160;_detectTransferRestriction(from: address, to: address, amount: uint256): uint8</text>
<text text-anchor="start" x="535.77" y="-759.9" font-family="Times,serif" font-size="14.00">Public:</text>
<text text-anchor="start" x="535.77" y="-743.1" font-family="Times,serif" font-size="14.00"> &#160;&#160;&#160;&lt;&lt;event&gt;&gt; RuleEngine(newRuleEngine: IEIP1404Wrapper)</text>
</g>
<!-- 18&#45;&gt;6 -->
<g id="edge3" class="edge">
<title>18&#45;&gt;6</title>
<path fill="none" stroke="black" d="M580.22,-1011.08C559,-1023.24 537.35,-1034.68 516,-1044.6 496.46,-1053.68 475.6,-1062.01 454.53,-1069.57"/>
<polygon fill="black" stroke="black" points="453.1,-1066.36 444.84,-1072.98 455.43,-1072.96 453.1,-1066.36"/>
</g>
<!-- 19 -->
<g id="node6" class="node">
<title>19</title>
<polygon fill="#f2f2f2" stroke="black" points="1625.7,-709.7 1625.7,-1036.1 2096.3,-1036.1 2096.3,-709.7 1625.7,-709.7"/>
<text text-anchor="middle" x="1861" y="-1019.5" font-family="Times,serif" font-size="14.00">&lt;&lt;Abstract&gt;&gt;</text>
<text text-anchor="middle" x="1861" y="-1002.7" font-family="Times,serif" font-size="14.00">AuthorizationModule</text>
<text text-anchor="middle" x="1861" y="-985.9" font-family="Times,serif" font-size="14.00">contracts/modules/security/AuthorizationModule.sol</text>
<polyline fill="none" stroke="black" points="1625.7,-977.7 2096.3,-977.7 "/>
<text text-anchor="start" x="1633.7" y="-961.1" font-family="Times,serif" font-size="14.00">Private:</text>
<text text-anchor="start" x="1633.7" y="-944.3" font-family="Times,serif" font-size="14.00"> &#160;&#160;__gap: uint256[50]</text>
<text text-anchor="start" x="1633.7" y="-927.5" font-family="Times,serif" font-size="14.00">Public:</text>
<text text-anchor="start" x="1633.7" y="-910.7" font-family="Times,serif" font-size="14.00"> &#160;&#160;BURNER_ROLE: bytes32</text>
<text text-anchor="start" x="1633.7" y="-893.9" font-family="Times,serif" font-size="14.00"> &#160;&#160;ENFORCER_ROLE: bytes32</text>
<text text-anchor="start" x="1633.7" y="-877.1" font-family="Times,serif" font-size="14.00"> &#160;&#160;MINTER_ROLE: bytes32</text>
<text text-anchor="start" x="1633.7" y="-860.3" font-family="Times,serif" font-size="14.00"> &#160;&#160;PAUSER_ROLE: bytes32</text>
<text text-anchor="start" x="1633.7" y="-843.5" font-family="Times,serif" font-size="14.00"> &#160;&#160;SNAPSHOOTER_ROLE: bytes32</text>
<text text-anchor="start" x="1633.7" y="-826.7" font-family="Times,serif" font-size="14.00"> &#160;&#160;DEBT_ROLE: bytes32</text>
<text text-anchor="start" x="1633.7" y="-809.9" font-family="Times,serif" font-size="14.00"> &#160;&#160;DEBT_CREDIT_EVENT_ROLE: bytes32</text>
<polyline fill="none" stroke="black" points="1625.7,-801.7 2096.3,-801.7 "/>
<text text-anchor="start" x="1633.7" y="-785.1" font-family="Times,serif" font-size="14.00">Internal:</text>
<text text-anchor="start" x="1633.7" y="-768.3" font-family="Times,serif" font-size="14.00"> &#160;&#160;&#160;__AuthorizationModule_init(admin: address) &lt;&lt;onlyInitializing&gt;&gt;</text>
<text text-anchor="start" x="1633.7" y="-751.5" font-family="Times,serif" font-size="14.00"> &#160;&#160;&#160;__AuthorizationModule_init_unchained(admin: address) &lt;&lt;onlyInitializing&gt;&gt;</text>
<text text-anchor="start" x="1633.7" y="-734.7" font-family="Times,serif" font-size="14.00">Public:</text>
<text text-anchor="start" x="1633.7" y="-717.9" font-family="Times,serif" font-size="14.00"> &#160;&#160;&#160;hasRole(role: bytes32, account: address): bool</text>
</g>
<!-- 26 -->
<g id="node7" class="node">
<title>26</title>
<polygon fill="#f2f2f2" stroke="black" points="1124.69,-400.7 1124.69,-659.9 1525.31,-659.9 1525.31,-400.7 1124.69,-400.7"/>
<text text-anchor="middle" x="1325" y="-643.3" font-family="Times,serif" font-size="14.00">&lt;&lt;Abstract&gt;&gt;</text>
<text text-anchor="middle" x="1325" y="-626.5" font-family="Times,serif" font-size="14.00">EnforcementModule</text>
<text text-anchor="middle" x="1325" y="-609.7" font-family="Times,serif" font-size="14.00">contracts/modules/wrapper/mandatory/EnforcementModule.sol</text>
<polyline fill="none" stroke="black" points="1124.69,-601.5 1525.31,-601.5 "/>
<text text-anchor="start" x="1132.69" y="-584.9" font-family="Times,serif" font-size="14.00">Private:</text>
<text text-anchor="start" x="1132.69" y="-568.1" font-family="Times,serif" font-size="14.00"> &#160;&#160;__gap: uint256[50]</text>
<text text-anchor="start" x="1132.69" y="-551.3" font-family="Times,serif" font-size="14.00">Internal:</text>
<text text-anchor="start" x="1132.69" y="-534.5" font-family="Times,serif" font-size="14.00"> &#160;&#160;TEXT_TRANSFER_REJECTED_FROM_FROZEN: string</text>
<text text-anchor="start" x="1132.69" y="-517.7" font-family="Times,serif" font-size="14.00"> &#160;&#160;TEXT_TRANSFER_REJECTED_TO_FROZEN: string</text>
<polyline fill="none" stroke="black" points="1124.69,-509.5 1525.31,-509.5 "/>
<text text-anchor="start" x="1132.69" y="-492.9" font-family="Times,serif" font-size="14.00">Internal:</text>
<text text-anchor="start" x="1132.69" y="-476.1" font-family="Times,serif" font-size="14.00"> &#160;&#160;&#160;__EnforcementModule_init(admin: address) &lt;&lt;onlyInitializing&gt;&gt;</text>
<text text-anchor="start" x="1132.69" y="-459.3" font-family="Times,serif" font-size="14.00"> &#160;&#160;&#160;__EnforcementModule_init_unchained() &lt;&lt;onlyInitializing&gt;&gt;</text>
<text text-anchor="start" x="1132.69" y="-442.5" font-family="Times,serif" font-size="14.00">Public:</text>
<text text-anchor="start" x="1132.69" y="-425.7" font-family="Times,serif" font-size="14.00"> &#160;&#160;&#160;freeze(account: address, reason: string): bool &lt;&lt;onlyRole&gt;&gt;</text>
<text text-anchor="start" x="1132.69" y="-408.9" font-family="Times,serif" font-size="14.00"> &#160;&#160;&#160;unfreeze(account: address, reason: string): bool &lt;&lt;onlyRole&gt;&gt;</text>
</g>
<!-- 26&#45;&gt;15 -->
<g id="edge4" class="edge">
<title>26&#45;&gt;15</title>
<path fill="none" stroke="black" d="M1325,-660.07C1325,-674.65 1325,-689.66 1325,-704.64"/>
<polygon fill="none" stroke="black" points="1314.5,-704.71 1325,-734.71 1335.5,-704.71 1314.5,-704.71"/>
</g>
<!-- 26&#45;&gt;19 -->
<g id="edge5" class="edge">
<title>26&#45;&gt;19</title>
<path fill="none" stroke="black" d="M1513.48,-659.96C1520.63,-663.03 1527.82,-665.86 1535,-668.4 1568.27,-680.16 1581.3,-663.14 1614,-676.4 1626.84,-681.61 1639.56,-687.7 1652.06,-694.45"/>
<polygon fill="none" stroke="black" points="1646.98,-703.64 1678.18,-709.67 1657.55,-685.5 1646.98,-703.64"/>
</g>
<!-- 28 -->
<g id="node8" class="node">
<title>28</title>
<polygon fill="#f2f2f2" stroke="black" points="1543.51,-409.1 1543.51,-651.5 1904.49,-651.5 1904.49,-409.1 1543.51,-409.1"/>
<text text-anchor="middle" x="1724" y="-634.9" font-family="Times,serif" font-size="14.00">&lt;&lt;Abstract&gt;&gt;</text>
<text text-anchor="middle" x="1724" y="-618.1" font-family="Times,serif" font-size="14.00">PauseModule</text>
<text text-anchor="middle" x="1724" y="-601.3" font-family="Times,serif" font-size="14.00">contracts/modules/wrapper/mandatory/PauseModule.sol</text>
<polyline fill="none" stroke="black" points="1543.51,-593.1 1904.49,-593.1 "/>
<text text-anchor="start" x="1551.51" y="-576.5" font-family="Times,serif" font-size="14.00">Private:</text>
<text text-anchor="start" x="1551.51" y="-559.7" font-family="Times,serif" font-size="14.00"> &#160;&#160;__gap: uint256[50]</text>
<text text-anchor="start" x="1551.51" y="-542.9" font-family="Times,serif" font-size="14.00">Internal:</text>
<text text-anchor="start" x="1551.51" y="-526.1" font-family="Times,serif" font-size="14.00"> &#160;&#160;TEXT_TRANSFER_REJECTED_PAUSED: string</text>
<polyline fill="none" stroke="black" points="1543.51,-517.9 1904.49,-517.9 "/>
<text text-anchor="start" x="1551.51" y="-501.3" font-family="Times,serif" font-size="14.00">Internal:</text>
<text text-anchor="start" x="1551.51" y="-484.5" font-family="Times,serif" font-size="14.00"> &#160;&#160;&#160;__PauseModule_init(admin: address) &lt;&lt;onlyInitializing&gt;&gt;</text>
<text text-anchor="start" x="1551.51" y="-467.7" font-family="Times,serif" font-size="14.00"> &#160;&#160;&#160;__PauseModule_init_unchained() &lt;&lt;onlyInitializing&gt;&gt;</text>
<text text-anchor="start" x="1551.51" y="-450.9" font-family="Times,serif" font-size="14.00">Public:</text>
<text text-anchor="start" x="1551.51" y="-434.1" font-family="Times,serif" font-size="14.00"> &#160;&#160;&#160;pause() &lt;&lt;onlyRole&gt;&gt;</text>
<text text-anchor="start" x="1551.51" y="-417.3" font-family="Times,serif" font-size="14.00"> &#160;&#160;&#160;unpause() &lt;&lt;onlyRole&gt;&gt;</text>
</g>
<!-- 28&#45;&gt;19 -->
<g id="edge6" class="edge">
<title>28&#45;&gt;19</title>
<path fill="none" stroke="black" d="M1772.49,-651.86C1776.36,-661.48 1780.33,-671.34 1784.33,-681.28"/>
<polygon fill="none" stroke="black" points="1774.72,-685.53 1795.66,-709.45 1794.2,-677.7 1774.72,-685.53"/>
</g>
<!-- 31 -->
<g id="node9" class="node">
<title>31</title>
<polygon fill="#f2f2f2" stroke="black" points="492.58,-41.3 492.58,-350.9 1065.42,-350.9 1065.42,-41.3 492.58,-41.3"/>
<text text-anchor="middle" x="779" y="-334.3" font-family="Times,serif" font-size="14.00">&lt;&lt;Abstract&gt;&gt;</text>
<text text-anchor="middle" x="779" y="-317.5" font-family="Times,serif" font-size="14.00">ValidationModule</text>
<text text-anchor="middle" x="779" y="-300.7" font-family="Times,serif" font-size="14.00">contracts/modules/wrapper/optional/ValidationModule.sol</text>
<polyline fill="none" stroke="black" points="492.58,-292.5 1065.42,-292.5 "/>
<text text-anchor="start" x="500.58" y="-275.9" font-family="Times,serif" font-size="14.00">Private:</text>
<text text-anchor="start" x="500.58" y="-259.1" font-family="Times,serif" font-size="14.00"> &#160;&#160;__gap: uint256[50]</text>
<text text-anchor="start" x="500.58" y="-242.3" font-family="Times,serif" font-size="14.00">Public:</text>
<text text-anchor="start" x="500.58" y="-225.5" font-family="Times,serif" font-size="14.00"> &#160;&#160;TEXT_TRANSFER_OK: string</text>
<text text-anchor="start" x="500.58" y="-208.7" font-family="Times,serif" font-size="14.00"> &#160;&#160;TEXT_UNKNOWN_CODE: string</text>
<polyline fill="none" stroke="black" points="492.58,-200.5 1065.42,-200.5 "/>
<text text-anchor="start" x="500.58" y="-183.9" font-family="Times,serif" font-size="14.00">Internal:</text>
<text text-anchor="start" x="500.58" y="-167.1" font-family="Times,serif" font-size="14.00"> &#160;&#160;&#160;__ValidationModule_init(ruleEngine_: IEIP1404Wrapper, admin: address) &lt;&lt;onlyInitializing&gt;&gt;</text>
<text text-anchor="start" x="500.58" y="-150.3" font-family="Times,serif" font-size="14.00"> &#160;&#160;&#160;__ValidationModule_init_unchained() &lt;&lt;onlyInitializing&gt;&gt;</text>
<text text-anchor="start" x="500.58" y="-133.5" font-family="Times,serif" font-size="14.00">External:</text>
<text text-anchor="start" x="500.58" y="-116.7" font-family="Times,serif" font-size="14.00"> &#160;&#160;&#160;setRuleEngine(ruleEngine_: IEIP1404Wrapper) &lt;&lt;onlyRole&gt;&gt;</text>
<text text-anchor="start" x="500.58" y="-99.9" font-family="Times,serif" font-size="14.00"> &#160;&#160;&#160;messageForTransferRestriction(restrictionCode: uint8): (message: string)</text>
<text text-anchor="start" x="500.58" y="-83.1" font-family="Times,serif" font-size="14.00">Public:</text>
<text text-anchor="start" x="500.58" y="-66.3" font-family="Times,serif" font-size="14.00"> &#160;&#160;&#160;detectTransferRestriction(from: address, to: address, amount: uint256): (code: uint8)</text>
<text text-anchor="start" x="500.58" y="-49.5" font-family="Times,serif" font-size="14.00"> &#160;&#160;&#160;validateTransfer(from: address, to: address, amount: uint256): bool</text>
</g>
<!-- 31&#45;&gt;7 -->
<g id="edge11" class="edge">
<title>31&#45;&gt;7</title>
<path fill="none" stroke="black" stroke-dasharray="5,2" d="M492.37,-328.94C477.84,-340.84 464.23,-353.65 452,-367.4 340.65,-492.54 291.2,-688.86 271.48,-795.97"/>
<polygon fill="black" stroke="black" points="268,-795.59 269.67,-806.05 274.89,-796.83 268,-795.59"/>
</g>
<!-- 31&#45;&gt;6 -->
<g id="edge10" class="edge">
<title>31&#45;&gt;6</title>
<path fill="none" stroke="black" stroke-dasharray="5,2" d="M682.82,-351.08C628.42,-442.97 562.25,-563.42 516,-676.4 451.57,-833.77 519.88,-913.16 412,-1044.6 409.52,-1047.63 406.88,-1050.55 404.12,-1053.36"/>
<polygon fill="none" stroke="black" points="397.01,-1045.63 380.85,-1073 410.55,-1061.68 397.01,-1045.63"/>
</g>
<!-- 31&#45;&gt;18 -->
<g id="edge7" class="edge">
<title>31&#45;&gt;18</title>
<path fill="none" stroke="black" d="M779,-351.07C779,-456.44 779,-596.11 779,-704.29"/>
<polygon fill="none" stroke="black" points="768.5,-704.62 779,-734.62 789.5,-704.62 768.5,-704.62"/>
</g>
<!-- 31&#45;&gt;26 -->
<g id="edge9" class="edge">
<title>31&#45;&gt;26</title>
<path fill="none" stroke="black" d="M1032.02,-351.04C1054.16,-364.51 1076.47,-378.09 1098.37,-391.41"/>
<polygon fill="none" stroke="black" points="1093.25,-400.59 1124.34,-407.21 1104.17,-382.65 1093.25,-400.59"/>
</g>
<!-- 31&#45;&gt;28 -->
<g id="edge8" class="edge">
<title>31&#45;&gt;28</title>
<path fill="none" stroke="black" d="M1065.67,-228.48C1211.6,-252.56 1388.44,-294.59 1534,-367.4 1547.85,-374.33 1561.53,-382.47 1574.82,-391.36"/>
<polygon fill="none" stroke="black" points="1568.93,-400.06 1599.45,-408.95 1581.14,-382.97 1568.93,-400.06"/>
</g>
</g>
</svg>
