<?xml version="1.0" encoding="UTF-8" standalone="no"?>
<!DOCTYPE svg PUBLIC "-//W3C//DTD SVG 1.1//EN"
 "http://www.w3.org/Graphics/SVG/1.1/DTD/svg11.dtd">
<!-- Generated by graphviz version 5.0.0 (20220707.1540)
 -->
<!-- Title: UmlClassDiagram Pages: 1 -->
<svg width="566pt" height="587pt"
 viewBox="0.00 0.00 566.26 587.20" xmlns="http://www.w3.org/2000/svg" xmlns:xlink="http://www.w3.org/1999/xlink">
<g id="graph0" class="graph" transform="scale(1 1) rotate(0) translate(4 583.2)">
<title>UmlClassDiagram</title>
<polygon fill="white" stroke="transparent" points="-4,4 -4,-583.2 562.26,-583.2 562.26,4 -4,4"/>
<!-- 0 -->
<g id="node1" class="node">
<title>0</title>
<polygon fill="#f2f2f2" stroke="black" points="1.36,-461.9 1.36,-578.7 486.64,-578.7 486.64,-461.9 1.36,-461.9"/>
<text text-anchor="middle" x="244" y="-562.1" font-family="Times,serif" font-size="14.00">&lt;&lt;Interface&gt;&gt;</text>
<text text-anchor="middle" x="244" y="-545.3" font-family="Times,serif" font-size="14.00">IERC1404</text>
<text text-anchor="middle" x="244" y="-528.5" font-family="Times,serif" font-size="14.00">contracts/interfaces/IERC1404.sol</text>
<polyline fill="none" stroke="black" points="1.36,-520.3 486.64,-520.3 "/>
<text text-anchor="start" x="9.36" y="-503.7" font-family="Times,serif" font-size="14.00">External:</text>
<text text-anchor="start" x="9.36" y="-486.9" font-family="Times,serif" font-size="14.00"> &#160;&#160;&#160;&#160;detectTransferRestriction(_from: address, _to: address, _amount: uint256): uint8</text>
<text text-anchor="start" x="9.36" y="-470.1" font-family="Times,serif" font-size="14.00"> &#160;&#160;&#160;&#160;messageForTransferRestriction(_restrictionCode: uint8): string</text>
</g>
<!-- 1 -->
<g id="node2" class="node">
<title>1</title>
<polygon fill="#f2f2f2" stroke="black" points="0,-324.9 0,-424.9 488,-424.9 488,-324.9 0,-324.9"/>
<text text-anchor="middle" x="244" y="-408.3" font-family="Times,serif" font-size="14.00">&lt;&lt;Interface&gt;&gt;</text>
<text text-anchor="middle" x="244" y="-391.5" font-family="Times,serif" font-size="14.00">IERC1404Wrapper</text>
<text text-anchor="middle" x="244" y="-374.7" font-family="Times,serif" font-size="14.00">contracts/interfaces/IERC1404Wrapper.sol</text>
<polyline fill="none" stroke="black" points="0,-366.5 488,-366.5 "/>
<text text-anchor="start" x="8" y="-349.9" font-family="Times,serif" font-size="14.00">External:</text>
<text text-anchor="start" x="8" y="-333.1" font-family="Times,serif" font-size="14.00"> &#160;&#160;&#160;&#160;validateTransfer(_from: address, _to: address, _amount: uint256): (isValid: bool)</text>
</g>
<!-- 1&#45;&gt;0 -->
<g id="edge1" class="edge">
<title>1&#45;&gt;0</title>
<path fill="none" stroke="black" stroke-dasharray="5,2" d="M244,-425.25C244,-427.26 244,-429.29 244,-431.34"/>
<polygon fill="none" stroke="black" points="233.5,-431.46 244,-461.46 254.5,-431.46 233.5,-431.46"/>
</g>
<!-- 2 -->
<g id="node3" class="node">
<title>2</title>
<polygon fill="#f2f2f2" stroke="black" points="157.74,-187.9 157.74,-287.9 558.26,-287.9 558.26,-187.9 157.74,-187.9"/>
<text text-anchor="middle" x="358" y="-271.3" font-family="Times,serif" font-size="14.00">&lt;&lt;Interface&gt;&gt;</text>
<text text-anchor="middle" x="358" y="-254.5" font-family="Times,serif" font-size="14.00">IRule</text>
<text text-anchor="middle" x="358" y="-237.7" font-family="Times,serif" font-size="14.00">contracts/interfaces/IRule.sol</text>
<polyline fill="none" stroke="black" points="157.74,-229.5 558.26,-229.5 "/>
<text text-anchor="start" x="165.74" y="-212.9" font-family="Times,serif" font-size="14.00">External:</text>
<text text-anchor="start" x="165.74" y="-196.1" font-family="Times,serif" font-size="14.00"> &#160;&#160;&#160;&#160;canReturnTransferRestrictionCode(_restrictionCode: uint8): bool</text>
</g>
<!-- 2&#45;&gt;1 -->
<g id="edge2" class="edge">
<title>2&#45;&gt;1</title>
<path fill="none" stroke="black" stroke-dasharray="5,2" d="M316.52,-288.02C312.83,-292.39 309.04,-296.88 305.23,-301.39"/>
<polygon fill="none" stroke="black" points="296.97,-294.9 285.64,-324.59 313.02,-308.44 296.97,-294.9"/>
</g>
<!-- 3 -->
<g id="node4" class="node">
<title>3</title>
<polygon fill="#f2f2f2" stroke="black" points="20.34,-0.5 20.34,-150.9 239.66,-150.9 239.66,-0.5 20.34,-0.5"/>
<text text-anchor="middle" x="130" y="-134.3" font-family="Times,serif" font-size="14.00">&lt;&lt;Interface&gt;&gt;</text>
<text text-anchor="middle" x="130" y="-117.5" font-family="Times,serif" font-size="14.00">IRuleEngine</text>
<text text-anchor="middle" x="130" y="-100.7" font-family="Times,serif" font-size="14.00">contracts/interfaces/IRuleEngine.sol</text>
<polyline fill="none" stroke="black" points="20.34,-92.5 239.66,-92.5 "/>
<text text-anchor="start" x="28.34" y="-75.9" font-family="Times,serif" font-size="14.00">External:</text>
<text text-anchor="start" x="28.34" y="-59.1" font-family="Times,serif" font-size="14.00"> &#160;&#160;&#160;&#160;setRules(rules_: IRule[])</text>
<text text-anchor="start" x="28.34" y="-42.3" font-family="Times,serif" font-size="14.00"> &#160;&#160;&#160;&#160;ruleLength(): uint256</text>
<text text-anchor="start" x="28.34" y="-25.5" font-family="Times,serif" font-size="14.00"> &#160;&#160;&#160;&#160;rule(ruleId: uint256): IRule</text>
<text text-anchor="start" x="28.34" y="-8.7" font-family="Times,serif" font-size="14.00"> &#160;&#160;&#160;&#160;rules(): IRule[]</text>
</g>
<!-- 3&#45;&gt;1 -->
<g id="edge3" class="edge">
<title>3&#45;&gt;1</title>
<path fill="none" stroke="black" stroke-dasharray="5,2" d="M123.65,-151.36C123.16,-193.64 127.96,-246.32 149,-288.4 151.23,-292.87 153.81,-297.21 156.65,-301.41"/>
<polygon fill="none" stroke="black" points="148.73,-308.31 175.99,-324.65 164.87,-294.87 148.73,-308.31"/>
</g>
<!-- 3&#45;&gt;2 -->
<g id="edge4" class="edge">
<title>3&#45;&gt;2</title>
<path fill="none" stroke="black" stroke-dasharray="5,2" d="M235.66,-150.94C250.56,-161.41 265.65,-172.01 279.9,-182.02"/>
<polygon fill="black" stroke="black" points="278,-184.96 288.19,-187.85 282.02,-179.24 278,-184.96"/>
</g>
</g>
</svg>
