<?xml version="1.0" encoding="UTF-8" standalone="no"?>
<!DOCTYPE svg PUBLIC "-//W3C//DTD SVG 1.1//EN"
 "http://www.w3.org/Graphics/SVG/1.1/DTD/svg11.dtd">
<!-- Generated by graphviz version 5.0.0 (20220707.1540)
 -->
<!-- Title: UmlClassDiagram Pages: 1 -->
<svg width="733pt" height="762pt"
 viewBox="0.00 0.00 733.00 761.60" xmlns="http://www.w3.org/2000/svg" xmlns:xlink="http://www.w3.org/1999/xlink">
<g id="graph0" class="graph" transform="scale(1 1) rotate(0) translate(4 757.6)">
<title>UmlClassDiagram</title>
<polygon fill="white" stroke="transparent" points="-4,4 -4,-757.6 729,-757.6 729,4 -4,4"/>
<g id="clust1" class="cluster">
<title>cluster_0</title>
<polygon fill="none" stroke="black" points="8,-8 8,-745.6 717,-745.6 717,-8 8,-8"/>
<text text-anchor="middle" x="362.5" y="-16.2" font-family="Times,serif" font-size="14.00">contracts/interfaces</text>
</g>
<!-- 1 -->
<g id="node1" class="node">
<title>1</title>
<polygon fill="#f2f2f2" stroke="black" points="490.73,-41.3 490.73,-309.3 709.27,-309.3 709.27,-41.3 490.73,-41.3"/>
<text text-anchor="middle" x="600" y="-292.7" font-family="Times,serif" font-size="14.00">&lt;&lt;Struct&gt;&gt;</text>
<text text-anchor="middle" x="600" y="-275.9" font-family="Times,serif" font-size="14.00">DebtBase</text>
<text text-anchor="middle" x="600" y="-259.1" font-family="Times,serif" font-size="14.00">contracts/interfaces/IDebtGlobal.sol</text>
<polyline fill="none" stroke="black" points="490.73,-250.9 709.27,-250.9 "/>
<text text-anchor="start" x="498.73" y="-234.3" font-family="Times,serif" font-size="14.00">interestRate: uint256</text>
<text text-anchor="start" x="498.73" y="-217.5" font-family="Times,serif" font-size="14.00">parValue: uint256</text>
<text text-anchor="start" x="498.73" y="-200.7" font-family="Times,serif" font-size="14.00">guarantor: string</text>
<text text-anchor="start" x="498.73" y="-183.9" font-family="Times,serif" font-size="14.00">bondHolder: string</text>
<text text-anchor="start" x="498.73" y="-167.1" font-family="Times,serif" font-size="14.00">maturityDate: string</text>
<text text-anchor="start" x="498.73" y="-150.3" font-family="Times,serif" font-size="14.00">interestScheduleFormat: string</text>
<text text-anchor="start" x="498.73" y="-133.5" font-family="Times,serif" font-size="14.00">interestPaymentDate: string</text>
<text text-anchor="start" x="498.73" y="-116.7" font-family="Times,serif" font-size="14.00">dayCountConvention: string</text>
<text text-anchor="start" x="498.73" y="-99.9" font-family="Times,serif" font-size="14.00">businessDayConvention: string</text>
<text text-anchor="start" x="498.73" y="-83.1" font-family="Times,serif" font-size="14.00">publicHolidayCalendar: string</text>
<text text-anchor="start" x="498.73" y="-66.3" font-family="Times,serif" font-size="14.00">issuanceDate: string</text>
<text text-anchor="start" x="498.73" y="-49.5" font-family="Times,serif" font-size="14.00">couponFrequency: string</text>
</g>
<!-- 0 -->
<g id="node3" class="node">
<title>0</title>
<polygon fill="#f2f2f2" stroke="black" points="490.73,-367.1 490.73,-425.5 709.27,-425.5 709.27,-367.1 490.73,-367.1"/>
<text text-anchor="middle" x="600" y="-408.9" font-family="Times,serif" font-size="14.00">&lt;&lt;Interface&gt;&gt;</text>
<text text-anchor="middle" x="600" y="-392.1" font-family="Times,serif" font-size="14.00">IDebtGlobal</text>
<text text-anchor="middle" x="600" y="-375.3" font-family="Times,serif" font-size="14.00">contracts/interfaces/IDebtGlobal.sol</text>
</g>
<!-- 1&#45;&gt;0 -->
<g id="edge1" class="edge">
<title>1&#45;&gt;0</title>
<path fill="none" stroke="black" d="M600,-309.37C600,-325.8 600,-341.48 600,-354.85"/>
<polygon fill="black" stroke="black" points="600,-354.9 604,-360.9 600,-366.9 596,-360.9 600,-354.9"/>
</g>
<!-- 2 -->
<g id="node2" class="node">
<title>2</title>
<polygon fill="#f2f2f2" stroke="black" points="253.73,-116.9 253.73,-233.7 472.27,-233.7 472.27,-116.9 253.73,-116.9"/>
<text text-anchor="middle" x="363" y="-217.1" font-family="Times,serif" font-size="14.00">&lt;&lt;Struct&gt;&gt;</text>
<text text-anchor="middle" x="363" y="-200.3" font-family="Times,serif" font-size="14.00">CreditEvents</text>
<text text-anchor="middle" x="363" y="-183.5" font-family="Times,serif" font-size="14.00">contracts/interfaces/IDebtGlobal.sol</text>
<polyline fill="none" stroke="black" points="253.73,-175.3 472.27,-175.3 "/>
<text text-anchor="start" x="261.73" y="-158.7" font-family="Times,serif" font-size="14.00">flagDefault: bool</text>
<text text-anchor="start" x="261.73" y="-141.9" font-family="Times,serif" font-size="14.00">flagRedeemed: bool</text>
<text text-anchor="start" x="261.73" y="-125.1" font-family="Times,serif" font-size="14.00">rating: string</text>
</g>
<!-- 2&#45;&gt;0 -->
<g id="edge2" class="edge">
<title>2&#45;&gt;0</title>
<path fill="none" stroke="black" d="M409.68,-234.03C430.66,-258.52 456.43,-286.69 482,-309.8 501.84,-327.73 525.41,-345.43 546.25,-360.03"/>
<polygon fill="black" stroke="black" points="546.37,-360.11 553.58,-360.24 556.24,-366.94 549.03,-366.82 546.37,-360.11"/>
</g>
<!-- 3 -->
<g id="node4" class="node">
<title>3</title>
<polygon fill="#f2f2f2" stroke="black" points="23.36,-620.3 23.36,-737.1 508.64,-737.1 508.64,-620.3 23.36,-620.3"/>
<text text-anchor="middle" x="266" y="-720.5" font-family="Times,serif" font-size="14.00">&lt;&lt;Interface&gt;&gt;</text>
<text text-anchor="middle" x="266" y="-703.7" font-family="Times,serif" font-size="14.00">IERC1404</text>
<text text-anchor="middle" x="266" y="-686.9" font-family="Times,serif" font-size="14.00">contracts/interfaces/IERC1404.sol</text>
<polyline fill="none" stroke="black" points="23.36,-678.7 508.64,-678.7 "/>
<text text-anchor="start" x="31.36" y="-662.1" font-family="Times,serif" font-size="14.00">External:</text>
<text text-anchor="start" x="31.36" y="-645.3" font-family="Times,serif" font-size="14.00"> &#160;&#160;&#160;&#160;detectTransferRestriction(_from: address, _to: address, _amount: uint256): uint8</text>
<text text-anchor="start" x="31.36" y="-628.5" font-family="Times,serif" font-size="14.00"> &#160;&#160;&#160;&#160;messageForTransferRestriction(_restrictionCode: uint8): string</text>
</g>
<!-- 4 -->
<g id="node5" class="node">
<title>4</title>
<polygon fill="#f2f2f2" stroke="black" points="22,-483.3 22,-583.3 510,-583.3 510,-483.3 22,-483.3"/>
<text text-anchor="middle" x="266" y="-566.7" font-family="Times,serif" font-size="14.00">&lt;&lt;Interface&gt;&gt;</text>
<text text-anchor="middle" x="266" y="-549.9" font-family="Times,serif" font-size="14.00">IERC1404Wrapper</text>
<text text-anchor="middle" x="266" y="-533.1" font-family="Times,serif" font-size="14.00">contracts/interfaces/IERC1404Wrapper.sol</text>
<polyline fill="none" stroke="black" points="22,-524.9 510,-524.9 "/>
<text text-anchor="start" x="30" y="-508.3" font-family="Times,serif" font-size="14.00">External:</text>
<text text-anchor="start" x="30" y="-491.5" font-family="Times,serif" font-size="14.00"> &#160;&#160;&#160;&#160;validateTransfer(_from: address, _to: address, _amount: uint256): (isValid: bool)</text>
</g>
<!-- 4&#45;&gt;3 -->
<g id="edge3" class="edge">
<title>4&#45;&gt;3</title>
<path fill="none" stroke="black" stroke-dasharray="5,2" d="M266,-583.65C266,-585.66 266,-587.69 266,-589.74"/>
<polygon fill="none" stroke="black" points="255.5,-589.86 266,-619.86 276.5,-589.86 255.5,-589.86"/>
</g>
<!-- 5 -->
<g id="node6" class="node">
<title>5</title>
<polygon fill="#f2f2f2" stroke="black" points="71.74,-346.3 71.74,-446.3 472.26,-446.3 472.26,-346.3 71.74,-346.3"/>
<text text-anchor="middle" x="272" y="-429.7" font-family="Times,serif" font-size="14.00">&lt;&lt;Interface&gt;&gt;</text>
<text text-anchor="middle" x="272" y="-412.9" font-family="Times,serif" font-size="14.00">IRule</text>
<text text-anchor="middle" x="272" y="-396.1" font-family="Times,serif" font-size="14.00">contracts/interfaces/IRule.sol</text>
<polyline fill="none" stroke="black" points="71.74,-387.9 472.26,-387.9 "/>
<text text-anchor="start" x="79.74" y="-371.3" font-family="Times,serif" font-size="14.00">External:</text>
<text text-anchor="start" x="79.74" y="-354.5" font-family="Times,serif" font-size="14.00"> &#160;&#160;&#160;&#160;canReturnTransferRestrictionCode(_restrictionCode: uint8): bool</text>
</g>
<!-- 5&#45;&gt;4 -->
<g id="edge4" class="edge">
<title>5&#45;&gt;4</title>
<path fill="none" stroke="black" stroke-dasharray="5,2" d="M269.82,-446.42C269.72,-448.56 269.63,-450.73 269.53,-452.91"/>
<polygon fill="none" stroke="black" points="259.03,-452.55 268.19,-482.99 280.01,-453.49 259.03,-452.55"/>
</g>
<!-- 6 -->
<g id="node7" class="node">
<title>6</title>
<polygon fill="#f2f2f2" stroke="black" points="16.34,-100.1 16.34,-250.5 235.66,-250.5 235.66,-100.1 16.34,-100.1"/>
<text text-anchor="middle" x="126" y="-233.9" font-family="Times,serif" font-size="14.00">&lt;&lt;Interface&gt;&gt;</text>
<text text-anchor="middle" x="126" y="-217.1" font-family="Times,serif" font-size="14.00">IRuleEngine</text>
<text text-anchor="middle" x="126" y="-200.3" font-family="Times,serif" font-size="14.00">contracts/interfaces/IRuleEngine.sol</text>
<polyline fill="none" stroke="black" points="16.34,-192.1 235.66,-192.1 "/>
<text text-anchor="start" x="24.34" y="-175.5" font-family="Times,serif" font-size="14.00">External:</text>
<text text-anchor="start" x="24.34" y="-158.7" font-family="Times,serif" font-size="14.00"> &#160;&#160;&#160;&#160;setRules(rules_: IRule[])</text>
<text text-anchor="start" x="24.34" y="-141.9" font-family="Times,serif" font-size="14.00"> &#160;&#160;&#160;&#160;ruleLength(): uint256</text>
<text text-anchor="start" x="24.34" y="-125.1" font-family="Times,serif" font-size="14.00"> &#160;&#160;&#160;&#160;rule(ruleId: uint256): IRule</text>
<text text-anchor="start" x="24.34" y="-108.3" font-family="Times,serif" font-size="14.00"> &#160;&#160;&#160;&#160;rules(): IRule[]</text>
</g>
<!-- 6&#45;&gt;4 -->
<g id="edge5" class="edge">
<title>6&#45;&gt;4</title>
<path fill="none" stroke="black" stroke-dasharray="5,2" d="M79.53,-250.72C50.03,-308.42 24.06,-388.15 63,-446.8 66.94,-452.74 71.38,-458.26 76.23,-463.4"/>
<polygon fill="none" stroke="black" points="69.43,-471.4 99.01,-483.02 83.13,-455.48 69.43,-471.4"/>
</g>
<!-- 6&#45;&gt;5 -->
<g id="edge6" class="edge">
<title>6&#45;&gt;5</title>
<path fill="none" stroke="black" stroke-dasharray="5,2" d="M175.63,-250.75C194.58,-279.17 215.87,-311.11 233.62,-337.73"/>
<polygon fill="black" stroke="black" points="230.79,-339.79 239.25,-346.17 236.61,-335.91 230.79,-339.79"/>
</g>
</g>
</svg>
