<?xml version="1.0" encoding="UTF-8" standalone="no"?>
<!DOCTYPE svg PUBLIC "-//W3C//DTD SVG 1.1//EN"
 "http://www.w3.org/Graphics/SVG/1.1/DTD/svg11.dtd">
<!-- Generated by graphviz version 5.0.0 (20220707.1540)
 -->
<!-- Title: UmlClassDiagram Pages: 1 -->
<svg width="1000pt" height="450pt"
 viewBox="0.00 0.00 999.64 450.20" xmlns="http://www.w3.org/2000/svg" xmlns:xlink="http://www.w3.org/1999/xlink">
<g id="graph0" class="graph" transform="scale(1 1) rotate(0) translate(4 446.2)">
<title>UmlClassDiagram</title>
<polygon fill="white" stroke="transparent" points="-4,4 -4,-446.2 995.64,-446.2 995.64,4 -4,4"/>
<!-- 0 -->
<g id="node1" class="node">
<title>0</title>
<polygon fill="#f2f2f2" stroke="black" points="0,-324.9 0,-441.7 485.28,-441.7 485.28,-324.9 0,-324.9"/>
<text text-anchor="middle" x="242.64" y="-425.1" font-family="Times,serif" font-size="14.00">&lt;&lt;Interface&gt;&gt;</text>
<text text-anchor="middle" x="242.64" y="-408.3" font-family="Times,serif" font-size="14.00">IERC1404</text>
<text text-anchor="middle" x="242.64" y="-391.5" font-family="Times,serif" font-size="14.00">contracts/interfaces/IERC1404.sol</text>
<polyline fill="none" stroke="black" points="0,-383.3 485.28,-383.3 "/>
<text text-anchor="start" x="8" y="-366.7" font-family="Times,serif" font-size="14.00">External:</text>
<text text-anchor="start" x="8" y="-349.9" font-family="Times,serif" font-size="14.00"> &#160;&#160;&#160;&#160;detectTransferRestriction(_from: address, _to: address, _amount: uint256): uint8</text>
<text text-anchor="start" x="8" y="-333.1" font-family="Times,serif" font-size="14.00"> &#160;&#160;&#160;&#160;messageForTransferRestriction(_restrictionCode: uint8): string</text>
</g>
<!-- 1 -->
<g id="node2" class="node">
<title>1</title>
<polygon fill="#f2f2f2" stroke="black" points="306.38,-187.9 306.38,-287.9 706.9,-287.9 706.9,-187.9 306.38,-187.9"/>
<text text-anchor="middle" x="506.64" y="-271.3" font-family="Times,serif" font-size="14.00">&lt;&lt;Interface&gt;&gt;</text>
<text text-anchor="middle" x="506.64" y="-254.5" font-family="Times,serif" font-size="14.00">IRule</text>
<text text-anchor="middle" x="506.64" y="-237.7" font-family="Times,serif" font-size="14.00">contracts/interfaces/IRule.sol</text>
<polyline fill="none" stroke="black" points="306.38,-229.5 706.9,-229.5 "/>
<text text-anchor="start" x="314.38" y="-212.9" font-family="Times,serif" font-size="14.00">External:</text>
<text text-anchor="start" x="314.38" y="-196.1" font-family="Times,serif" font-size="14.00"> &#160;&#160;&#160;&#160;canReturnTransferRestrictionCode(_restrictionCode: uint8): bool</text>
</g>
<!-- 1&#45;&gt;0 -->
<g id="edge1" class="edge">
<title>1&#45;&gt;0</title>
<path fill="none" stroke="black" stroke-dasharray="5,2" d="M416.16,-288.05C402.88,-295.26 388.97,-302.82 375.06,-310.37"/>
<polygon fill="none" stroke="black" points="369.82,-301.27 348.47,-324.82 379.84,-319.72 369.82,-301.27"/>
</g>
<!-- 2 -->
<g id="node3" class="node">
<title>2</title>
<polygon fill="#f2f2f2" stroke="black" points="503.64,-333.3 503.64,-433.3 991.64,-433.3 991.64,-333.3 503.64,-333.3"/>
<text text-anchor="middle" x="747.64" y="-416.7" font-family="Times,serif" font-size="14.00">&lt;&lt;Interface&gt;&gt;</text>
<text text-anchor="middle" x="747.64" y="-399.9" font-family="Times,serif" font-size="14.00">IRuleCommon</text>
<text text-anchor="middle" x="747.64" y="-383.1" font-family="Times,serif" font-size="14.00">contracts/interfaces/IRuleCommon.sol</text>
<polyline fill="none" stroke="black" points="503.64,-374.9 991.64,-374.9 "/>
<text text-anchor="start" x="511.64" y="-358.3" font-family="Times,serif" font-size="14.00">External:</text>
<text text-anchor="start" x="511.64" y="-341.5" font-family="Times,serif" font-size="14.00"> &#160;&#160;&#160;&#160;validateTransfer(_from: address, _to: address, _amount: uint256): (isValid: bool)</text>
</g>
<!-- 1&#45;&gt;2 -->
<g id="edge2" class="edge">
<title>1&#45;&gt;2</title>
<path fill="none" stroke="black" stroke-dasharray="5,2" d="M589.24,-288.05C605.34,-297.63 622.44,-307.8 639.22,-317.79"/>
<polygon fill="none" stroke="black" points="634,-326.9 665.15,-333.21 644.73,-308.85 634,-326.9"/>
</g>
<!-- 3 -->
<g id="node4" class="node">
<title>3</title>
<polygon fill="#f2f2f2" stroke="black" points="396.98,-0.5 396.98,-150.9 616.3,-150.9 616.3,-0.5 396.98,-0.5"/>
<text text-anchor="middle" x="506.64" y="-134.3" font-family="Times,serif" font-size="14.00">&lt;&lt;Interface&gt;&gt;</text>
<text text-anchor="middle" x="506.64" y="-117.5" font-family="Times,serif" font-size="14.00">IRuleEngine</text>
<text text-anchor="middle" x="506.64" y="-100.7" font-family="Times,serif" font-size="14.00">contracts/interfaces/IRuleEngine.sol</text>
<polyline fill="none" stroke="black" points="396.98,-92.5 616.3,-92.5 "/>
<text text-anchor="start" x="404.98" y="-75.9" font-family="Times,serif" font-size="14.00">External:</text>
<text text-anchor="start" x="404.98" y="-59.1" font-family="Times,serif" font-size="14.00"> &#160;&#160;&#160;&#160;setRules(rules_: IRule[])</text>
<text text-anchor="start" x="404.98" y="-42.3" font-family="Times,serif" font-size="14.00"> &#160;&#160;&#160;&#160;ruleLength(): uint256</text>
<text text-anchor="start" x="404.98" y="-25.5" font-family="Times,serif" font-size="14.00"> &#160;&#160;&#160;&#160;rule(ruleId: uint256): IRule</text>
<text text-anchor="start" x="404.98" y="-8.7" font-family="Times,serif" font-size="14.00"> &#160;&#160;&#160;&#160;rules(): IRule[]</text>
</g>
<!-- 3&#45;&gt;0 -->
<g id="edge3" class="edge">
<title>3&#45;&gt;0</title>
<path fill="none" stroke="black" stroke-dasharray="5,2" d="M396.87,-114.47C360.79,-131.7 323.37,-155.54 297.64,-187.4 273.08,-217.8 259.48,-258.55 251.95,-294.93"/>
<polygon fill="none" stroke="black" points="241.56,-293.43 246.86,-324.76 262.26,-296.96 241.56,-293.43"/>
</g>
<!-- 3&#45;&gt;1 -->
<g id="edge5" class="edge">
<title>3&#45;&gt;1</title>
<path fill="none" stroke="black" stroke-dasharray="5,2" d="M506.64,-151.17C506.64,-160 506.64,-168.92 506.64,-177.5"/>
<polygon fill="black" stroke="black" points="503.14,-177.77 506.64,-187.77 510.14,-177.77 503.14,-177.77"/>
</g>
<!-- 3&#45;&gt;2 -->
<g id="edge4" class="edge">
<title>3&#45;&gt;2</title>
<path fill="none" stroke="black" stroke-dasharray="5,2" d="M616.55,-112.02C653.43,-129.15 691.32,-153.56 715.64,-187.4 739.41,-220.46 748.01,-264.79 750.4,-302.82"/>
<polygon fill="none" stroke="black" points="739.91,-303.16 751.15,-332.89 760.9,-302.64 739.91,-303.16"/>
</g>
</g>
</svg>
