<?xml version="1.0" encoding="UTF-8" standalone="no"?>
<!DOCTYPE svg PUBLIC "-//W3C//DTD SVG 1.1//EN"
 "http://www.w3.org/Graphics/SVG/1.1/DTD/svg11.dtd">
<!-- Generated by graphviz version 5.0.0 (20220707.1540)
 -->
<!-- Title: UmlClassDiagram Pages: 1 -->
<svg width="565pt" height="467pt"
 viewBox="0.00 0.00 564.90 467.00" xmlns="http://www.w3.org/2000/svg" xmlns:xlink="http://www.w3.org/1999/xlink">
<g id="graph0" class="graph" transform="scale(1 1) rotate(0) translate(4 463)">
<title>UmlClassDiagram</title>
<polygon fill="white" stroke="transparent" points="-4,4 -4,-463 560.9,-463 560.9,4 -4,4"/>
<!-- 0 -->
<g id="node1" class="node">
<title>0</title>
<polygon fill="#f2f2f2" stroke="black" points="0,-324.9 0,-458.5 485.28,-458.5 485.28,-324.9 0,-324.9"/>
<text text-anchor="middle" x="242.64" y="-441.9" font-family="Times,serif" font-size="14.00">&lt;&lt;Interface&gt;&gt;</text>
<text text-anchor="middle" x="242.64" y="-425.1" font-family="Times,serif" font-size="14.00">IERC1404</text>
<text text-anchor="middle" x="242.64" y="-408.3" font-family="Times,serif" font-size="14.00">contracts/interfaces/IERC1404.sol</text>
<polyline fill="none" stroke="black" points="0,-400.1 485.28,-400.1 "/>
<text text-anchor="start" x="8" y="-383.5" font-family="Times,serif" font-size="14.00">External:</text>
<text text-anchor="start" x="8" y="-366.7" font-family="Times,serif" font-size="14.00"> &#160;&#160;&#160;&#160;detectTransferRestriction(_from: address, _to: address, _amount: uint256): uint8</text>
<text text-anchor="start" x="8" y="-349.9" font-family="Times,serif" font-size="14.00"> &#160;&#160;&#160;&#160;messageForTransferRestriction(_restrictionCode: uint8): string</text>
<text text-anchor="start" x="8" y="-333.1" font-family="Times,serif" font-size="14.00"> &#160;&#160;&#160;&#160;isTransferValid(_from: address, _to: address, _amount: uint256): (isValid: bool)</text>
</g>
<!-- 1 -->
<g id="node2" class="node">
<title>1</title>
<polygon fill="#f2f2f2" stroke="black" points="156.38,-187.9 156.38,-287.9 556.9,-287.9 556.9,-187.9 156.38,-187.9"/>
<text text-anchor="middle" x="356.64" y="-271.3" font-family="Times,serif" font-size="14.00">&lt;&lt;Interface&gt;&gt;</text>
<text text-anchor="middle" x="356.64" y="-254.5" font-family="Times,serif" font-size="14.00">IRule</text>
<text text-anchor="middle" x="356.64" y="-237.7" font-family="Times,serif" font-size="14.00">contracts/interfaces/IRule.sol</text>
<polyline fill="none" stroke="black" points="156.38,-229.5 556.9,-229.5 "/>
<text text-anchor="start" x="164.38" y="-212.9" font-family="Times,serif" font-size="14.00">External:</text>
<text text-anchor="start" x="164.38" y="-196.1" font-family="Times,serif" font-size="14.00"> &#160;&#160;&#160;&#160;canReturnTransferRestrictionCode(_restrictionCode: uint8): bool</text>
</g>
<!-- 1&#45;&gt;0 -->
<g id="edge1" class="edge">
<title>1&#45;&gt;0</title>
<path fill="none" stroke="black" stroke-dasharray="5,2" d="M319.63,-288.19C316.54,-292.29 313.37,-296.52 310.15,-300.81"/>
<polygon fill="none" stroke="black" points="301.74,-294.52 292.12,-324.82 318.53,-307.13 301.74,-294.52"/>
</g>
<!-- 2 -->
<g id="node3" class="node">
<title>2</title>
<polygon fill="#f2f2f2" stroke="black" points="18.98,-0.5 18.98,-150.9 238.3,-150.9 238.3,-0.5 18.98,-0.5"/>
<text text-anchor="middle" x="128.64" y="-134.3" font-family="Times,serif" font-size="14.00">&lt;&lt;Interface&gt;&gt;</text>
<text text-anchor="middle" x="128.64" y="-117.5" font-family="Times,serif" font-size="14.00">IRuleEngine</text>
<text text-anchor="middle" x="128.64" y="-100.7" font-family="Times,serif" font-size="14.00">contracts/interfaces/IRuleEngine.sol</text>
<polyline fill="none" stroke="black" points="18.98,-92.5 238.3,-92.5 "/>
<text text-anchor="start" x="26.98" y="-75.9" font-family="Times,serif" font-size="14.00">External:</text>
<text text-anchor="start" x="26.98" y="-59.1" font-family="Times,serif" font-size="14.00"> &#160;&#160;&#160;&#160;setRules(rules_: IRule[])</text>
<text text-anchor="start" x="26.98" y="-42.3" font-family="Times,serif" font-size="14.00"> &#160;&#160;&#160;&#160;ruleLength(): uint256</text>
<text text-anchor="start" x="26.98" y="-25.5" font-family="Times,serif" font-size="14.00"> &#160;&#160;&#160;&#160;rule(ruleId: uint256): IRule</text>
<text text-anchor="start" x="26.98" y="-8.7" font-family="Times,serif" font-size="14.00"> &#160;&#160;&#160;&#160;rules(): IRule[]</text>
</g>
<!-- 2&#45;&gt;0 -->
<g id="edge2" class="edge">
<title>2&#45;&gt;0</title>
<path fill="none" stroke="black" stroke-dasharray="5,2" d="M123.73,-151.18C123.75,-193.15 128.58,-245.59 147.64,-288.4 149.38,-292.31 151.34,-296.17 153.47,-299.97"/>
<polygon fill="none" stroke="black" points="144.79,-305.89 170.32,-324.82 162.17,-294.1 144.79,-305.89"/>
</g>
<!-- 2&#45;&gt;1 -->
<g id="edge3" class="edge">
<title>2&#45;&gt;1</title>
<path fill="none" stroke="black" stroke-dasharray="5,2" d="M234.3,-150.94C249.2,-161.41 264.28,-172.01 278.54,-182.02"/>
<polygon fill="black" stroke="black" points="276.63,-184.96 286.83,-187.85 280.66,-179.24 276.63,-184.96"/>
</g>
</g>
</svg>
