<?xml version="1.0" encoding="UTF-8" standalone="no"?>
<!DOCTYPE svg PUBLIC "-//W3C//DTD SVG 1.1//EN"
 "http://www.w3.org/Graphics/SVG/1.1/DTD/svg11.dtd">
<!-- Generated by graphviz version 5.0.0 (20220707.1540)
 -->
<!-- Title: UmlClassDiagram Pages: 1 -->
<svg width="1660pt" height="625pt"
 viewBox="0.00 0.00 1659.61 624.60" xmlns="http://www.w3.org/2000/svg" xmlns:xlink="http://www.w3.org/1999/xlink">
<g id="graph0" class="graph" transform="scale(1 1) rotate(0) translate(4 620.6)">
<title>UmlClassDiagram</title>
<polygon fill="white" stroke="transparent" points="-4,4 -4,-620.6 1655.61,-620.6 1655.61,4 -4,4"/>
<g id="clust1" class="cluster">
<title>cluster_0</title>
<polygon fill="white" stroke="black" points="83.61,-8 83.61,-133 1597.61,-133 1597.61,-8 83.61,-8"/>
<text text-anchor="middle" x="840.61" y="-16.2" font-family="Times,serif" font-size="14.00">contracts</text>
</g>
<g id="clust2" class="cluster">
<title>cluster_1</title>
<polygon fill="white" stroke="black" points="39.61,-466.8 39.61,-608.6 543.61,-608.6 543.61,-466.8 39.61,-466.8"/>
<text text-anchor="middle" x="291.61" y="-475" font-family="Times,serif" font-size="14.00">contracts/interfaces/IEIP1404</text>
</g>
<g id="clust3" class="cluster">
<title>cluster_2</title>
<polygon fill="white" stroke="black" points="37.61,-141 37.61,-458.8 1643.61,-458.8 1643.61,-141 37.61,-141"/>
<text text-anchor="middle" x="840.61" y="-149.2" font-family="Times,serif" font-size="14.00">contracts/modules</text>
</g>
<!-- 1 -->
<g id="node1" class="node">
<title>1</title>
<polygon fill="#f2f2f2" stroke="black" points="91.79,-41.3 91.79,-124.5 1589.42,-124.5 1589.42,-41.3 91.79,-41.3"/>
<text text-anchor="middle" x="840.61" y="-107.9" font-family="Times,serif" font-size="14.00">CMTAT_STANDALONE</text>
<text text-anchor="middle" x="840.61" y="-91.1" font-family="Times,serif" font-size="14.00">contracts/CMTAT_STANDALONE.sol</text>
<polyline fill="none" stroke="black" points="91.79,-82.9 1589.42,-82.9 "/>
<text text-anchor="start" x="99.79" y="-66.3" font-family="Times,serif" font-size="14.00">Public:</text>
<text text-anchor="start" x="99.79" y="-49.5" font-family="Times,serif" font-size="14.00"> &#160;&#160;&#160;constructor(forwarderIrrevocable: address, admin: address, initialDelay: uint48, nameIrrevocable: string, symbolIrrevocable: string, decimalsIrrevocable: uint8, tokenId_: string, terms_: string, ruleEngine_: IEIP1404Wrapper, information_: string, flag_: uint256)</text>
</g>
<!-- 9 -->
<g id="node2" class="node">
<title>9</title>
<polygon fill="#f2f2f2" stroke="black" points="47.6,-500.1 47.6,-600.1 535.61,-600.1 535.61,-500.1 47.6,-500.1"/>
<text text-anchor="middle" x="291.61" y="-583.5" font-family="Times,serif" font-size="14.00">&lt;&lt;Interface&gt;&gt;</text>
<text text-anchor="middle" x="291.61" y="-566.7" font-family="Times,serif" font-size="14.00">IEIP1404Wrapper</text>
<text text-anchor="middle" x="291.61" y="-549.9" font-family="Times,serif" font-size="14.00">contracts/interfaces/IEIP1404/IEIP1404Wrapper.sol</text>
<polyline fill="none" stroke="black" points="47.6,-541.7 535.61,-541.7 "/>
<text text-anchor="start" x="55.6" y="-525.1" font-family="Times,serif" font-size="14.00">External:</text>
<text text-anchor="start" x="55.6" y="-508.3" font-family="Times,serif" font-size="14.00"> &#160;&#160;&#160;&#160;validateTransfer(_from: address, _to: address, _amount: uint256): (isValid: bool)</text>
</g>
<!-- 1&#45;&gt;9 -->
<g id="edge2" class="edge">
<title>1&#45;&gt;9</title>
<path fill="none" stroke="black" stroke-dasharray="5,2" d="M91.53,-118.4C62.25,-124.73 41.8,-132.2 33.61,-141 -14.54,-192.67 -7.26,-401.2 33.61,-458.8 43.33,-472.5 55.29,-484.14 68.7,-494.03"/>
<polygon fill="black" stroke="black" points="67.02,-497.12 77.22,-499.96 71.01,-491.37 67.02,-497.12"/>
</g>
<!-- 7 -->
<g id="node3" class="node">
<title>7</title>
<polygon fill="#f2f2f2" stroke="black" points="45.63,-174.3 45.63,-450.3 1635.58,-450.3 1635.58,-174.3 45.63,-174.3"/>
<text text-anchor="middle" x="840.61" y="-433.7" font-family="Times,serif" font-size="14.00">&lt;&lt;Abstract&gt;&gt;</text>
<text text-anchor="middle" x="840.61" y="-416.9" font-family="Times,serif" font-size="14.00">CMTAT_BASE</text>
<text text-anchor="middle" x="840.61" y="-400.1" font-family="Times,serif" font-size="14.00">contracts/modules/CMTAT_BASE.sol</text>
<polyline fill="none" stroke="black" points="45.63,-391.9 1635.58,-391.9 "/>
<text text-anchor="start" x="53.63" y="-375.3" font-family="Times,serif" font-size="14.00">Private:</text>
<text text-anchor="start" x="53.63" y="-358.5" font-family="Times,serif" font-size="14.00"> &#160;&#160;__gap: uint256[50]</text>
<polyline fill="none" stroke="black" points="45.63,-350.3 1635.58,-350.3 "/>
<text text-anchor="start" x="53.63" y="-333.7" font-family="Times,serif" font-size="14.00">Internal:</text>
<text text-anchor="start" x="53.63" y="-316.9" font-family="Times,serif" font-size="14.00"> &#160;&#160;&#160;__CMTAT_init(admin: address, initialDelayToAcceptAdminRole: uint48, nameIrrevocable: string, symbolIrrevocable: string, decimalsIrrevocable: uint8, tokenId_: string, terms_: string, ruleEngine_: IEIP1404Wrapper, information_: string, flag_: uint256) &lt;&lt;onlyInitializing&gt;&gt;</text>
<text text-anchor="start" x="53.63" y="-300.1" font-family="Times,serif" font-size="14.00"> &#160;&#160;&#160;__CMTAT_init_unchained() &lt;&lt;onlyInitializing&gt;&gt;</text>
<text text-anchor="start" x="53.63" y="-283.3" font-family="Times,serif" font-size="14.00"> &#160;&#160;&#160;_update(from: address, to: address, amount: uint256)</text>
<text text-anchor="start" x="53.63" y="-266.5" font-family="Times,serif" font-size="14.00"> &#160;&#160;&#160;_msgSender(): (sender: address)</text>
<text text-anchor="start" x="53.63" y="-249.7" font-family="Times,serif" font-size="14.00"> &#160;&#160;&#160;_msgData(): bytes</text>
<text text-anchor="start" x="53.63" y="-232.9" font-family="Times,serif" font-size="14.00">Public:</text>
<text text-anchor="start" x="53.63" y="-216.1" font-family="Times,serif" font-size="14.00"> &#160;&#160;&#160;initialize(admin: address, initialDelayToAcceptAdminRole: uint48, nameIrrevocable: string, symbolIrrevocable: string, decimalsIrrevocable: uint8, tokenId_: string, terms_: string, ruleEngine_: IEIP1404Wrapper, information_: string, flag_: uint256) &lt;&lt;initializer&gt;&gt;</text>
<text text-anchor="start" x="53.63" y="-199.3" font-family="Times,serif" font-size="14.00"> &#160;&#160;&#160;decimals(): uint8</text>
<text text-anchor="start" x="53.63" y="-182.5" font-family="Times,serif" font-size="14.00"> &#160;&#160;&#160;transferFrom(sender: address, recipient: address, amount: uint256): bool</text>
</g>
<!-- 1&#45;&gt;7 -->
<g id="edge1" class="edge">
<title>1&#45;&gt;7</title>
<path fill="none" stroke="black" d="M840.61,-124.55C840.61,-130.53 840.61,-136.98 840.61,-143.75"/>
<polygon fill="none" stroke="black" points="830.11,-144.13 840.61,-174.13 851.11,-144.13 830.11,-144.13"/>
</g>
<!-- 7&#45;&gt;9 -->
<g id="edge3" class="edge">
<title>7&#45;&gt;9</title>
<path fill="none" stroke="black" stroke-dasharray="5,2" d="M521.25,-450.47C483.79,-466.56 447.47,-482.16 415.19,-496.02"/>
<polygon fill="black" stroke="black" points="413.56,-492.91 405.75,-500.07 416.32,-499.34 413.56,-492.91"/>
</g>
</g>
</svg>
