<?xml version="1.0" encoding="UTF-8" standalone="no"?>
<!DOCTYPE svg PUBLIC "-//W3C//DTD SVG 1.1//EN"
 "http://www.w3.org/Graphics/SVG/1.1/DTD/svg11.dtd">
<!-- Generated by graphviz version 5.0.0 (20220707.1540)
 -->
<!-- Title: UmlClassDiagram Pages: 1 -->
<svg width="855pt" height="864pt"
 viewBox="0.00 0.00 855.00 863.80" xmlns="http://www.w3.org/2000/svg" xmlns:xlink="http://www.w3.org/1999/xlink">
<g id="graph0" class="graph" transform="scale(1 1) rotate(0) translate(4 859.8)">
<title>UmlClassDiagram</title>
<polygon fill="white" stroke="transparent" points="-4,4 -4,-859.8 851,-859.8 851,4 -4,4"/>
<g id="clust1" class="cluster">
<title>cluster_0</title>
<polygon fill="white" stroke="black" points="27,-480.6 27,-847.8 261,-847.8 261,-480.6 27,-480.6"/>
<text text-anchor="middle" x="144" y="-488.8" font-family="Times,serif" font-size="14.00">contracts/interfaces</text>
</g>
<g id="clust2" class="cluster">
<title>cluster_1</title>
<polygon fill="white" stroke="black" points="301,-367.4 301,-752.4 839,-752.4 839,-367.4 301,-367.4"/>
<text text-anchor="middle" x="570" y="-375.6" font-family="Times,serif" font-size="14.00">contracts/modules/security</text>
</g>
<g id="clust3" class="cluster">
<title>cluster_2</title>
<polygon fill="white" stroke="black" points="8,-8 8,-359.4 554,-359.4 554,-8 8,-8"/>
<text text-anchor="middle" x="281" y="-16.2" font-family="Times,serif" font-size="14.00">contracts/modules/wrapper/extensions/DebtModule</text>
</g>
<!-- 4 -->
<g id="node1" class="node">
<title>4</title>
<polygon fill="#f2f2f2" stroke="black" points="34.73,-513.9 34.73,-630.7 253.27,-630.7 253.27,-513.9 34.73,-513.9"/>
<text text-anchor="middle" x="144" y="-614.1" font-family="Times,serif" font-size="14.00">&lt;&lt;Struct&gt;&gt;</text>
<text text-anchor="middle" x="144" y="-597.3" font-family="Times,serif" font-size="14.00">CreditEvents</text>
<text text-anchor="middle" x="144" y="-580.5" font-family="Times,serif" font-size="14.00">contracts/interfaces/IDebtGlobal.sol</text>
<polyline fill="none" stroke="black" points="34.73,-572.3 253.27,-572.3 "/>
<text text-anchor="start" x="42.73" y="-555.7" font-family="Times,serif" font-size="14.00">flagDefault: bool</text>
<text text-anchor="start" x="42.73" y="-538.9" font-family="Times,serif" font-size="14.00">flagRedeemed: bool</text>
<text text-anchor="start" x="42.73" y="-522.1" font-family="Times,serif" font-size="14.00">rating: string</text>
</g>
<!-- 2 -->
<g id="node2" class="node">
<title>2</title>
<polygon fill="#f2f2f2" stroke="black" points="34.73,-780.9 34.73,-839.3 253.27,-839.3 253.27,-780.9 34.73,-780.9"/>
<text text-anchor="middle" x="144" y="-822.7" font-family="Times,serif" font-size="14.00">&lt;&lt;Interface&gt;&gt;</text>
<text text-anchor="middle" x="144" y="-805.9" font-family="Times,serif" font-size="14.00">IDebtGlobal</text>
<text text-anchor="middle" x="144" y="-789.1" font-family="Times,serif" font-size="14.00">contracts/interfaces/IDebtGlobal.sol</text>
</g>
<!-- 4&#45;&gt;2 -->
<g id="edge1" class="edge">
<title>4&#45;&gt;2</title>
<path fill="none" stroke="black" d="M144,-630.98C144,-673.61 144,-730.6 144,-768.51"/>
<polygon fill="black" stroke="black" points="144,-768.59 148,-774.59 144,-780.59 140,-774.59 144,-768.59"/>
</g>
<!-- 18 -->
<g id="node3" class="node">
<title>18</title>
<polygon fill="#f2f2f2" stroke="black" points="308.83,-400.7 308.83,-743.9 831.17,-743.9 831.17,-400.7 308.83,-400.7"/>
<text text-anchor="middle" x="570" y="-727.3" font-family="Times,serif" font-size="14.00">&lt;&lt;Abstract&gt;&gt;</text>
<text text-anchor="middle" x="570" y="-710.5" font-family="Times,serif" font-size="14.00">AuthorizationModule</text>
<text text-anchor="middle" x="570" y="-693.7" font-family="Times,serif" font-size="14.00">contracts/modules/security/AuthorizationModule.sol</text>
<polyline fill="none" stroke="black" points="308.83,-685.5 831.17,-685.5 "/>
<text text-anchor="start" x="316.83" y="-668.9" font-family="Times,serif" font-size="14.00">Private:</text>
<text text-anchor="start" x="316.83" y="-652.1" font-family="Times,serif" font-size="14.00"> &#160;&#160;__gap: uint256[50]</text>
<text text-anchor="start" x="316.83" y="-635.3" font-family="Times,serif" font-size="14.00">Public:</text>
<text text-anchor="start" x="316.83" y="-618.5" font-family="Times,serif" font-size="14.00"> &#160;&#160;BURNER_ROLE: bytes32</text>
<text text-anchor="start" x="316.83" y="-601.7" font-family="Times,serif" font-size="14.00"> &#160;&#160;DEBT_CREDIT_EVENT_ROLE: bytes32</text>
<text text-anchor="start" x="316.83" y="-584.9" font-family="Times,serif" font-size="14.00"> &#160;&#160;DEBT_ROLE: bytes32</text>
<text text-anchor="start" x="316.83" y="-568.1" font-family="Times,serif" font-size="14.00"> &#160;&#160;ENFORCER_ROLE: bytes32</text>
<text text-anchor="start" x="316.83" y="-551.3" font-family="Times,serif" font-size="14.00"> &#160;&#160;MINTER_ROLE: bytes32</text>
<text text-anchor="start" x="316.83" y="-534.5" font-family="Times,serif" font-size="14.00"> &#160;&#160;PAUSER_ROLE: bytes32</text>
<text text-anchor="start" x="316.83" y="-517.7" font-family="Times,serif" font-size="14.00"> &#160;&#160;SNAPSHOOTER_ROLE: bytes32</text>
<polyline fill="none" stroke="black" points="308.83,-509.5 831.17,-509.5 "/>
<text text-anchor="start" x="316.83" y="-492.9" font-family="Times,serif" font-size="14.00">Internal:</text>
<text text-anchor="start" x="316.83" y="-476.1" font-family="Times,serif" font-size="14.00"> &#160;&#160;&#160;__AuthorizationModule_init(admin: address, initialDelay: uint48) &lt;&lt;onlyInitializing&gt;&gt;</text>
<text text-anchor="start" x="316.83" y="-459.3" font-family="Times,serif" font-size="14.00"> &#160;&#160;&#160;__AuthorizationModule_init_unchained() &lt;&lt;onlyInitializing&gt;&gt;</text>
<text text-anchor="start" x="316.83" y="-442.5" font-family="Times,serif" font-size="14.00">Public:</text>
<text text-anchor="start" x="316.83" y="-425.7" font-family="Times,serif" font-size="14.00"> &#160;&#160;&#160;hasRole(role: bytes32, account: address): bool</text>
<text text-anchor="start" x="316.83" y="-408.9" font-family="Times,serif" font-size="14.00"> &#160;&#160;&#160;transferAdminshipDirectly(newAdmin: address) &lt;&lt;onlyRole&gt;&gt;</text>
</g>
<!-- 34 -->
<g id="node4" class="node">
<title>34</title>
<polygon fill="#f2f2f2" stroke="black" points="15.76,-41.3 15.76,-350.9 546.24,-350.9 546.24,-41.3 15.76,-41.3"/>
<text text-anchor="middle" x="281" y="-334.3" font-family="Times,serif" font-size="14.00">&lt;&lt;Abstract&gt;&gt;</text>
<text text-anchor="middle" x="281" y="-317.5" font-family="Times,serif" font-size="14.00">CreditEventsModule</text>
<text text-anchor="middle" x="281" y="-300.7" font-family="Times,serif" font-size="14.00">contracts/modules/wrapper/extensions/DebtModule/CreditEventsModule.sol</text>
<polyline fill="none" stroke="black" points="15.76,-292.5 546.24,-292.5 "/>
<text text-anchor="start" x="23.76" y="-275.9" font-family="Times,serif" font-size="14.00">Private:</text>
<text text-anchor="start" x="23.76" y="-259.1" font-family="Times,serif" font-size="14.00"> &#160;&#160;__gap: uint256[50]</text>
<text text-anchor="start" x="23.76" y="-242.3" font-family="Times,serif" font-size="14.00">Public:</text>
<text text-anchor="start" x="23.76" y="-225.5" font-family="Times,serif" font-size="14.00"> &#160;&#160;creditEvents: CreditEvents</text>
<polyline fill="none" stroke="black" points="15.76,-217.3 546.24,-217.3 "/>
<text text-anchor="start" x="23.76" y="-200.7" font-family="Times,serif" font-size="14.00">Internal:</text>
<text text-anchor="start" x="23.76" y="-183.9" font-family="Times,serif" font-size="14.00"> &#160;&#160;&#160;__CreditEvents_init_unchained() &lt;&lt;onlyInitializing&gt;&gt;</text>
<text text-anchor="start" x="23.76" y="-167.1" font-family="Times,serif" font-size="14.00">Public:</text>
<text text-anchor="start" x="23.76" y="-150.3" font-family="Times,serif" font-size="14.00"> &#160;&#160;&#160;&lt;&lt;event&gt;&gt; FlagDefault(newFlagDefault: bool)</text>
<text text-anchor="start" x="23.76" y="-133.5" font-family="Times,serif" font-size="14.00"> &#160;&#160;&#160;&lt;&lt;event&gt;&gt; FlagRedeemed(newFlagRedeemed: bool)</text>
<text text-anchor="start" x="23.76" y="-116.7" font-family="Times,serif" font-size="14.00"> &#160;&#160;&#160;&lt;&lt;event&gt;&gt; Rating(newRatingIndexed: string, newRating: string)</text>
<text text-anchor="start" x="23.76" y="-99.9" font-family="Times,serif" font-size="14.00"> &#160;&#160;&#160;setCreditEvents(flagDefault_: bool, flagRedeemed_: bool, rating_: string) &lt;&lt;onlyRole&gt;&gt;</text>
<text text-anchor="start" x="23.76" y="-83.1" font-family="Times,serif" font-size="14.00"> &#160;&#160;&#160;setFlagDefault(flagDefault_: bool) &lt;&lt;onlyRole&gt;&gt;</text>
<text text-anchor="start" x="23.76" y="-66.3" font-family="Times,serif" font-size="14.00"> &#160;&#160;&#160;setFlagRedeemed(flagRedeemed_: bool) &lt;&lt;onlyRole&gt;&gt;</text>
<text text-anchor="start" x="23.76" y="-49.5" font-family="Times,serif" font-size="14.00"> &#160;&#160;&#160;setRating(rating_: string) &lt;&lt;onlyRole&gt;&gt;</text>
</g>
<!-- 34&#45;&gt;4 -->
<g id="edge4" class="edge">
<title>34&#45;&gt;4</title>
<path fill="none" stroke="black" d="M224.68,-350.92C205.13,-404.33 184.21,-461.48 168.57,-504.2"/>
<polygon fill="black" stroke="black" points="165.26,-503.04 165.11,-513.63 171.84,-505.45 165.26,-503.04"/>
</g>
<!-- 34&#45;&gt;2 -->
<g id="edge2" class="edge">
<title>34&#45;&gt;2</title>
<path fill="none" stroke="black" stroke-dasharray="5,2" d="M283.81,-351.03C285.32,-503.69 283.48,-719.51 262,-752.4 259.99,-755.48 257.75,-758.4 255.34,-761.17"/>
<polygon fill="none" stroke="black" points="248.21,-753.45 231.9,-780.73 261.66,-769.57 248.21,-753.45"/>
</g>
<!-- 34&#45;&gt;18 -->
<g id="edge3" class="edge">
<title>34&#45;&gt;18</title>
<path fill="none" stroke="black" d="M399.8,-350.92C406.3,-359.34 412.87,-367.85 419.47,-376.39"/>
<polygon fill="none" stroke="black" points="411.39,-383.11 438.04,-400.43 428.01,-370.27 411.39,-383.11"/>
</g>
</g>
</svg>
