<?xml version="1.0" encoding="UTF-8" standalone="no"?>
<!DOCTYPE svg PUBLIC "-//W3C//DTD SVG 1.1//EN"
 "http://www.w3.org/Graphics/SVG/1.1/DTD/svg11.dtd">
<!-- Generated by graphviz version 5.0.0 (20220707.1540)
 -->
<!-- Title: UmlClassDiagram Pages: 1 -->
<svg width="887pt" height="881pt"
 viewBox="0.00 0.00 887.00 880.60" xmlns="http://www.w3.org/2000/svg" xmlns:xlink="http://www.w3.org/1999/xlink">
<g id="graph0" class="graph" transform="scale(1 1) rotate(0) translate(4 876.6)">
<title>UmlClassDiagram</title>
<polygon fill="white" stroke="transparent" points="-4,4 -4,-876.6 883,-876.6 883,4 -4,4"/>
<g id="clust1" class="cluster">
<title>cluster_0</title>
<polygon fill="white" stroke="black" points="59,-497.4 59,-864.6 293,-864.6 293,-497.4 59,-497.4"/>
<text text-anchor="middle" x="176" y="-505.6" font-family="Times,serif" font-size="14.00">contracts/interfaces</text>
</g>
<g id="clust2" class="cluster">
<title>cluster_1</title>
<polygon fill="white" stroke="black" points="333,-384.2 333,-769.2 871,-769.2 871,-384.2 333,-384.2"/>
<text text-anchor="middle" x="602" y="-392.4" font-family="Times,serif" font-size="14.00">contracts/modules/security</text>
</g>
<g id="clust3" class="cluster">
<title>cluster_2</title>
<polygon fill="white" stroke="black" points="8,-8 8,-376.2 618,-376.2 618,-8 8,-8"/>
<text text-anchor="middle" x="313" y="-16.2" font-family="Times,serif" font-size="14.00">contracts/modules/wrapper/extensions/DebtModule</text>
</g>
<!-- 4 -->
<g id="node1" class="node">
<title>4</title>
<polygon fill="#f2f2f2" stroke="black" points="66.73,-530.7 66.73,-647.5 285.27,-647.5 285.27,-530.7 66.73,-530.7"/>
<text text-anchor="middle" x="176" y="-630.9" font-family="Times,serif" font-size="14.00">&lt;&lt;Struct&gt;&gt;</text>
<text text-anchor="middle" x="176" y="-614.1" font-family="Times,serif" font-size="14.00">CreditEvents</text>
<text text-anchor="middle" x="176" y="-597.3" font-family="Times,serif" font-size="14.00">contracts/interfaces/IDebtGlobal.sol</text>
<polyline fill="none" stroke="black" points="66.73,-589.1 285.27,-589.1 "/>
<text text-anchor="start" x="74.73" y="-572.5" font-family="Times,serif" font-size="14.00">flagDefault: bool</text>
<text text-anchor="start" x="74.73" y="-555.7" font-family="Times,serif" font-size="14.00">flagRedeemed: bool</text>
<text text-anchor="start" x="74.73" y="-538.9" font-family="Times,serif" font-size="14.00">rating: string</text>
</g>
<!-- 2 -->
<g id="node2" class="node">
<title>2</title>
<polygon fill="#f2f2f2" stroke="black" points="66.73,-797.7 66.73,-856.1 285.27,-856.1 285.27,-797.7 66.73,-797.7"/>
<text text-anchor="middle" x="176" y="-839.5" font-family="Times,serif" font-size="14.00">&lt;&lt;Interface&gt;&gt;</text>
<text text-anchor="middle" x="176" y="-822.7" font-family="Times,serif" font-size="14.00">IDebtGlobal</text>
<text text-anchor="middle" x="176" y="-805.9" font-family="Times,serif" font-size="14.00">contracts/interfaces/IDebtGlobal.sol</text>
</g>
<!-- 4&#45;&gt;2 -->
<g id="edge1" class="edge">
<title>4&#45;&gt;2</title>
<path fill="none" stroke="black" d="M176,-647.78C176,-690.41 176,-747.4 176,-785.31"/>
<polygon fill="black" stroke="black" points="176,-785.39 180,-791.39 176,-797.39 172,-791.39 176,-785.39"/>
</g>
<!-- 18 -->
<g id="node3" class="node">
<title>18</title>
<polygon fill="#f2f2f2" stroke="black" points="340.83,-417.5 340.83,-760.7 863.17,-760.7 863.17,-417.5 340.83,-417.5"/>
<text text-anchor="middle" x="602" y="-744.1" font-family="Times,serif" font-size="14.00">&lt;&lt;Abstract&gt;&gt;</text>
<text text-anchor="middle" x="602" y="-727.3" font-family="Times,serif" font-size="14.00">AuthorizationModule</text>
<text text-anchor="middle" x="602" y="-710.5" font-family="Times,serif" font-size="14.00">contracts/modules/security/AuthorizationModule.sol</text>
<polyline fill="none" stroke="black" points="340.83,-702.3 863.17,-702.3 "/>
<text text-anchor="start" x="348.83" y="-685.7" font-family="Times,serif" font-size="14.00">Private:</text>
<text text-anchor="start" x="348.83" y="-668.9" font-family="Times,serif" font-size="14.00"> &#160;&#160;__gap: uint256[50]</text>
<text text-anchor="start" x="348.83" y="-652.1" font-family="Times,serif" font-size="14.00">Public:</text>
<text text-anchor="start" x="348.83" y="-635.3" font-family="Times,serif" font-size="14.00"> &#160;&#160;BURNER_ROLE: bytes32</text>
<text text-anchor="start" x="348.83" y="-618.5" font-family="Times,serif" font-size="14.00"> &#160;&#160;DEBT_CREDIT_EVENT_ROLE: bytes32</text>
<text text-anchor="start" x="348.83" y="-601.7" font-family="Times,serif" font-size="14.00"> &#160;&#160;DEBT_ROLE: bytes32</text>
<text text-anchor="start" x="348.83" y="-584.9" font-family="Times,serif" font-size="14.00"> &#160;&#160;ENFORCER_ROLE: bytes32</text>
<text text-anchor="start" x="348.83" y="-568.1" font-family="Times,serif" font-size="14.00"> &#160;&#160;MINTER_ROLE: bytes32</text>
<text text-anchor="start" x="348.83" y="-551.3" font-family="Times,serif" font-size="14.00"> &#160;&#160;PAUSER_ROLE: bytes32</text>
<text text-anchor="start" x="348.83" y="-534.5" font-family="Times,serif" font-size="14.00"> &#160;&#160;SNAPSHOOTER_ROLE: bytes32</text>
<polyline fill="none" stroke="black" points="340.83,-526.3 863.17,-526.3 "/>
<text text-anchor="start" x="348.83" y="-509.7" font-family="Times,serif" font-size="14.00">Internal:</text>
<text text-anchor="start" x="348.83" y="-492.9" font-family="Times,serif" font-size="14.00"> &#160;&#160;&#160;__AuthorizationModule_init(admin: address, initialDelay: uint48) &lt;&lt;onlyInitializing&gt;&gt;</text>
<text text-anchor="start" x="348.83" y="-476.1" font-family="Times,serif" font-size="14.00"> &#160;&#160;&#160;__AuthorizationModule_init_unchained() &lt;&lt;onlyInitializing&gt;&gt;</text>
<text text-anchor="start" x="348.83" y="-459.3" font-family="Times,serif" font-size="14.00">Public:</text>
<text text-anchor="start" x="348.83" y="-442.5" font-family="Times,serif" font-size="14.00"> &#160;&#160;&#160;hasRole(role: bytes32, account: address): bool</text>
<text text-anchor="start" x="348.83" y="-425.7" font-family="Times,serif" font-size="14.00"> &#160;&#160;&#160;transferAdminshipDirectly(newAdmin: address) &lt;&lt;onlyRole&gt;&gt;</text>
</g>
<!-- 34 -->
<g id="node4" class="node">
<title>34</title>
<polygon fill="#f2f2f2" stroke="black" points="15.68,-41.3 15.68,-367.7 610.32,-367.7 610.32,-41.3 15.68,-41.3"/>
<text text-anchor="middle" x="313" y="-351.1" font-family="Times,serif" font-size="14.00">&lt;&lt;Abstract&gt;&gt;</text>
<text text-anchor="middle" x="313" y="-334.3" font-family="Times,serif" font-size="14.00">CreditEventsModule</text>
<text text-anchor="middle" x="313" y="-317.5" font-family="Times,serif" font-size="14.00">contracts/modules/wrapper/extensions/DebtModule/CreditEventsModule.sol</text>
<polyline fill="none" stroke="black" points="15.68,-309.3 610.32,-309.3 "/>
<text text-anchor="start" x="23.68" y="-292.7" font-family="Times,serif" font-size="14.00">Private:</text>
<text text-anchor="start" x="23.68" y="-275.9" font-family="Times,serif" font-size="14.00"> &#160;&#160;__gap: uint256[50]</text>
<text text-anchor="start" x="23.68" y="-259.1" font-family="Times,serif" font-size="14.00">Public:</text>
<text text-anchor="start" x="23.68" y="-242.3" font-family="Times,serif" font-size="14.00"> &#160;&#160;creditEvents: CreditEvents</text>
<polyline fill="none" stroke="black" points="15.68,-234.1 610.32,-234.1 "/>
<text text-anchor="start" x="23.68" y="-217.5" font-family="Times,serif" font-size="14.00">Internal:</text>
<text text-anchor="start" x="23.68" y="-200.7" font-family="Times,serif" font-size="14.00"> &#160;&#160;&#160;__CreditEvents_init(admin: address, initialDelayToAcceptAdminRole: uint48) &lt;&lt;onlyInitializing&gt;&gt;</text>
<text text-anchor="start" x="23.68" y="-183.9" font-family="Times,serif" font-size="14.00"> &#160;&#160;&#160;__CreditEvents_init_unchained() &lt;&lt;onlyInitializing&gt;&gt;</text>
<text text-anchor="start" x="23.68" y="-167.1" font-family="Times,serif" font-size="14.00">Public:</text>
<text text-anchor="start" x="23.68" y="-150.3" font-family="Times,serif" font-size="14.00"> &#160;&#160;&#160;&lt;&lt;event&gt;&gt; FlagDefault(newFlagDefault: bool)</text>
<text text-anchor="start" x="23.68" y="-133.5" font-family="Times,serif" font-size="14.00"> &#160;&#160;&#160;&lt;&lt;event&gt;&gt; FlagRedeemed(newFlagRedeemed: bool)</text>
<text text-anchor="start" x="23.68" y="-116.7" font-family="Times,serif" font-size="14.00"> &#160;&#160;&#160;&lt;&lt;event&gt;&gt; Rating(newRatingIndexed: string, newRating: string)</text>
<text text-anchor="start" x="23.68" y="-99.9" font-family="Times,serif" font-size="14.00"> &#160;&#160;&#160;setCreditEvents(flagDefault_: bool, flagRedeemed_: bool, rating_: string) &lt;&lt;onlyRole&gt;&gt;</text>
<text text-anchor="start" x="23.68" y="-83.1" font-family="Times,serif" font-size="14.00"> &#160;&#160;&#160;setFlagDefault(flagDefault_: bool) &lt;&lt;onlyRole&gt;&gt;</text>
<text text-anchor="start" x="23.68" y="-66.3" font-family="Times,serif" font-size="14.00"> &#160;&#160;&#160;setFlagRedeemed(flagRedeemed_: bool) &lt;&lt;onlyRole&gt;&gt;</text>
<text text-anchor="start" x="23.68" y="-49.5" font-family="Times,serif" font-size="14.00"> &#160;&#160;&#160;setRating(rating_: string) &lt;&lt;onlyRole&gt;&gt;</text>
</g>
<!-- 34&#45;&gt;4 -->
<g id="edge4" class="edge">
<title>34&#45;&gt;4</title>
<path fill="none" stroke="black" d="M254.9,-367.76C235.68,-421.42 215.35,-478.2 200.14,-520.68"/>
<polygon fill="black" stroke="black" points="196.76,-519.75 196.68,-530.34 203.35,-522.11 196.76,-519.75"/>
</g>
<!-- 34&#45;&gt;2 -->
<g id="edge2" class="edge">
<title>34&#45;&gt;2</title>
<path fill="none" stroke="black" stroke-dasharray="5,2" d="M316,-367.85C317.5,-522.41 315.51,-736.25 294,-769.2 291.99,-772.28 289.76,-775.2 287.34,-777.97"/>
<polygon fill="none" stroke="black" points="280.21,-770.25 263.9,-797.53 293.66,-786.37 280.21,-770.25"/>
</g>
<!-- 34&#45;&gt;18 -->
<g id="edge3" class="edge">
<title>34&#45;&gt;18</title>
<path fill="none" stroke="black" d="M435.56,-367.76C441.95,-376.21 448.39,-384.74 454.84,-393.28"/>
<polygon fill="none" stroke="black" points="446.54,-399.71 473,-417.32 463.3,-387.05 446.54,-399.71"/>
</g>
</g>
</svg>
