<?xml version="1.0" encoding="UTF-8" standalone="no"?>
<!DOCTYPE svg PUBLIC "-//W3C//DTD SVG 1.1//EN"
 "http://www.w3.org/Graphics/SVG/1.1/DTD/svg11.dtd">
<!-- Generated by graphviz version 5.0.0 (20220707.1540)
 -->
<!-- Title: UmlClassDiagram Pages: 1 -->
<svg width="2216pt" height="1419pt"
 viewBox="0.00 0.00 2216.00 1418.60" xmlns="http://www.w3.org/2000/svg" xmlns:xlink="http://www.w3.org/1999/xlink">
<g id="graph0" class="graph" transform="scale(1 1) rotate(0) translate(4 1414.6)">
<title>UmlClassDiagram</title>
<polygon fill="white" stroke="transparent" points="-4,4 -4,-1414.6 2212,-1414.6 2212,4 -4,4"/>
<g id="clust1" class="cluster">
<title>cluster_0</title>
<polygon fill="white" stroke="black" points="8,-831.6 8,-1402.6 512,-1402.6 512,-831.6 8,-831.6"/>
<text text-anchor="middle" x="260" y="-839.8" font-family="Times,serif" font-size="14.00">contracts/interfaces/draft&#45;IERC1404</text>
</g>
<g id="clust2" class="cluster">
<title>cluster_1</title>
<polygon fill="white" stroke="black" points="520,-760.4 520,-1078.2 1616,-1078.2 1616,-760.4 520,-760.4"/>
<text text-anchor="middle" x="1068" y="-768.6" font-family="Times,serif" font-size="14.00">contracts/modules/internal</text>
</g>
<g id="clust3" class="cluster">
<title>cluster_2</title>
<polygon fill="white" stroke="black" points="1624,-726.8 1624,-1111.8 2162,-1111.8 2162,-726.8 1624,-726.8"/>
<text text-anchor="middle" x="1893" y="-735" font-family="Times,serif" font-size="14.00">contracts/modules/security</text>
</g>
<g id="clust4" class="cluster">
<title>cluster_3</title>
<polygon fill="white" stroke="black" points="366,-8 366,-359.4 1198,-359.4 1198,-8 366,-8"/>
<text text-anchor="middle" x="782" y="-16.2" font-family="Times,serif" font-size="14.00">contracts/modules/wrapper/controllers</text>
</g>
<g id="clust5" class="cluster">
<title>cluster_4</title>
<polygon fill="white" stroke="black" points="930,-367.4 930,-718.8 2200,-718.8 2200,-367.4 930,-367.4"/>
<text text-anchor="middle" x="1565" y="-375.6" font-family="Times,serif" font-size="14.00">contracts/modules/wrapper/core</text>
</g>
<!-- 8 -->
<g id="node1" class="node">
<title>8</title>
<polygon fill="#f2f2f2" stroke="black" points="17.36,-1277.3 17.36,-1394.1 502.64,-1394.1 502.64,-1277.3 17.36,-1277.3"/>
<text text-anchor="middle" x="260" y="-1377.5" font-family="Times,serif" font-size="14.00">&lt;&lt;Interface&gt;&gt;</text>
<text text-anchor="middle" x="260" y="-1360.7" font-family="Times,serif" font-size="14.00">IERC1404</text>
<text text-anchor="middle" x="260" y="-1343.9" font-family="Times,serif" font-size="14.00">contracts/interfaces/draft&#45;IERC1404/draft&#45;IERC1404.sol</text>
<polyline fill="none" stroke="black" points="17.36,-1335.7 502.64,-1335.7 "/>
<text text-anchor="start" x="25.36" y="-1319.1" font-family="Times,serif" font-size="14.00">External:</text>
<text text-anchor="start" x="25.36" y="-1302.3" font-family="Times,serif" font-size="14.00"> &#160;&#160;&#160;&#160;detectTransferRestriction(_from: address, _to: address, _amount: uint256): uint8</text>
<text text-anchor="start" x="25.36" y="-1285.5" font-family="Times,serif" font-size="14.00"> &#160;&#160;&#160;&#160;messageForTransferRestriction(_restrictionCode: uint8): string</text>
</g>
<!-- 10 -->
<g id="node2" class="node">
<title>10</title>
<polygon fill="#f2f2f2" stroke="black" points="68.31,-864.9 68.31,-998.5 451.69,-998.5 451.69,-864.9 68.31,-864.9"/>
<text text-anchor="middle" x="260" y="-981.9" font-family="Times,serif" font-size="14.00">&lt;&lt;Enum&gt;&gt;</text>
<text text-anchor="middle" x="260" y="-965.1" font-family="Times,serif" font-size="14.00">REJECTED_CODE_BASE</text>
<text text-anchor="middle" x="260" y="-948.3" font-family="Times,serif" font-size="14.00">contracts/interfaces/draft&#45;IERC1404/draft&#45;IERC1404Wrapper.sol</text>
<polyline fill="none" stroke="black" points="68.31,-940.1 451.69,-940.1 "/>
<text text-anchor="start" x="76.31" y="-923.5" font-family="Times,serif" font-size="14.00">TRANSFER_OK: 0</text>
<text text-anchor="start" x="76.31" y="-906.7" font-family="Times,serif" font-size="14.00">TRANSFER_REJECTED_PAUSED: 1</text>
<text text-anchor="start" x="76.31" y="-889.9" font-family="Times,serif" font-size="14.00">TRANSFER_REJECTED_FROM_FROZEN: 2</text>
<text text-anchor="start" x="76.31" y="-873.1" font-family="Times,serif" font-size="14.00">TRANSFER_REJECTED_TO_FROZEN: 3</text>
</g>
<!-- 9 -->
<g id="node3" class="node">
<title>9</title>
<polygon fill="#f2f2f2" stroke="black" points="16,-1140.3 16,-1240.3 504,-1240.3 504,-1140.3 16,-1140.3"/>
<text text-anchor="middle" x="260" y="-1223.7" font-family="Times,serif" font-size="14.00">&lt;&lt;Interface&gt;&gt;</text>
<text text-anchor="middle" x="260" y="-1206.9" font-family="Times,serif" font-size="14.00">IERC1404Wrapper</text>
<text text-anchor="middle" x="260" y="-1190.1" font-family="Times,serif" font-size="14.00">contracts/interfaces/draft&#45;IERC1404/draft&#45;IERC1404Wrapper.sol</text>
<polyline fill="none" stroke="black" points="16,-1181.9 504,-1181.9 "/>
<text text-anchor="start" x="24" y="-1165.3" font-family="Times,serif" font-size="14.00">External:</text>
<text text-anchor="start" x="24" y="-1148.5" font-family="Times,serif" font-size="14.00"> &#160;&#160;&#160;&#160;validateTransfer(_from: address, _to: address, _amount: uint256): (isValid: bool)</text>
</g>
<!-- 10&#45;&gt;9 -->
<g id="edge1" class="edge">
<title>10&#45;&gt;9</title>
<path fill="none" stroke="black" d="M260,-998.78C260,-1038.58 260,-1088.91 260,-1127.85"/>
<polygon fill="black" stroke="black" points="260,-1128.06 264,-1134.06 260,-1140.06 256,-1134.06 260,-1128.06"/>
</g>
<!-- 9&#45;&gt;8 -->
<g id="edge2" class="edge">
<title>9&#45;&gt;8</title>
<path fill="none" stroke="black" stroke-dasharray="5,2" d="M260,-1240.65C260,-1242.66 260,-1244.69 260,-1246.74"/>
<polygon fill="none" stroke="black" points="249.5,-1246.86 260,-1276.86 270.5,-1246.86 249.5,-1246.86"/>
</g>
<!-- 16 -->
<g id="node4" class="node">
<title>16</title>
<polygon fill="#f2f2f2" stroke="black" points="1053.95,-793.7 1053.95,-1069.7 1608.05,-1069.7 1608.05,-793.7 1053.95,-793.7"/>
<text text-anchor="middle" x="1331" y="-1053.1" font-family="Times,serif" font-size="14.00">&lt;&lt;Abstract&gt;&gt;</text>
<text text-anchor="middle" x="1331" y="-1036.3" font-family="Times,serif" font-size="14.00">EnforcementModuleInternal</text>
<text text-anchor="middle" x="1331" y="-1019.5" font-family="Times,serif" font-size="14.00">contracts/modules/internal/EnforcementModuleInternal.sol</text>
<polyline fill="none" stroke="black" points="1053.95,-1011.3 1608.05,-1011.3 "/>
<text text-anchor="start" x="1061.95" y="-994.7" font-family="Times,serif" font-size="14.00">Private:</text>
<text text-anchor="start" x="1061.95" y="-977.9" font-family="Times,serif" font-size="14.00"> &#160;&#160;_frozen: mapping(address=&gt;bool)</text>
<text text-anchor="start" x="1061.95" y="-961.1" font-family="Times,serif" font-size="14.00"> &#160;&#160;__gap: uint256[50]</text>
<polyline fill="none" stroke="black" points="1053.95,-952.9 1608.05,-952.9 "/>
<text text-anchor="start" x="1061.95" y="-936.3" font-family="Times,serif" font-size="14.00">Internal:</text>
<text text-anchor="start" x="1061.95" y="-919.5" font-family="Times,serif" font-size="14.00"> &#160;&#160;&#160;__Enforcement_init() &lt;&lt;onlyInitializing&gt;&gt;</text>
<text text-anchor="start" x="1061.95" y="-902.7" font-family="Times,serif" font-size="14.00"> &#160;&#160;&#160;__Enforcement_init_unchained() &lt;&lt;onlyInitializing&gt;&gt;</text>
<text text-anchor="start" x="1061.95" y="-885.9" font-family="Times,serif" font-size="14.00"> &#160;&#160;&#160;_freeze(account: address, reason: string): bool</text>
<text text-anchor="start" x="1061.95" y="-869.1" font-family="Times,serif" font-size="14.00"> &#160;&#160;&#160;_unfreeze(account: address, reason: string): bool</text>
<text text-anchor="start" x="1061.95" y="-852.3" font-family="Times,serif" font-size="14.00">Public:</text>
<text text-anchor="start" x="1061.95" y="-835.5" font-family="Times,serif" font-size="14.00"> &#160;&#160;&#160;&lt;&lt;event&gt;&gt; Freeze(enforcer: address, owner: address, reasonIndexed: string, reason: string)</text>
<text text-anchor="start" x="1061.95" y="-818.7" font-family="Times,serif" font-size="14.00"> &#160;&#160;&#160;&lt;&lt;event&gt;&gt; Unfreeze(enforcer: address, owner: address, reasonIndexed: string, reason: string)</text>
<text text-anchor="start" x="1061.95" y="-801.9" font-family="Times,serif" font-size="14.00"> &#160;&#160;&#160;frozen(account: address): bool</text>
</g>
<!-- 17 -->
<g id="node5" class="node">
<title>17</title>
<polygon fill="#f2f2f2" stroke="black" points="527.66,-793.7 527.66,-1069.7 1036.34,-1069.7 1036.34,-793.7 527.66,-793.7"/>
<text text-anchor="middle" x="782" y="-1053.1" font-family="Times,serif" font-size="14.00">&lt;&lt;Abstract&gt;&gt;</text>
<text text-anchor="middle" x="782" y="-1036.3" font-family="Times,serif" font-size="14.00">ValidationModuleInternal</text>
<text text-anchor="middle" x="782" y="-1019.5" font-family="Times,serif" font-size="14.00">contracts/modules/internal/ValidationModuleInternal.sol</text>
<polyline fill="none" stroke="black" points="527.66,-1011.3 1036.34,-1011.3 "/>
<text text-anchor="start" x="535.66" y="-994.7" font-family="Times,serif" font-size="14.00">Private:</text>
<text text-anchor="start" x="535.66" y="-977.9" font-family="Times,serif" font-size="14.00"> &#160;&#160;__gap: uint256[50]</text>
<text text-anchor="start" x="535.66" y="-961.1" font-family="Times,serif" font-size="14.00">Public:</text>
<text text-anchor="start" x="535.66" y="-944.3" font-family="Times,serif" font-size="14.00"> &#160;&#160;ruleEngine: IERC1404Wrapper</text>
<polyline fill="none" stroke="black" points="527.66,-936.1 1036.34,-936.1 "/>
<text text-anchor="start" x="535.66" y="-919.5" font-family="Times,serif" font-size="14.00">Internal:</text>
<text text-anchor="start" x="535.66" y="-902.7" font-family="Times,serif" font-size="14.00"> &#160;&#160;&#160;__Validation_init(ruleEngine_: IERC1404Wrapper) &lt;&lt;onlyInitializing&gt;&gt;</text>
<text text-anchor="start" x="535.66" y="-885.9" font-family="Times,serif" font-size="14.00"> &#160;&#160;&#160;__Validation_init_unchained(ruleEngine_: IERC1404Wrapper) &lt;&lt;onlyInitializing&gt;&gt;</text>
<text text-anchor="start" x="535.66" y="-869.1" font-family="Times,serif" font-size="14.00"> &#160;&#160;&#160;_validateTransfer(from: address, to: address, amount: uint256): bool</text>
<text text-anchor="start" x="535.66" y="-852.3" font-family="Times,serif" font-size="14.00"> &#160;&#160;&#160;_messageForTransferRestriction(restrictionCode: uint8): string</text>
<text text-anchor="start" x="535.66" y="-835.5" font-family="Times,serif" font-size="14.00"> &#160;&#160;&#160;_detectTransferRestriction(from: address, to: address, amount: uint256): uint8</text>
<text text-anchor="start" x="535.66" y="-818.7" font-family="Times,serif" font-size="14.00">Public:</text>
<text text-anchor="start" x="535.66" y="-801.9" font-family="Times,serif" font-size="14.00"> &#160;&#160;&#160;&lt;&lt;event&gt;&gt; RuleEngine(newRuleEngine: IERC1404Wrapper)</text>
</g>
<!-- 17&#45;&gt;9 -->
<g id="edge3" class="edge">
<title>17&#45;&gt;9</title>
<path fill="none" stroke="black" d="M592.81,-1069.88C567.64,-1085.19 541.65,-1099.62 516,-1111.8 496.81,-1120.91 476.31,-1129.24 455.57,-1136.78"/>
<polygon fill="black" stroke="black" points="454.27,-1133.52 446.03,-1140.18 456.62,-1140.12 454.27,-1133.52"/>
</g>
<!-- 18 -->
<g id="node6" class="node">
<title>18</title>
<polygon fill="#f2f2f2" stroke="black" points="1631.83,-760.1 1631.83,-1103.3 2154.17,-1103.3 2154.17,-760.1 1631.83,-760.1"/>
<text text-anchor="middle" x="1893" y="-1086.7" font-family="Times,serif" font-size="14.00">&lt;&lt;Abstract&gt;&gt;</text>
<text text-anchor="middle" x="1893" y="-1069.9" font-family="Times,serif" font-size="14.00">AuthorizationModule</text>
<text text-anchor="middle" x="1893" y="-1053.1" font-family="Times,serif" font-size="14.00">contracts/modules/security/AuthorizationModule.sol</text>
<polyline fill="none" stroke="black" points="1631.83,-1044.9 2154.17,-1044.9 "/>
<text text-anchor="start" x="1639.83" y="-1028.3" font-family="Times,serif" font-size="14.00">Private:</text>
<text text-anchor="start" x="1639.83" y="-1011.5" font-family="Times,serif" font-size="14.00"> &#160;&#160;__gap: uint256[50]</text>
<text text-anchor="start" x="1639.83" y="-994.7" font-family="Times,serif" font-size="14.00">Public:</text>
<text text-anchor="start" x="1639.83" y="-977.9" font-family="Times,serif" font-size="14.00"> &#160;&#160;BURNER_ROLE: bytes32</text>
<text text-anchor="start" x="1639.83" y="-961.1" font-family="Times,serif" font-size="14.00"> &#160;&#160;DEBT_CREDIT_EVENT_ROLE: bytes32</text>
<text text-anchor="start" x="1639.83" y="-944.3" font-family="Times,serif" font-size="14.00"> &#160;&#160;DEBT_ROLE: bytes32</text>
<text text-anchor="start" x="1639.83" y="-927.5" font-family="Times,serif" font-size="14.00"> &#160;&#160;ENFORCER_ROLE: bytes32</text>
<text text-anchor="start" x="1639.83" y="-910.7" font-family="Times,serif" font-size="14.00"> &#160;&#160;MINTER_ROLE: bytes32</text>
<text text-anchor="start" x="1639.83" y="-893.9" font-family="Times,serif" font-size="14.00"> &#160;&#160;PAUSER_ROLE: bytes32</text>
<text text-anchor="start" x="1639.83" y="-877.1" font-family="Times,serif" font-size="14.00"> &#160;&#160;SNAPSHOOTER_ROLE: bytes32</text>
<polyline fill="none" stroke="black" points="1631.83,-868.9 2154.17,-868.9 "/>
<text text-anchor="start" x="1639.83" y="-852.3" font-family="Times,serif" font-size="14.00">Internal:</text>
<text text-anchor="start" x="1639.83" y="-835.5" font-family="Times,serif" font-size="14.00"> &#160;&#160;&#160;__AuthorizationModule_init(admin: address, initialDelay: uint48) &lt;&lt;onlyInitializing&gt;&gt;</text>
<text text-anchor="start" x="1639.83" y="-818.7" font-family="Times,serif" font-size="14.00"> &#160;&#160;&#160;__AuthorizationModule_init_unchained() &lt;&lt;onlyInitializing&gt;&gt;</text>
<text text-anchor="start" x="1639.83" y="-801.9" font-family="Times,serif" font-size="14.00">Public:</text>
<text text-anchor="start" x="1639.83" y="-785.1" font-family="Times,serif" font-size="14.00"> &#160;&#160;&#160;hasRole(role: bytes32, account: address): bool</text>
<text text-anchor="start" x="1639.83" y="-768.3" font-family="Times,serif" font-size="14.00"> &#160;&#160;&#160;transferAdminshipDirectly(newAdmin: address) &lt;&lt;onlyRole&gt;&gt;</text>
</g>
<!-- 25 -->
<g id="node7" class="node">
<title>25</title>
<polygon fill="#f2f2f2" stroke="black" points="374.07,-41.3 374.07,-350.9 1189.93,-350.9 1189.93,-41.3 374.07,-41.3"/>
<text text-anchor="middle" x="782" y="-334.3" font-family="Times,serif" font-size="14.00">&lt;&lt;Abstract&gt;&gt;</text>
<text text-anchor="middle" x="782" y="-317.5" font-family="Times,serif" font-size="14.00">ValidationModule</text>
<text text-anchor="middle" x="782" y="-300.7" font-family="Times,serif" font-size="14.00">contracts/modules/wrapper/controllers/ValidationModule.sol</text>
<polyline fill="none" stroke="black" points="374.07,-292.5 1189.93,-292.5 "/>
<text text-anchor="start" x="382.07" y="-275.9" font-family="Times,serif" font-size="14.00">Private:</text>
<text text-anchor="start" x="382.07" y="-259.1" font-family="Times,serif" font-size="14.00"> &#160;&#160;__gap: uint256[50]</text>
<text text-anchor="start" x="382.07" y="-242.3" font-family="Times,serif" font-size="14.00">Public:</text>
<text text-anchor="start" x="382.07" y="-225.5" font-family="Times,serif" font-size="14.00"> &#160;&#160;TEXT_TRANSFER_OK: string</text>
<text text-anchor="start" x="382.07" y="-208.7" font-family="Times,serif" font-size="14.00"> &#160;&#160;TEXT_UNKNOWN_CODE: string</text>
<polyline fill="none" stroke="black" points="374.07,-200.5 1189.93,-200.5 "/>
<text text-anchor="start" x="382.07" y="-183.9" font-family="Times,serif" font-size="14.00">Internal:</text>
<text text-anchor="start" x="382.07" y="-167.1" font-family="Times,serif" font-size="14.00"> &#160;&#160;&#160;__ValidationModule_init(ruleEngine_: IERC1404Wrapper, admin: address, initialDelayToAcceptAdminRole: uint48) &lt;&lt;onlyInitializing&gt;&gt;</text>
<text text-anchor="start" x="382.07" y="-150.3" font-family="Times,serif" font-size="14.00"> &#160;&#160;&#160;__ValidationModule_init_unchained() &lt;&lt;onlyInitializing&gt;&gt;</text>
<text text-anchor="start" x="382.07" y="-133.5" font-family="Times,serif" font-size="14.00">External:</text>
<text text-anchor="start" x="382.07" y="-116.7" font-family="Times,serif" font-size="14.00"> &#160;&#160;&#160;setRuleEngine(ruleEngine_: IERC1404Wrapper) &lt;&lt;onlyRole&gt;&gt;</text>
<text text-anchor="start" x="382.07" y="-99.9" font-family="Times,serif" font-size="14.00"> &#160;&#160;&#160;messageForTransferRestriction(restrictionCode: uint8): (message: string)</text>
<text text-anchor="start" x="382.07" y="-83.1" font-family="Times,serif" font-size="14.00">Public:</text>
<text text-anchor="start" x="382.07" y="-66.3" font-family="Times,serif" font-size="14.00"> &#160;&#160;&#160;detectTransferRestriction(from: address, to: address, amount: uint256): (code: uint8)</text>
<text text-anchor="start" x="382.07" y="-49.5" font-family="Times,serif" font-size="14.00"> &#160;&#160;&#160;validateTransfer(from: address, to: address, amount: uint256): bool</text>
</g>
<!-- 25&#45;&gt;10 -->
<g id="edge8" class="edge">
<title>25&#45;&gt;10</title>
<path fill="none" stroke="black" stroke-dasharray="5,2" d="M491.31,-350.97C485.99,-356.3 480.88,-361.77 476,-367.4 350.46,-512.12 294.04,-737.62 272.07,-854.57"/>
<polygon fill="black" stroke="black" points="268.6,-854.05 270.23,-864.52 275.49,-855.32 268.6,-854.05"/>
</g>
<!-- 25&#45;&gt;9 -->
<g id="edge7" class="edge">
<title>25&#45;&gt;9</title>
<path fill="none" stroke="black" stroke-dasharray="5,2" d="M687.9,-351.11C629.37,-453.92 557.58,-594.11 516,-726.8 464.32,-891.74 568.65,-976.57 461,-1111.8 458.54,-1114.89 455.95,-1117.85 453.23,-1120.69"/>
<polygon fill="none" stroke="black" points="446.26,-1112.84 430.23,-1140.28 459.88,-1128.82 446.26,-1112.84"/>
</g>
<!-- 25&#45;&gt;17 -->
<g id="edge4" class="edge">
<title>25&#45;&gt;17</title>
<path fill="none" stroke="black" d="M782,-351.33C782,-472.05 782,-639.66 782,-763.56"/>
<polygon fill="none" stroke="black" points="771.5,-763.67 782,-793.67 792.5,-763.67 771.5,-763.67"/>
</g>
<!-- 30 -->
<g id="node8" class="node">
<title>30</title>
<polygon fill="#f2f2f2" stroke="black" points="938.3,-425.9 938.3,-685.1 1575.7,-685.1 1575.7,-425.9 938.3,-425.9"/>
<text text-anchor="middle" x="1257" y="-668.5" font-family="Times,serif" font-size="14.00">&lt;&lt;Abstract&gt;&gt;</text>
<text text-anchor="middle" x="1257" y="-651.7" font-family="Times,serif" font-size="14.00">EnforcementModule</text>
<text text-anchor="middle" x="1257" y="-634.9" font-family="Times,serif" font-size="14.00">contracts/modules/wrapper/core/EnforcementModule.sol</text>
<polyline fill="none" stroke="black" points="938.3,-626.7 1575.7,-626.7 "/>
<text text-anchor="start" x="946.3" y="-610.1" font-family="Times,serif" font-size="14.00">Private:</text>
<text text-anchor="start" x="946.3" y="-593.3" font-family="Times,serif" font-size="14.00"> &#160;&#160;__gap: uint256[50]</text>
<text text-anchor="start" x="946.3" y="-576.5" font-family="Times,serif" font-size="14.00">Internal:</text>
<text text-anchor="start" x="946.3" y="-559.7" font-family="Times,serif" font-size="14.00"> &#160;&#160;TEXT_TRANSFER_REJECTED_FROM_FROZEN: string</text>
<text text-anchor="start" x="946.3" y="-542.9" font-family="Times,serif" font-size="14.00"> &#160;&#160;TEXT_TRANSFER_REJECTED_TO_FROZEN: string</text>
<polyline fill="none" stroke="black" points="938.3,-534.7 1575.7,-534.7 "/>
<text text-anchor="start" x="946.3" y="-518.1" font-family="Times,serif" font-size="14.00">Internal:</text>
<text text-anchor="start" x="946.3" y="-501.3" font-family="Times,serif" font-size="14.00"> &#160;&#160;&#160;__EnforcementModule_init(admin: address, initialDelayToAcceptAdminRole: uint48) &lt;&lt;onlyInitializing&gt;&gt;</text>
<text text-anchor="start" x="946.3" y="-484.5" font-family="Times,serif" font-size="14.00"> &#160;&#160;&#160;__EnforcementModule_init_unchained() &lt;&lt;onlyInitializing&gt;&gt;</text>
<text text-anchor="start" x="946.3" y="-467.7" font-family="Times,serif" font-size="14.00">Public:</text>
<text text-anchor="start" x="946.3" y="-450.9" font-family="Times,serif" font-size="14.00"> &#160;&#160;&#160;freeze(account: address, reason: string): bool &lt;&lt;onlyRole&gt;&gt;</text>
<text text-anchor="start" x="946.3" y="-434.1" font-family="Times,serif" font-size="14.00"> &#160;&#160;&#160;unfreeze(account: address, reason: string): bool &lt;&lt;onlyRole&gt;&gt;</text>
</g>
<!-- 25&#45;&gt;30 -->
<g id="edge6" class="edge">
<title>25&#45;&gt;30</title>
<path fill="none" stroke="black" d="M986.54,-351C1011.55,-369.82 1037.05,-389.01 1061.91,-407.71"/>
<polygon fill="none" stroke="black" points="1055.73,-416.2 1086.01,-425.85 1068.36,-399.42 1055.73,-416.2"/>
</g>
<!-- 31 -->
<g id="node9" class="node">
<title>31</title>
<polygon fill="#f2f2f2" stroke="black" points="1594.12,-400.7 1594.12,-710.3 2191.88,-710.3 2191.88,-400.7 1594.12,-400.7"/>
<text text-anchor="middle" x="1893" y="-693.7" font-family="Times,serif" font-size="14.00">&lt;&lt;Abstract&gt;&gt;</text>
<text text-anchor="middle" x="1893" y="-676.9" font-family="Times,serif" font-size="14.00">PauseModule</text>
<text text-anchor="middle" x="1893" y="-660.1" font-family="Times,serif" font-size="14.00">contracts/modules/wrapper/core/PauseModule.sol</text>
<polyline fill="none" stroke="black" points="1594.12,-651.9 2191.88,-651.9 "/>
<text text-anchor="start" x="1602.12" y="-635.3" font-family="Times,serif" font-size="14.00">Private:</text>
<text text-anchor="start" x="1602.12" y="-618.5" font-family="Times,serif" font-size="14.00"> &#160;&#160;isDeactivated: bool</text>
<text text-anchor="start" x="1602.12" y="-601.7" font-family="Times,serif" font-size="14.00"> &#160;&#160;__gap: uint256[50]</text>
<text text-anchor="start" x="1602.12" y="-584.9" font-family="Times,serif" font-size="14.00">Internal:</text>
<text text-anchor="start" x="1602.12" y="-568.1" font-family="Times,serif" font-size="14.00"> &#160;&#160;TEXT_TRANSFER_REJECTED_PAUSED: string</text>
<polyline fill="none" stroke="black" points="1594.12,-559.9 2191.88,-559.9 "/>
<text text-anchor="start" x="1602.12" y="-543.3" font-family="Times,serif" font-size="14.00">Internal:</text>
<text text-anchor="start" x="1602.12" y="-526.5" font-family="Times,serif" font-size="14.00"> &#160;&#160;&#160;__PauseModule_init(admin: address, initialDelayToAcceptAdminRole: uint48) &lt;&lt;onlyInitializing&gt;&gt;</text>
<text text-anchor="start" x="1602.12" y="-509.7" font-family="Times,serif" font-size="14.00"> &#160;&#160;&#160;__PauseModule_init_unchained() &lt;&lt;onlyInitializing&gt;&gt;</text>
<text text-anchor="start" x="1602.12" y="-492.9" font-family="Times,serif" font-size="14.00">Public:</text>
<text text-anchor="start" x="1602.12" y="-476.1" font-family="Times,serif" font-size="14.00"> &#160;&#160;&#160;&lt;&lt;event&gt;&gt; Deactivated(account: address)</text>
<text text-anchor="start" x="1602.12" y="-459.3" font-family="Times,serif" font-size="14.00"> &#160;&#160;&#160;pause() &lt;&lt;onlyRole&gt;&gt;</text>
<text text-anchor="start" x="1602.12" y="-442.5" font-family="Times,serif" font-size="14.00"> &#160;&#160;&#160;unpause() &lt;&lt;onlyRole&gt;&gt;</text>
<text text-anchor="start" x="1602.12" y="-425.7" font-family="Times,serif" font-size="14.00"> &#160;&#160;&#160;deactivateContract() &lt;&lt;onlyRole&gt;&gt;</text>
<text text-anchor="start" x="1602.12" y="-408.9" font-family="Times,serif" font-size="14.00"> &#160;&#160;&#160;deactivated(): bool</text>
</g>
<!-- 25&#45;&gt;31 -->
<g id="edge5" class="edge">
<title>25&#45;&gt;31</title>
<path fill="none" stroke="black" d="M1190.1,-256.07C1319.13,-281.96 1460.47,-318.03 1585,-367.4 1599.99,-373.34 1615.09,-379.99 1630.12,-387.13"/>
<polygon fill="none" stroke="black" points="1625.52,-396.57 1657.06,-400.49 1634.85,-377.76 1625.52,-396.57"/>
</g>
<!-- 30&#45;&gt;16 -->
<g id="edge9" class="edge">
<title>30&#45;&gt;16</title>
<path fill="none" stroke="black" d="M1282.47,-685.28C1287.48,-710.62 1292.8,-737.55 1298.02,-763.94"/>
<polygon fill="none" stroke="black" points="1287.72,-765.99 1303.84,-793.38 1308.33,-761.92 1287.72,-765.99"/>
</g>
<!-- 30&#45;&gt;18 -->
<g id="edge10" class="edge">
<title>30&#45;&gt;18</title>
<path fill="none" stroke="black" d="M1501.45,-685.17C1529.24,-697.47 1557.47,-709 1585,-718.8 1600.03,-724.15 1605.52,-720.1 1620,-726.8 1631.79,-732.25 1643.57,-738.27 1655.24,-744.71"/>
<polygon fill="none" stroke="black" points="1650.22,-753.94 1681.43,-759.95 1660.78,-735.79 1650.22,-753.94"/>
</g>
<!-- 31&#45;&gt;18 -->
<g id="edge11" class="edge">
<title>31&#45;&gt;18</title>
<path fill="none" stroke="black" d="M1893,-710.32C1893,-716.7 1893,-723.13 1893,-729.58"/>
<polygon fill="none" stroke="black" points="1882.5,-729.83 1893,-759.83 1903.5,-729.83 1882.5,-729.83"/>
</g>
</g>
</svg>
