<?xml version="1.0" encoding="UTF-8" standalone="no"?>
<!DOCTYPE svg PUBLIC "-//W3C//DTD SVG 1.1//EN"
 "http://www.w3.org/Graphics/SVG/1.1/DTD/svg11.dtd">
<!-- Generated by graphviz version 5.0.0 (20220707.1540)
 -->
<!-- Title: UmlClassDiagram Pages: 1 -->
<svg width="2210pt" height="1419pt"
 viewBox="0.00 0.00 2210.00 1418.60" xmlns="http://www.w3.org/2000/svg" xmlns:xlink="http://www.w3.org/1999/xlink">
<g id="graph0" class="graph" transform="scale(1 1) rotate(0) translate(4 1414.6)">
<title>UmlClassDiagram</title>
<polygon fill="white" stroke="transparent" points="-4,4 -4,-1414.6 2206,-1414.6 2206,4 -4,4"/>
<g id="clust1" class="cluster">
<title>cluster_0</title>
<polygon fill="white" stroke="black" points="8,-831.6 8,-1402.6 512,-1402.6 512,-831.6 8,-831.6"/>
<text text-anchor="middle" x="260" y="-839.8" font-family="Times,serif" font-size="14.00">contracts/interfaces/IEIP1404</text>
</g>
<g id="clust2" class="cluster">
<title>cluster_1</title>
<polygon fill="white" stroke="black" points="520,-760.4 520,-1078.2 1610,-1078.2 1610,-760.4 520,-760.4"/>
<text text-anchor="middle" x="1065" y="-768.6" font-family="Times,serif" font-size="14.00">contracts/modules/internal</text>
</g>
<g id="clust3" class="cluster">
<title>cluster_2</title>
<polygon fill="white" stroke="black" points="1618,-726.8 1618,-1111.8 2156,-1111.8 2156,-726.8 1618,-726.8"/>
<text text-anchor="middle" x="1887" y="-735" font-family="Times,serif" font-size="14.00">contracts/modules/security</text>
</g>
<g id="clust4" class="cluster">
<title>cluster_3</title>
<polygon fill="white" stroke="black" points="366,-8 366,-359.4 1192,-359.4 1192,-8 366,-8"/>
<text text-anchor="middle" x="779" y="-16.2" font-family="Times,serif" font-size="14.00">contracts/modules/wrapper/controller</text>
</g>
<g id="clust5" class="cluster">
<title>cluster_4</title>
<polygon fill="white" stroke="black" points="924,-367.4 924,-718.8 2194,-718.8 2194,-367.4 924,-367.4"/>
<text text-anchor="middle" x="1559" y="-375.6" font-family="Times,serif" font-size="14.00">contracts/modules/wrapper/core</text>
</g>
<!-- 8 -->
<g id="node1" class="node">
<title>8</title>
<polygon fill="#f2f2f2" stroke="black" points="17.36,-1277.3 17.36,-1394.1 502.64,-1394.1 502.64,-1277.3 17.36,-1277.3"/>
<text text-anchor="middle" x="260" y="-1377.5" font-family="Times,serif" font-size="14.00">&lt;&lt;Interface&gt;&gt;</text>
<text text-anchor="middle" x="260" y="-1360.7" font-family="Times,serif" font-size="14.00">IEIP1404</text>
<text text-anchor="middle" x="260" y="-1343.9" font-family="Times,serif" font-size="14.00">contracts/interfaces/IEIP1404/IEIP1404.sol</text>
<polyline fill="none" stroke="black" points="17.36,-1335.7 502.64,-1335.7 "/>
<text text-anchor="start" x="25.36" y="-1319.1" font-family="Times,serif" font-size="14.00">External:</text>
<text text-anchor="start" x="25.36" y="-1302.3" font-family="Times,serif" font-size="14.00"> &#160;&#160;&#160;&#160;detectTransferRestriction(_from: address, _to: address, _amount: uint256): uint8</text>
<text text-anchor="start" x="25.36" y="-1285.5" font-family="Times,serif" font-size="14.00"> &#160;&#160;&#160;&#160;messageForTransferRestriction(_restrictionCode: uint8): string</text>
</g>
<!-- 10 -->
<g id="node2" class="node">
<title>10</title>
<polygon fill="#f2f2f2" stroke="black" points="105.63,-864.9 105.63,-998.5 414.37,-998.5 414.37,-864.9 105.63,-864.9"/>
<text text-anchor="middle" x="260" y="-981.9" font-family="Times,serif" font-size="14.00">&lt;&lt;Enum&gt;&gt;</text>
<text text-anchor="middle" x="260" y="-965.1" font-family="Times,serif" font-size="14.00">REJECTED_CODE_BASE</text>
<text text-anchor="middle" x="260" y="-948.3" font-family="Times,serif" font-size="14.00">contracts/interfaces/IEIP1404/IEIP1404Wrapper.sol</text>
<polyline fill="none" stroke="black" points="105.63,-940.1 414.37,-940.1 "/>
<text text-anchor="start" x="113.63" y="-923.5" font-family="Times,serif" font-size="14.00">TRANSFER_OK: 0</text>
<text text-anchor="start" x="113.63" y="-906.7" font-family="Times,serif" font-size="14.00">TRANSFER_REJECTED_PAUSED: 1</text>
<text text-anchor="start" x="113.63" y="-889.9" font-family="Times,serif" font-size="14.00">TRANSFER_REJECTED_FROM_FROZEN: 2</text>
<text text-anchor="start" x="113.63" y="-873.1" font-family="Times,serif" font-size="14.00">TRANSFER_REJECTED_TO_FROZEN: 3</text>
</g>
<!-- 9 -->
<g id="node3" class="node">
<title>9</title>
<polygon fill="#f2f2f2" stroke="black" points="16,-1140.3 16,-1240.3 504,-1240.3 504,-1140.3 16,-1140.3"/>
<text text-anchor="middle" x="260" y="-1223.7" font-family="Times,serif" font-size="14.00">&lt;&lt;Interface&gt;&gt;</text>
<text text-anchor="middle" x="260" y="-1206.9" font-family="Times,serif" font-size="14.00">IEIP1404Wrapper</text>
<text text-anchor="middle" x="260" y="-1190.1" font-family="Times,serif" font-size="14.00">contracts/interfaces/IEIP1404/IEIP1404Wrapper.sol</text>
<polyline fill="none" stroke="black" points="16,-1181.9 504,-1181.9 "/>
<text text-anchor="start" x="24" y="-1165.3" font-family="Times,serif" font-size="14.00">External:</text>
<text text-anchor="start" x="24" y="-1148.5" font-family="Times,serif" font-size="14.00"> &#160;&#160;&#160;&#160;validateTransfer(_from: address, _to: address, _amount: uint256): (isValid: bool)</text>
</g>
<!-- 10&#45;&gt;9 -->
<g id="edge1" class="edge">
<title>10&#45;&gt;9</title>
<path fill="none" stroke="black" d="M260,-998.78C260,-1038.58 260,-1088.91 260,-1127.85"/>
<polygon fill="black" stroke="black" points="260,-1128.06 264,-1134.06 260,-1140.06 256,-1134.06 260,-1128.06"/>
</g>
<!-- 9&#45;&gt;8 -->
<g id="edge2" class="edge">
<title>9&#45;&gt;8</title>
<path fill="none" stroke="black" stroke-dasharray="5,2" d="M260,-1240.65C260,-1242.66 260,-1244.69 260,-1246.74"/>
<polygon fill="none" stroke="black" points="249.5,-1246.86 260,-1276.86 270.5,-1246.86 249.5,-1246.86"/>
</g>
<!-- 16 -->
<g id="node4" class="node">
<title>16</title>
<polygon fill="#f2f2f2" stroke="black" points="1047.95,-793.7 1047.95,-1069.7 1602.05,-1069.7 1602.05,-793.7 1047.95,-793.7"/>
<text text-anchor="middle" x="1325" y="-1053.1" font-family="Times,serif" font-size="14.00">&lt;&lt;Abstract&gt;&gt;</text>
<text text-anchor="middle" x="1325" y="-1036.3" font-family="Times,serif" font-size="14.00">EnforcementModuleInternal</text>
<text text-anchor="middle" x="1325" y="-1019.5" font-family="Times,serif" font-size="14.00">contracts/modules/internal/EnforcementModuleInternal.sol</text>
<polyline fill="none" stroke="black" points="1047.95,-1011.3 1602.05,-1011.3 "/>
<text text-anchor="start" x="1055.95" y="-994.7" font-family="Times,serif" font-size="14.00">Private:</text>
<text text-anchor="start" x="1055.95" y="-977.9" font-family="Times,serif" font-size="14.00"> &#160;&#160;_frozen: mapping(address=&gt;bool)</text>
<text text-anchor="start" x="1055.95" y="-961.1" font-family="Times,serif" font-size="14.00"> &#160;&#160;__gap: uint256[50]</text>
<polyline fill="none" stroke="black" points="1047.95,-952.9 1602.05,-952.9 "/>
<text text-anchor="start" x="1055.95" y="-936.3" font-family="Times,serif" font-size="14.00">Internal:</text>
<text text-anchor="start" x="1055.95" y="-919.5" font-family="Times,serif" font-size="14.00"> &#160;&#160;&#160;__Enforcement_init() &lt;&lt;onlyInitializing&gt;&gt;</text>
<text text-anchor="start" x="1055.95" y="-902.7" font-family="Times,serif" font-size="14.00"> &#160;&#160;&#160;__Enforcement_init_unchained() &lt;&lt;onlyInitializing&gt;&gt;</text>
<text text-anchor="start" x="1055.95" y="-885.9" font-family="Times,serif" font-size="14.00"> &#160;&#160;&#160;_freeze(account: address, reason: string): bool</text>
<text text-anchor="start" x="1055.95" y="-869.1" font-family="Times,serif" font-size="14.00"> &#160;&#160;&#160;_unfreeze(account: address, reason: string): bool</text>
<text text-anchor="start" x="1055.95" y="-852.3" font-family="Times,serif" font-size="14.00">Public:</text>
<text text-anchor="start" x="1055.95" y="-835.5" font-family="Times,serif" font-size="14.00"> &#160;&#160;&#160;&lt;&lt;event&gt;&gt; Freeze(enforcer: address, owner: address, reasonIndexed: string, reason: string)</text>
<text text-anchor="start" x="1055.95" y="-818.7" font-family="Times,serif" font-size="14.00"> &#160;&#160;&#160;&lt;&lt;event&gt;&gt; Unfreeze(enforcer: address, owner: address, reasonIndexed: string, reason: string)</text>
<text text-anchor="start" x="1055.95" y="-801.9" font-family="Times,serif" font-size="14.00"> &#160;&#160;&#160;frozen(account: address): bool</text>
</g>
<!-- 17 -->
<g id="node5" class="node">
<title>17</title>
<polygon fill="#f2f2f2" stroke="black" points="527.77,-793.7 527.77,-1069.7 1030.23,-1069.7 1030.23,-793.7 527.77,-793.7"/>
<text text-anchor="middle" x="779" y="-1053.1" font-family="Times,serif" font-size="14.00">&lt;&lt;Abstract&gt;&gt;</text>
<text text-anchor="middle" x="779" y="-1036.3" font-family="Times,serif" font-size="14.00">ValidationModuleInternal</text>
<text text-anchor="middle" x="779" y="-1019.5" font-family="Times,serif" font-size="14.00">contracts/modules/internal/ValidationModuleInternal.sol</text>
<polyline fill="none" stroke="black" points="527.77,-1011.3 1030.23,-1011.3 "/>
<text text-anchor="start" x="535.77" y="-994.7" font-family="Times,serif" font-size="14.00">Private:</text>
<text text-anchor="start" x="535.77" y="-977.9" font-family="Times,serif" font-size="14.00"> &#160;&#160;__gap: uint256[50]</text>
<text text-anchor="start" x="535.77" y="-961.1" font-family="Times,serif" font-size="14.00">Public:</text>
<text text-anchor="start" x="535.77" y="-944.3" font-family="Times,serif" font-size="14.00"> &#160;&#160;ruleEngine: IEIP1404Wrapper</text>
<polyline fill="none" stroke="black" points="527.77,-936.1 1030.23,-936.1 "/>
<text text-anchor="start" x="535.77" y="-919.5" font-family="Times,serif" font-size="14.00">Internal:</text>
<text text-anchor="start" x="535.77" y="-902.7" font-family="Times,serif" font-size="14.00"> &#160;&#160;&#160;__Validation_init(ruleEngine_: IEIP1404Wrapper) &lt;&lt;onlyInitializing&gt;&gt;</text>
<text text-anchor="start" x="535.77" y="-885.9" font-family="Times,serif" font-size="14.00"> &#160;&#160;&#160;__Validation_init_unchained(ruleEngine_: IEIP1404Wrapper) &lt;&lt;onlyInitializing&gt;&gt;</text>
<text text-anchor="start" x="535.77" y="-869.1" font-family="Times,serif" font-size="14.00"> &#160;&#160;&#160;_validateTransfer(from: address, to: address, amount: uint256): bool</text>
<text text-anchor="start" x="535.77" y="-852.3" font-family="Times,serif" font-size="14.00"> &#160;&#160;&#160;_messageForTransferRestriction(restrictionCode: uint8): string</text>
<text text-anchor="start" x="535.77" y="-835.5" font-family="Times,serif" font-size="14.00"> &#160;&#160;&#160;_detectTransferRestriction(from: address, to: address, amount: uint256): uint8</text>
<text text-anchor="start" x="535.77" y="-818.7" font-family="Times,serif" font-size="14.00">Public:</text>
<text text-anchor="start" x="535.77" y="-801.9" font-family="Times,serif" font-size="14.00"> &#160;&#160;&#160;&lt;&lt;event&gt;&gt; RuleEngine(newRuleEngine: IEIP1404Wrapper)</text>
</g>
<!-- 17&#45;&gt;9 -->
<g id="edge3" class="edge">
<title>17&#45;&gt;9</title>
<path fill="none" stroke="black" d="M592.42,-1069.71C567.4,-1085.09 541.54,-1099.59 516,-1111.8 496.84,-1120.96 476.35,-1129.32 455.62,-1136.88"/>
<polygon fill="black" stroke="black" points="454.31,-1133.63 446.08,-1140.29 456.67,-1140.22 454.31,-1133.63"/>
</g>
<!-- 18 -->
<g id="node6" class="node">
<title>18</title>
<polygon fill="#f2f2f2" stroke="black" points="1625.83,-760.1 1625.83,-1103.3 2148.17,-1103.3 2148.17,-760.1 1625.83,-760.1"/>
<text text-anchor="middle" x="1887" y="-1086.7" font-family="Times,serif" font-size="14.00">&lt;&lt;Abstract&gt;&gt;</text>
<text text-anchor="middle" x="1887" y="-1069.9" font-family="Times,serif" font-size="14.00">AuthorizationModule</text>
<text text-anchor="middle" x="1887" y="-1053.1" font-family="Times,serif" font-size="14.00">contracts/modules/security/AuthorizationModule.sol</text>
<polyline fill="none" stroke="black" points="1625.83,-1044.9 2148.17,-1044.9 "/>
<text text-anchor="start" x="1633.83" y="-1028.3" font-family="Times,serif" font-size="14.00">Private:</text>
<text text-anchor="start" x="1633.83" y="-1011.5" font-family="Times,serif" font-size="14.00"> &#160;&#160;__gap: uint256[50]</text>
<text text-anchor="start" x="1633.83" y="-994.7" font-family="Times,serif" font-size="14.00">Public:</text>
<text text-anchor="start" x="1633.83" y="-977.9" font-family="Times,serif" font-size="14.00"> &#160;&#160;BURNER_ROLE: bytes32</text>
<text text-anchor="start" x="1633.83" y="-961.1" font-family="Times,serif" font-size="14.00"> &#160;&#160;DEBT_CREDIT_EVENT_ROLE: bytes32</text>
<text text-anchor="start" x="1633.83" y="-944.3" font-family="Times,serif" font-size="14.00"> &#160;&#160;DEBT_ROLE: bytes32</text>
<text text-anchor="start" x="1633.83" y="-927.5" font-family="Times,serif" font-size="14.00"> &#160;&#160;ENFORCER_ROLE: bytes32</text>
<text text-anchor="start" x="1633.83" y="-910.7" font-family="Times,serif" font-size="14.00"> &#160;&#160;MINTER_ROLE: bytes32</text>
<text text-anchor="start" x="1633.83" y="-893.9" font-family="Times,serif" font-size="14.00"> &#160;&#160;PAUSER_ROLE: bytes32</text>
<text text-anchor="start" x="1633.83" y="-877.1" font-family="Times,serif" font-size="14.00"> &#160;&#160;SNAPSHOOTER_ROLE: bytes32</text>
<polyline fill="none" stroke="black" points="1625.83,-868.9 2148.17,-868.9 "/>
<text text-anchor="start" x="1633.83" y="-852.3" font-family="Times,serif" font-size="14.00">Internal:</text>
<text text-anchor="start" x="1633.83" y="-835.5" font-family="Times,serif" font-size="14.00"> &#160;&#160;&#160;__AuthorizationModule_init(admin: address, initialDelay: uint48) &lt;&lt;onlyInitializing&gt;&gt;</text>
<text text-anchor="start" x="1633.83" y="-818.7" font-family="Times,serif" font-size="14.00"> &#160;&#160;&#160;__AuthorizationModule_init_unchained() &lt;&lt;onlyInitializing&gt;&gt;</text>
<text text-anchor="start" x="1633.83" y="-801.9" font-family="Times,serif" font-size="14.00">Public:</text>
<text text-anchor="start" x="1633.83" y="-785.1" font-family="Times,serif" font-size="14.00"> &#160;&#160;&#160;hasRole(role: bytes32, account: address): bool</text>
<text text-anchor="start" x="1633.83" y="-768.3" font-family="Times,serif" font-size="14.00"> &#160;&#160;&#160;transferAdminshipDirectly(newAdmin: address) &lt;&lt;onlyRole&gt;&gt;</text>
</g>
<!-- 25 -->
<g id="node7" class="node">
<title>25</title>
<polygon fill="#f2f2f2" stroke="black" points="374.18,-41.3 374.18,-350.9 1183.82,-350.9 1183.82,-41.3 374.18,-41.3"/>
<text text-anchor="middle" x="779" y="-334.3" font-family="Times,serif" font-size="14.00">&lt;&lt;Abstract&gt;&gt;</text>
<text text-anchor="middle" x="779" y="-317.5" font-family="Times,serif" font-size="14.00">ValidationModule</text>
<text text-anchor="middle" x="779" y="-300.7" font-family="Times,serif" font-size="14.00">contracts/modules/wrapper/controller/ValidationModule.sol</text>
<polyline fill="none" stroke="black" points="374.18,-292.5 1183.82,-292.5 "/>
<text text-anchor="start" x="382.18" y="-275.9" font-family="Times,serif" font-size="14.00">Private:</text>
<text text-anchor="start" x="382.18" y="-259.1" font-family="Times,serif" font-size="14.00"> &#160;&#160;__gap: uint256[50]</text>
<text text-anchor="start" x="382.18" y="-242.3" font-family="Times,serif" font-size="14.00">Public:</text>
<text text-anchor="start" x="382.18" y="-225.5" font-family="Times,serif" font-size="14.00"> &#160;&#160;TEXT_TRANSFER_OK: string</text>
<text text-anchor="start" x="382.18" y="-208.7" font-family="Times,serif" font-size="14.00"> &#160;&#160;TEXT_UNKNOWN_CODE: string</text>
<polyline fill="none" stroke="black" points="374.18,-200.5 1183.82,-200.5 "/>
<text text-anchor="start" x="382.18" y="-183.9" font-family="Times,serif" font-size="14.00">Internal:</text>
<text text-anchor="start" x="382.18" y="-167.1" font-family="Times,serif" font-size="14.00"> &#160;&#160;&#160;__ValidationModule_init(ruleEngine_: IEIP1404Wrapper, admin: address, initialDelayToAcceptAdminRole: uint48) &lt;&lt;onlyInitializing&gt;&gt;</text>
<text text-anchor="start" x="382.18" y="-150.3" font-family="Times,serif" font-size="14.00"> &#160;&#160;&#160;__ValidationModule_init_unchained() &lt;&lt;onlyInitializing&gt;&gt;</text>
<text text-anchor="start" x="382.18" y="-133.5" font-family="Times,serif" font-size="14.00">External:</text>
<text text-anchor="start" x="382.18" y="-116.7" font-family="Times,serif" font-size="14.00"> &#160;&#160;&#160;setRuleEngine(ruleEngine_: IEIP1404Wrapper) &lt;&lt;onlyRole&gt;&gt;</text>
<text text-anchor="start" x="382.18" y="-99.9" font-family="Times,serif" font-size="14.00"> &#160;&#160;&#160;messageForTransferRestriction(restrictionCode: uint8): (message: string)</text>
<text text-anchor="start" x="382.18" y="-83.1" font-family="Times,serif" font-size="14.00">Public:</text>
<text text-anchor="start" x="382.18" y="-66.3" font-family="Times,serif" font-size="14.00"> &#160;&#160;&#160;detectTransferRestriction(from: address, to: address, amount: uint256): (code: uint8)</text>
<text text-anchor="start" x="382.18" y="-49.5" font-family="Times,serif" font-size="14.00"> &#160;&#160;&#160;validateTransfer(from: address, to: address, amount: uint256): bool</text>
</g>
<!-- 25&#45;&gt;10 -->
<g id="edge8" class="edge">
<title>25&#45;&gt;10</title>
<path fill="none" stroke="black" stroke-dasharray="5,2" d="M472.21,-350.97C466.92,-356.29 461.85,-361.77 457,-367.4 333.25,-511.26 285.74,-737.62 268.72,-854.78"/>
<polygon fill="black" stroke="black" points="265.24,-854.35 267.3,-864.74 272.17,-855.33 265.24,-854.35"/>
</g>
<!-- 25&#45;&gt;9 -->
<g id="edge7" class="edge">
<title>25&#45;&gt;9</title>
<path fill="none" stroke="black" stroke-dasharray="5,2" d="M691.13,-350.94C634.85,-454.54 563.7,-595.7 516,-726.8 455.82,-892.22 533.96,-975.14 423,-1111.8 420.53,-1114.84 417.91,-1117.78 415.16,-1120.6"/>
<polygon fill="none" stroke="black" points="408.11,-1112.81 391.94,-1140.18 421.64,-1128.87 408.11,-1112.81"/>
</g>
<!-- 25&#45;&gt;17 -->
<g id="edge4" class="edge">
<title>25&#45;&gt;17</title>
<path fill="none" stroke="black" d="M779,-351.33C779,-472.05 779,-639.66 779,-763.56"/>
<polygon fill="none" stroke="black" points="768.5,-763.67 779,-793.67 789.5,-763.67 768.5,-763.67"/>
</g>
<!-- 30 -->
<g id="node8" class="node">
<title>30</title>
<polygon fill="#f2f2f2" stroke="black" points="932.3,-425.9 932.3,-685.1 1569.7,-685.1 1569.7,-425.9 932.3,-425.9"/>
<text text-anchor="middle" x="1251" y="-668.5" font-family="Times,serif" font-size="14.00">&lt;&lt;Abstract&gt;&gt;</text>
<text text-anchor="middle" x="1251" y="-651.7" font-family="Times,serif" font-size="14.00">EnforcementModule</text>
<text text-anchor="middle" x="1251" y="-634.9" font-family="Times,serif" font-size="14.00">contracts/modules/wrapper/core/EnforcementModule.sol</text>
<polyline fill="none" stroke="black" points="932.3,-626.7 1569.7,-626.7 "/>
<text text-anchor="start" x="940.3" y="-610.1" font-family="Times,serif" font-size="14.00">Private:</text>
<text text-anchor="start" x="940.3" y="-593.3" font-family="Times,serif" font-size="14.00"> &#160;&#160;__gap: uint256[50]</text>
<text text-anchor="start" x="940.3" y="-576.5" font-family="Times,serif" font-size="14.00">Internal:</text>
<text text-anchor="start" x="940.3" y="-559.7" font-family="Times,serif" font-size="14.00"> &#160;&#160;TEXT_TRANSFER_REJECTED_FROM_FROZEN: string</text>
<text text-anchor="start" x="940.3" y="-542.9" font-family="Times,serif" font-size="14.00"> &#160;&#160;TEXT_TRANSFER_REJECTED_TO_FROZEN: string</text>
<polyline fill="none" stroke="black" points="932.3,-534.7 1569.7,-534.7 "/>
<text text-anchor="start" x="940.3" y="-518.1" font-family="Times,serif" font-size="14.00">Internal:</text>
<text text-anchor="start" x="940.3" y="-501.3" font-family="Times,serif" font-size="14.00"> &#160;&#160;&#160;__EnforcementModule_init(admin: address, initialDelayToAcceptAdminRole: uint48) &lt;&lt;onlyInitializing&gt;&gt;</text>
<text text-anchor="start" x="940.3" y="-484.5" font-family="Times,serif" font-size="14.00"> &#160;&#160;&#160;__EnforcementModule_init_unchained() &lt;&lt;onlyInitializing&gt;&gt;</text>
<text text-anchor="start" x="940.3" y="-467.7" font-family="Times,serif" font-size="14.00">Public:</text>
<text text-anchor="start" x="940.3" y="-450.9" font-family="Times,serif" font-size="14.00"> &#160;&#160;&#160;freeze(account: address, reason: string): bool &lt;&lt;onlyRole&gt;&gt;</text>
<text text-anchor="start" x="940.3" y="-434.1" font-family="Times,serif" font-size="14.00"> &#160;&#160;&#160;unfreeze(account: address, reason: string): bool &lt;&lt;onlyRole&gt;&gt;</text>
</g>
<!-- 25&#45;&gt;30 -->
<g id="edge6" class="edge">
<title>25&#45;&gt;30</title>
<path fill="none" stroke="black" d="M982.25,-351C1007.1,-369.82 1032.44,-389.01 1057.15,-407.71"/>
<polygon fill="none" stroke="black" points="1050.84,-416.11 1081.09,-425.85 1063.52,-399.37 1050.84,-416.11"/>
</g>
<!-- 31 -->
<g id="node9" class="node">
<title>31</title>
<polygon fill="#f2f2f2" stroke="black" points="1588.12,-400.7 1588.12,-710.3 2185.88,-710.3 2185.88,-400.7 1588.12,-400.7"/>
<text text-anchor="middle" x="1887" y="-693.7" font-family="Times,serif" font-size="14.00">&lt;&lt;Abstract&gt;&gt;</text>
<text text-anchor="middle" x="1887" y="-676.9" font-family="Times,serif" font-size="14.00">PauseModule</text>
<text text-anchor="middle" x="1887" y="-660.1" font-family="Times,serif" font-size="14.00">contracts/modules/wrapper/core/PauseModule.sol</text>
<polyline fill="none" stroke="black" points="1588.12,-651.9 2185.88,-651.9 "/>
<text text-anchor="start" x="1596.12" y="-635.3" font-family="Times,serif" font-size="14.00">Private:</text>
<text text-anchor="start" x="1596.12" y="-618.5" font-family="Times,serif" font-size="14.00"> &#160;&#160;isDeactivated: bool</text>
<text text-anchor="start" x="1596.12" y="-601.7" font-family="Times,serif" font-size="14.00"> &#160;&#160;__gap: uint256[50]</text>
<text text-anchor="start" x="1596.12" y="-584.9" font-family="Times,serif" font-size="14.00">Internal:</text>
<text text-anchor="start" x="1596.12" y="-568.1" font-family="Times,serif" font-size="14.00"> &#160;&#160;TEXT_TRANSFER_REJECTED_PAUSED: string</text>
<polyline fill="none" stroke="black" points="1588.12,-559.9 2185.88,-559.9 "/>
<text text-anchor="start" x="1596.12" y="-543.3" font-family="Times,serif" font-size="14.00">Internal:</text>
<text text-anchor="start" x="1596.12" y="-526.5" font-family="Times,serif" font-size="14.00"> &#160;&#160;&#160;__PauseModule_init(admin: address, initialDelayToAcceptAdminRole: uint48) &lt;&lt;onlyInitializing&gt;&gt;</text>
<text text-anchor="start" x="1596.12" y="-509.7" font-family="Times,serif" font-size="14.00"> &#160;&#160;&#160;__PauseModule_init_unchained() &lt;&lt;onlyInitializing&gt;&gt;</text>
<text text-anchor="start" x="1596.12" y="-492.9" font-family="Times,serif" font-size="14.00">Public:</text>
<text text-anchor="start" x="1596.12" y="-476.1" font-family="Times,serif" font-size="14.00"> &#160;&#160;&#160;&lt;&lt;event&gt;&gt; Deactivated(account: address)</text>
<text text-anchor="start" x="1596.12" y="-459.3" font-family="Times,serif" font-size="14.00"> &#160;&#160;&#160;pause() &lt;&lt;onlyRole&gt;&gt;</text>
<text text-anchor="start" x="1596.12" y="-442.5" font-family="Times,serif" font-size="14.00"> &#160;&#160;&#160;unpause() &lt;&lt;onlyRole&gt;&gt;</text>
<text text-anchor="start" x="1596.12" y="-425.7" font-family="Times,serif" font-size="14.00"> &#160;&#160;&#160;deactivateContract() &lt;&lt;onlyRole&gt;&gt;</text>
<text text-anchor="start" x="1596.12" y="-408.9" font-family="Times,serif" font-size="14.00"> &#160;&#160;&#160;deactivated(): bool</text>
</g>
<!-- 25&#45;&gt;31 -->
<g id="edge5" class="edge">
<title>25&#45;&gt;31</title>
<path fill="none" stroke="black" d="M1184.04,-255.91C1312.99,-281.83 1454.44,-317.96 1579,-367.4 1593.99,-373.35 1609.09,-380 1624.12,-387.15"/>
<polygon fill="none" stroke="black" points="1619.51,-396.58 1651.05,-400.51 1628.84,-377.77 1619.51,-396.58"/>
</g>
<!-- 30&#45;&gt;16 -->
<g id="edge9" class="edge">
<title>30&#45;&gt;16</title>
<path fill="none" stroke="black" d="M1276.47,-685.28C1281.48,-710.62 1286.8,-737.55 1292.02,-763.94"/>
<polygon fill="none" stroke="black" points="1281.72,-765.99 1297.84,-793.38 1302.33,-761.92 1281.72,-765.99"/>
</g>
<!-- 30&#45;&gt;18 -->
<g id="edge10" class="edge">
<title>30&#45;&gt;18</title>
<path fill="none" stroke="black" d="M1495.45,-685.17C1523.24,-697.47 1551.47,-709 1579,-718.8 1594.03,-724.15 1599.52,-720.1 1614,-726.8 1625.79,-732.25 1637.57,-738.27 1649.24,-744.71"/>
<polygon fill="none" stroke="black" points="1644.22,-753.94 1675.43,-759.95 1654.78,-735.79 1644.22,-753.94"/>
</g>
<!-- 31&#45;&gt;18 -->
<g id="edge11" class="edge">
<title>31&#45;&gt;18</title>
<path fill="none" stroke="black" d="M1887,-710.32C1887,-716.7 1887,-723.13 1887,-729.58"/>
<polygon fill="none" stroke="black" points="1876.5,-729.83 1887,-759.83 1897.5,-729.83 1876.5,-729.83"/>
</g>
</g>
</svg>
